M48
INCH,TZ
T1C0.016
T2C0.030
T3C0.030
T4C0.031
T5C0.031
T6C0.035
T7C0.040
T8C0.042
T9C0.126
%
G90
G05
T1
X25800Y-43900
X26250Y-45250
X26750Y-46500
X27000Y-26500
X28250Y-28000
X28250Y-42000
X28750Y-43500
X30250Y-45500
X30250Y-46500
X31900Y-43400
X32000Y-38900
X32250Y-44250
X32700Y-41600
X32700Y-43100
X32900Y-29400
X33250Y-36750
X33700Y-26200
X34750Y-49000
X35250Y-36750
X35500Y-29000
X35600Y-28600
X36000Y-26200
X37000Y-28600
X37000Y-29750
X37000Y-31500
X37750Y-38000
X38000Y-26750
X38500Y-38750
X40000Y-29000
X40000Y-30000
X40000Y-31000
X40000Y-33750
X42400Y-29000
X43400Y-30000
X46500Y-47000
T2
X31800Y-24700
X32587Y-24700
X35000Y-24700
X35787Y-24700
T3
X28130Y-54000
X30130Y-54000
X32130Y-54000
X34130Y-54000
X36130Y-54000
X38130Y-54000
X40130Y-54000
X42130Y-54000
X44130Y-54000
T4
X36070Y-41126
X36070Y-41914
X36070Y-42701
X36070Y-43489
X36070Y-44276
X36070Y-45063
X36070Y-45851
X36070Y-46638
X36070Y-47426
X36070Y-48213
X44730Y-41126
X44730Y-41914
X44730Y-42701
X44730Y-43489
X44730Y-44276
X44730Y-45063
X44730Y-45851
X44730Y-46638
X44730Y-47426
X44730Y-48213
T5
X24500Y-29000
X24500Y-30000
X24500Y-31000
X24500Y-32000
X24500Y-33000
X24500Y-34000
X24500Y-35000
X24500Y-36000
X24500Y-37000
X24500Y-38000
X24500Y-39000
X24500Y-40000
X24500Y-41000
X24500Y-42000
X24500Y-43000
X30500Y-29000
X30500Y-30000
X30500Y-31000
X30500Y-32000
X30500Y-33000
X30500Y-34000
X30500Y-35000
X30500Y-36000
X30500Y-37000
X30500Y-38000
X30500Y-39000
X30500Y-40000
X30500Y-41000
X30500Y-42000
X30500Y-43000
T6
X33250Y-33000
X34250Y-33000
X35250Y-33000
T7
X39000Y-36150
X40000Y-36150
X41000Y-36150
X42000Y-36150
X43000Y-36150
X44000Y-36150
X45000Y-36150
X46000Y-36150
T8
X25300Y-45500
X25300Y-46500
X25300Y-48250
X25300Y-49250
X25300Y-51000
X25300Y-52000
X46700Y-51500
X46700Y-52500
T9
X24409Y-24016
X24409Y-55512
X46850Y-38976
T0
M30
