G04 #@! TF.FileFunction,Soldermask,Top*
%FSLAX46Y46*%
G04 Gerber Fmt 4.6, Leading zero omitted, Abs format (unit mm)*
G04 Created by KiCad (PCBNEW 4.0.7) date 04/09/18 23:53:00*
%MOMM*%
%LPD*%
G01*
G04 APERTURE LIST*
%ADD10C,0.100000*%
%ADD11C,1.701600*%
%ADD12R,1.701600X1.701600*%
%ADD13O,1.701600X1.701600*%
%ADD14R,1.351600X1.601600*%
%ADD15R,1.601600X1.351600*%
%ADD16C,1.771600*%
%ADD17R,1.601600X1.401600*%
%ADD18R,1.401600X1.601600*%
%ADD19C,1.881600*%
%ADD20C,2.801600*%
%ADD21C,1.901600*%
%ADD22R,1.901600X1.901600*%
%ADD23R,1.301600X1.801600*%
%ADD24O,1.301600X1.801600*%
%ADD25R,1.661600X0.751600*%
%ADD26C,1.625600*%
%ADD27C,6.501600*%
G04 APERTURE END LIST*
D10*
D11*
X112090000Y-137160000D03*
X107010000Y-137160000D03*
X101930000Y-137160000D03*
X96850000Y-137160000D03*
X91770000Y-137160000D03*
X86690000Y-137160000D03*
X81610000Y-137160000D03*
X76530000Y-137160000D03*
X71450000Y-137160000D03*
D12*
X77470000Y-109220000D03*
D13*
X62230000Y-76200000D03*
X77470000Y-106680000D03*
X62230000Y-78740000D03*
X77470000Y-104140000D03*
X62230000Y-81280000D03*
X77470000Y-101600000D03*
X62230000Y-83820000D03*
X77470000Y-99060000D03*
X62230000Y-86360000D03*
X77470000Y-96520000D03*
X62230000Y-88900000D03*
X77470000Y-93980000D03*
X62230000Y-91440000D03*
X77470000Y-91440000D03*
X62230000Y-93980000D03*
X77470000Y-88900000D03*
X62230000Y-96520000D03*
X77470000Y-86360000D03*
X62230000Y-99060000D03*
X77470000Y-83820000D03*
X62230000Y-101600000D03*
X77470000Y-81280000D03*
X62230000Y-104140000D03*
X77470000Y-78740000D03*
X62230000Y-106680000D03*
X77470000Y-76200000D03*
X62230000Y-109220000D03*
X77470000Y-73660000D03*
X62230000Y-73660000D03*
D14*
X84455000Y-88920000D03*
X84455000Y-91420000D03*
X89535000Y-88920000D03*
X89535000Y-91420000D03*
D15*
X85705000Y-111252000D03*
X83205000Y-111252000D03*
X85705000Y-107442000D03*
X83205000Y-107442000D03*
X85705000Y-103632000D03*
X83205000Y-103632000D03*
D14*
X81915000Y-71100000D03*
X81915000Y-68600000D03*
X92075000Y-71100000D03*
X92075000Y-68600000D03*
D16*
X64262000Y-132080000D03*
X64262000Y-129540000D03*
X118618000Y-130810000D03*
X118618000Y-133350000D03*
X64262000Y-125095000D03*
X64262000Y-122555000D03*
X64262000Y-118110000D03*
X64262000Y-115570000D03*
D17*
X90090000Y-98425000D03*
X92790000Y-98425000D03*
X83740000Y-98425000D03*
X86440000Y-98425000D03*
X71675000Y-114935000D03*
X74375000Y-114935000D03*
X71675000Y-118110000D03*
X74375000Y-118110000D03*
D18*
X118110000Y-125810000D03*
X118110000Y-123110000D03*
D19*
X99060000Y-91821000D03*
X101600000Y-91821000D03*
X106680000Y-91821000D03*
X104140000Y-91821000D03*
X109220000Y-91821000D03*
X111760000Y-91821000D03*
X114300000Y-91821000D03*
X116840000Y-91821000D03*
D20*
X118110000Y-64135000D03*
X97790000Y-64135000D03*
X97790000Y-84455000D03*
X118110000Y-84455000D03*
D21*
X89535000Y-83820000D03*
D22*
X84455000Y-83820000D03*
D21*
X86995000Y-83820000D03*
D23*
X80772000Y-62738000D03*
D24*
X82772000Y-62738000D03*
D23*
X88900000Y-62738000D03*
D24*
X90900000Y-62738000D03*
D25*
X85645000Y-72710000D03*
X85645000Y-73660000D03*
X85645000Y-74610000D03*
X88345000Y-74610000D03*
X88345000Y-72710000D03*
X88345000Y-73660000D03*
D26*
X91617800Y-104460040D03*
X91617800Y-106461560D03*
X91617800Y-108460540D03*
X91617800Y-110462060D03*
X91617800Y-112461040D03*
X91617800Y-114460020D03*
X91617800Y-116461540D03*
X91617800Y-118460520D03*
X91617800Y-120462040D03*
X91617800Y-122461020D03*
X113614200Y-122461020D03*
X113614200Y-120462040D03*
X113614200Y-118460520D03*
X113614200Y-116461540D03*
X113614200Y-114460020D03*
X113614200Y-112461040D03*
X113614200Y-110462060D03*
X113614200Y-108460540D03*
X113614200Y-106461560D03*
X113614200Y-104460040D03*
D27*
X62000000Y-61000000D03*
X119000000Y-99000000D03*
X62000000Y-141000000D03*
M02*
