G04 #@! TF.FileFunction,Soldermask,Bot*
%FSLAX46Y46*%
G04 Gerber Fmt 4.6, Leading zero omitted, Abs format (unit mm)*
G04 Created by KiCad (PCBNEW 4.0.7) date 04/10/18 20:36:44*
%MOMM*%
%LPD*%
G01*
G04 APERTURE LIST*
%ADD10C,0.100000*%
%ADD11C,1.700000*%
%ADD12R,1.700000X1.700000*%
%ADD13O,1.700000X1.700000*%
%ADD14C,1.770000*%
%ADD15C,1.880000*%
%ADD16C,2.800000*%
%ADD17C,1.900000*%
%ADD18R,1.900000X1.900000*%
%ADD19R,1.300000X1.800000*%
%ADD20O,1.300000X1.800000*%
%ADD21C,6.500000*%
G04 APERTURE END LIST*
D10*
D11*
X112090000Y-137160000D03*
X107010000Y-137160000D03*
X101930000Y-137160000D03*
X96850000Y-137160000D03*
X91770000Y-137160000D03*
X86690000Y-137160000D03*
X81610000Y-137160000D03*
X76530000Y-137160000D03*
X71450000Y-137160000D03*
D12*
X77470000Y-109220000D03*
D13*
X62230000Y-76200000D03*
X77470000Y-106680000D03*
X62230000Y-78740000D03*
X77470000Y-104140000D03*
X62230000Y-81280000D03*
X77470000Y-101600000D03*
X62230000Y-83820000D03*
X77470000Y-99060000D03*
X62230000Y-86360000D03*
X77470000Y-96520000D03*
X62230000Y-88900000D03*
X77470000Y-93980000D03*
X62230000Y-91440000D03*
X77470000Y-91440000D03*
X62230000Y-93980000D03*
X77470000Y-88900000D03*
X62230000Y-96520000D03*
X77470000Y-86360000D03*
X62230000Y-99060000D03*
X77470000Y-83820000D03*
X62230000Y-101600000D03*
X77470000Y-81280000D03*
X62230000Y-104140000D03*
X77470000Y-78740000D03*
X62230000Y-106680000D03*
X77470000Y-76200000D03*
X62230000Y-109220000D03*
X77470000Y-73660000D03*
X62230000Y-73660000D03*
D14*
X64262000Y-132080000D03*
X64262000Y-129540000D03*
X118618000Y-130810000D03*
X118618000Y-133350000D03*
X64262000Y-125095000D03*
X64262000Y-122555000D03*
X64262000Y-118110000D03*
X64262000Y-115570000D03*
D15*
X99060000Y-91821000D03*
X101600000Y-91821000D03*
X106680000Y-91821000D03*
X104140000Y-91821000D03*
X109220000Y-91821000D03*
X111760000Y-91821000D03*
X114300000Y-91821000D03*
X116840000Y-91821000D03*
D16*
X118110000Y-64135000D03*
X97790000Y-64135000D03*
X97790000Y-84455000D03*
X118110000Y-84455000D03*
D17*
X89535000Y-83820000D03*
D18*
X84455000Y-83820000D03*
D17*
X86995000Y-83820000D03*
D19*
X80772000Y-62738000D03*
D20*
X82772000Y-62738000D03*
D19*
X88900000Y-62738000D03*
D20*
X90900000Y-62738000D03*
D21*
X62000000Y-61000000D03*
X119000000Y-99000000D03*
X62000000Y-141000000D03*
M02*
