G04 #@! TF.FileFunction,Copper,L2,Bot,Signal*
%FSLAX46Y46*%
G04 Gerber Fmt 4.6, Leading zero omitted, Abs format (unit mm)*
G04 Created by KiCad (PCBNEW 4.0.7) date 04/10/18 20:34:57*
%MOMM*%
%LPD*%
G01*
G04 APERTURE LIST*
%ADD10C,0.100000*%
%ADD11C,6.400000*%
%ADD12R,1.600000X1.600000*%
%ADD13O,1.600000X1.600000*%
%ADD14C,1.800000*%
%ADD15R,1.800000X1.800000*%
%ADD16C,1.524000*%
%ADD17R,1.200000X1.700000*%
%ADD18O,1.200000X1.700000*%
%ADD19C,1.670000*%
%ADD20C,0.600000*%
%ADD21C,0.250000*%
%ADD22C,0.254000*%
G04 APERTURE END LIST*
D10*
D11*
X87000000Y-98000000D03*
X87000000Y-146000000D03*
X164000000Y-146000000D03*
D12*
X93472000Y-104140000D03*
D13*
X108712000Y-137160000D03*
X93472000Y-106680000D03*
X108712000Y-134620000D03*
X93472000Y-109220000D03*
X108712000Y-132080000D03*
X93472000Y-111760000D03*
X108712000Y-129540000D03*
X93472000Y-114300000D03*
X108712000Y-127000000D03*
X93472000Y-116840000D03*
X108712000Y-124460000D03*
X93472000Y-119380000D03*
X108712000Y-121920000D03*
X93472000Y-121920000D03*
X108712000Y-119380000D03*
X93472000Y-124460000D03*
X108712000Y-116840000D03*
X93472000Y-127000000D03*
X108712000Y-114300000D03*
X93472000Y-129540000D03*
X108712000Y-111760000D03*
X93472000Y-132080000D03*
X108712000Y-109220000D03*
X93472000Y-134620000D03*
X108712000Y-106680000D03*
X93472000Y-137160000D03*
X108712000Y-104140000D03*
X93472000Y-139700000D03*
X108712000Y-139700000D03*
D14*
X130810000Y-109220000D03*
D15*
X125730000Y-109220000D03*
D14*
X128270000Y-109220000D03*
D16*
X142417800Y-111572040D03*
X142417800Y-113573560D03*
X142417800Y-115572540D03*
X142417800Y-117574060D03*
X142417800Y-119573040D03*
X142417800Y-121572020D03*
X142417800Y-123573540D03*
X142417800Y-125572520D03*
X142417800Y-127574040D03*
X142417800Y-129573020D03*
X164414200Y-129573020D03*
X164414200Y-127574040D03*
X164414200Y-125572520D03*
X164414200Y-123573540D03*
X164414200Y-121572020D03*
X164414200Y-119573040D03*
X164414200Y-117574060D03*
X164414200Y-115572540D03*
X164414200Y-113573560D03*
X164414200Y-111572040D03*
D11*
X164000000Y-98000000D03*
D17*
X125095000Y-98425000D03*
D18*
X123095000Y-98425000D03*
D17*
X135255000Y-98425000D03*
D18*
X133255000Y-98425000D03*
D19*
X149860000Y-144018000D03*
X147320000Y-144018000D03*
X134620000Y-144018000D03*
X132080000Y-144018000D03*
X127000000Y-144018000D03*
X124460000Y-144018000D03*
X142240000Y-144018000D03*
X139700000Y-144018000D03*
X119380000Y-144018000D03*
X116840000Y-144018000D03*
D20*
X135382000Y-114554000D03*
X135382000Y-117348000D03*
X135382000Y-120396000D03*
X112395000Y-116205000D03*
X120396000Y-118110000D03*
X122428000Y-130556000D03*
X117348000Y-128016000D03*
X111760000Y-135636000D03*
X131572000Y-127508000D03*
X138684000Y-127000000D03*
X127000000Y-115824000D03*
X139700000Y-116205000D03*
X111125000Y-113030000D03*
X116586000Y-113538000D03*
X147256500Y-137858500D03*
X117475000Y-138430000D03*
X122555000Y-123825000D03*
X119380000Y-123190000D03*
X119380000Y-127635000D03*
X118745000Y-112395000D03*
X112776000Y-132588000D03*
X112776000Y-136144000D03*
X114300000Y-110490000D03*
D21*
X116621560Y-113573560D02*
X142417800Y-113573560D01*
X116586000Y-113538000D02*
X116621560Y-113573560D01*
X108712000Y-104140000D02*
X109855000Y-104140000D01*
X125730000Y-104140000D02*
X125730000Y-109220000D01*
X123825000Y-102235000D02*
X125730000Y-104140000D01*
X111760000Y-102235000D02*
X123825000Y-102235000D01*
X109855000Y-104140000D02*
X111760000Y-102235000D01*
X147320000Y-139065000D02*
X149860000Y-141605000D01*
X108712000Y-121920000D02*
X125730000Y-121920000D01*
X130175000Y-121920000D02*
X147320000Y-139065000D01*
X125730000Y-121920000D02*
X130175000Y-121920000D01*
X149860000Y-141605000D02*
X149860000Y-143510000D01*
X128778000Y-119380000D02*
X147256500Y-137858500D01*
X108712000Y-119380000D02*
X128778000Y-119380000D01*
X95377000Y-141605000D02*
X93472000Y-139700000D01*
X109855000Y-141605000D02*
X95377000Y-141605000D01*
X113030000Y-138430000D02*
X109855000Y-141605000D01*
X117475000Y-138430000D02*
X113030000Y-138430000D01*
X123825000Y-137795000D02*
X124460000Y-137160000D01*
X124460000Y-137160000D02*
X124460000Y-129540000D01*
X124460000Y-129540000D02*
X123190000Y-128270000D01*
X123825000Y-137795000D02*
X118745000Y-137795000D01*
X121920000Y-127000000D02*
X121920000Y-124460000D01*
X123190000Y-128270000D02*
X121920000Y-127000000D01*
X121920000Y-124460000D02*
X122555000Y-123825000D01*
X110490000Y-139700000D02*
X108712000Y-139700000D01*
X118745000Y-137795000D02*
X112395000Y-137795000D01*
X112395000Y-137795000D02*
X110490000Y-139700000D01*
X119380000Y-127635000D02*
X119380000Y-123190000D01*
X118872000Y-112522000D02*
X118745000Y-112395000D01*
X118872000Y-112522000D02*
X127254000Y-112522000D01*
X118872000Y-112522000D02*
X118872000Y-112522000D01*
X127254000Y-112522000D02*
X130810000Y-109220000D01*
X112776000Y-136144000D02*
X112776000Y-132588000D01*
X108712000Y-111760000D02*
X110490000Y-111760000D01*
X110490000Y-111760000D02*
X111760000Y-110490000D01*
X111760000Y-110490000D02*
X114300000Y-110490000D01*
X123095000Y-98425000D02*
X123095000Y-98139000D01*
X123095000Y-98139000D02*
X124968000Y-96266000D01*
X124968000Y-96266000D02*
X133096000Y-96266000D01*
X133096000Y-96266000D02*
X135255000Y-98425000D01*
D22*
G36*
X121954009Y-97673293D02*
X121860000Y-98145907D01*
X121860000Y-98704093D01*
X121954009Y-99176707D01*
X122221723Y-99577370D01*
X122622386Y-99845084D01*
X123095000Y-99939093D01*
X123567614Y-99845084D01*
X123944996Y-99592926D01*
X124030910Y-99726441D01*
X124243110Y-99871431D01*
X124495000Y-99922440D01*
X125695000Y-99922440D01*
X125930317Y-99878162D01*
X126146441Y-99739090D01*
X126291431Y-99526890D01*
X126342440Y-99275000D01*
X126342440Y-98747696D01*
X132009744Y-98747696D01*
X132132353Y-99218701D01*
X132425875Y-99606933D01*
X132845624Y-99853286D01*
X132937391Y-99868462D01*
X133128000Y-99743731D01*
X133128000Y-98552000D01*
X132172453Y-98552000D01*
X132009744Y-98747696D01*
X126342440Y-98747696D01*
X126342440Y-97575000D01*
X126311205Y-97409000D01*
X132300422Y-97409000D01*
X132132353Y-97631299D01*
X132009744Y-98102304D01*
X132172453Y-98298000D01*
X133128000Y-98298000D01*
X133128000Y-98278000D01*
X133382000Y-98278000D01*
X133382000Y-98298000D01*
X133402000Y-98298000D01*
X133402000Y-98552000D01*
X133382000Y-98552000D01*
X133382000Y-99743731D01*
X133572609Y-99868462D01*
X133664376Y-99853286D01*
X134084125Y-99606933D01*
X134100269Y-99585580D01*
X134190910Y-99726441D01*
X134403110Y-99871431D01*
X134655000Y-99922440D01*
X135855000Y-99922440D01*
X136090317Y-99878162D01*
X136306441Y-99739090D01*
X136451431Y-99526890D01*
X136502440Y-99275000D01*
X136502440Y-97575000D01*
X136471205Y-97409000D01*
X160165514Y-97409000D01*
X160164336Y-98759482D01*
X160746950Y-100169515D01*
X161824811Y-101249259D01*
X163233825Y-101834333D01*
X164759482Y-101835664D01*
X166169515Y-101253050D01*
X166751000Y-100672579D01*
X166751000Y-143327558D01*
X166175189Y-142750741D01*
X164766175Y-142165667D01*
X163240518Y-142164336D01*
X161830485Y-142746950D01*
X160750741Y-143824811D01*
X160165667Y-145233825D01*
X160164336Y-146759482D01*
X160746950Y-148169515D01*
X161547037Y-148971000D01*
X89452058Y-148971000D01*
X90249259Y-148175189D01*
X90834333Y-146766175D01*
X90835664Y-145240518D01*
X90450818Y-144309118D01*
X115369745Y-144309118D01*
X115593068Y-144849600D01*
X116006225Y-145263479D01*
X116546316Y-145487744D01*
X117131118Y-145488255D01*
X117671600Y-145264932D01*
X117885810Y-145051095D01*
X118526510Y-145051095D01*
X118604942Y-145300842D01*
X119154861Y-145499793D01*
X119739057Y-145473156D01*
X120155058Y-145300842D01*
X120233490Y-145051095D01*
X119380000Y-144197605D01*
X118526510Y-145051095D01*
X117885810Y-145051095D01*
X118085479Y-144851775D01*
X118108395Y-144796587D01*
X118346905Y-144871490D01*
X119200395Y-144018000D01*
X119559605Y-144018000D01*
X120413095Y-144871490D01*
X120662842Y-144793058D01*
X120837922Y-144309118D01*
X122989745Y-144309118D01*
X123213068Y-144849600D01*
X123626225Y-145263479D01*
X124166316Y-145487744D01*
X124751118Y-145488255D01*
X125291600Y-145264932D01*
X125705479Y-144851775D01*
X125729783Y-144793245D01*
X125753068Y-144849600D01*
X126166225Y-145263479D01*
X126706316Y-145487744D01*
X127291118Y-145488255D01*
X127831600Y-145264932D01*
X128245479Y-144851775D01*
X128469744Y-144311684D01*
X128469746Y-144309118D01*
X130609745Y-144309118D01*
X130833068Y-144849600D01*
X131246225Y-145263479D01*
X131786316Y-145487744D01*
X132371118Y-145488255D01*
X132911600Y-145264932D01*
X133125810Y-145051095D01*
X133766510Y-145051095D01*
X133844942Y-145300842D01*
X134394861Y-145499793D01*
X134979057Y-145473156D01*
X135395058Y-145300842D01*
X135473490Y-145051095D01*
X134620000Y-144197605D01*
X133766510Y-145051095D01*
X133125810Y-145051095D01*
X133325479Y-144851775D01*
X133348395Y-144796587D01*
X133586905Y-144871490D01*
X134440395Y-144018000D01*
X134799605Y-144018000D01*
X135653095Y-144871490D01*
X135902842Y-144793058D01*
X136077922Y-144309118D01*
X138229745Y-144309118D01*
X138453068Y-144849600D01*
X138866225Y-145263479D01*
X139406316Y-145487744D01*
X139991118Y-145488255D01*
X140531600Y-145264932D01*
X140745810Y-145051095D01*
X141386510Y-145051095D01*
X141464942Y-145300842D01*
X142014861Y-145499793D01*
X142599057Y-145473156D01*
X143015058Y-145300842D01*
X143093490Y-145051095D01*
X142240000Y-144197605D01*
X141386510Y-145051095D01*
X140745810Y-145051095D01*
X140945479Y-144851775D01*
X140968395Y-144796587D01*
X141206905Y-144871490D01*
X142060395Y-144018000D01*
X142419605Y-144018000D01*
X143273095Y-144871490D01*
X143522842Y-144793058D01*
X143721793Y-144243139D01*
X143695156Y-143658943D01*
X143522842Y-143242942D01*
X143273095Y-143164510D01*
X142419605Y-144018000D01*
X142060395Y-144018000D01*
X141206905Y-143164510D01*
X140968786Y-143239290D01*
X140946932Y-143186400D01*
X140745789Y-142984905D01*
X141386510Y-142984905D01*
X142240000Y-143838395D01*
X143093490Y-142984905D01*
X143015058Y-142735158D01*
X142465139Y-142536207D01*
X141880943Y-142562844D01*
X141464942Y-142735158D01*
X141386510Y-142984905D01*
X140745789Y-142984905D01*
X140533775Y-142772521D01*
X139993684Y-142548256D01*
X139408882Y-142547745D01*
X138868400Y-142771068D01*
X138454521Y-143184225D01*
X138230256Y-143724316D01*
X138229745Y-144309118D01*
X136077922Y-144309118D01*
X136101793Y-144243139D01*
X136075156Y-143658943D01*
X135902842Y-143242942D01*
X135653095Y-143164510D01*
X134799605Y-144018000D01*
X134440395Y-144018000D01*
X133586905Y-143164510D01*
X133348786Y-143239290D01*
X133326932Y-143186400D01*
X133125789Y-142984905D01*
X133766510Y-142984905D01*
X134620000Y-143838395D01*
X135473490Y-142984905D01*
X135395058Y-142735158D01*
X134845139Y-142536207D01*
X134260943Y-142562844D01*
X133844942Y-142735158D01*
X133766510Y-142984905D01*
X133125789Y-142984905D01*
X132913775Y-142772521D01*
X132373684Y-142548256D01*
X131788882Y-142547745D01*
X131248400Y-142771068D01*
X130834521Y-143184225D01*
X130610256Y-143724316D01*
X130609745Y-144309118D01*
X128469746Y-144309118D01*
X128470255Y-143726882D01*
X128246932Y-143186400D01*
X127833775Y-142772521D01*
X127293684Y-142548256D01*
X126708882Y-142547745D01*
X126168400Y-142771068D01*
X125754521Y-143184225D01*
X125730217Y-143242755D01*
X125706932Y-143186400D01*
X125293775Y-142772521D01*
X124753684Y-142548256D01*
X124168882Y-142547745D01*
X123628400Y-142771068D01*
X123214521Y-143184225D01*
X122990256Y-143724316D01*
X122989745Y-144309118D01*
X120837922Y-144309118D01*
X120861793Y-144243139D01*
X120835156Y-143658943D01*
X120662842Y-143242942D01*
X120413095Y-143164510D01*
X119559605Y-144018000D01*
X119200395Y-144018000D01*
X118346905Y-143164510D01*
X118108786Y-143239290D01*
X118086932Y-143186400D01*
X117885789Y-142984905D01*
X118526510Y-142984905D01*
X119380000Y-143838395D01*
X120233490Y-142984905D01*
X120155058Y-142735158D01*
X119605139Y-142536207D01*
X119020943Y-142562844D01*
X118604942Y-142735158D01*
X118526510Y-142984905D01*
X117885789Y-142984905D01*
X117673775Y-142772521D01*
X117133684Y-142548256D01*
X116548882Y-142547745D01*
X116008400Y-142771068D01*
X115594521Y-143184225D01*
X115370256Y-143724316D01*
X115369745Y-144309118D01*
X90450818Y-144309118D01*
X90253050Y-143830485D01*
X89175189Y-142750741D01*
X87766175Y-142165667D01*
X86240518Y-142164336D01*
X84830485Y-142746950D01*
X84201000Y-143375337D01*
X84201000Y-114300000D01*
X92008887Y-114300000D01*
X92118120Y-114849151D01*
X92429189Y-115314698D01*
X92811275Y-115570000D01*
X92429189Y-115825302D01*
X92118120Y-116290849D01*
X92008887Y-116840000D01*
X92118120Y-117389151D01*
X92429189Y-117854698D01*
X92811275Y-118110000D01*
X92429189Y-118365302D01*
X92118120Y-118830849D01*
X92008887Y-119380000D01*
X92118120Y-119929151D01*
X92429189Y-120394698D01*
X92811275Y-120650000D01*
X92429189Y-120905302D01*
X92118120Y-121370849D01*
X92008887Y-121920000D01*
X92118120Y-122469151D01*
X92429189Y-122934698D01*
X92811275Y-123190000D01*
X92429189Y-123445302D01*
X92118120Y-123910849D01*
X92008887Y-124460000D01*
X92118120Y-125009151D01*
X92429189Y-125474698D01*
X92811275Y-125730000D01*
X92429189Y-125985302D01*
X92118120Y-126450849D01*
X92008887Y-127000000D01*
X92118120Y-127549151D01*
X92429189Y-128014698D01*
X92811275Y-128270000D01*
X92429189Y-128525302D01*
X92118120Y-128990849D01*
X92008887Y-129540000D01*
X92118120Y-130089151D01*
X92429189Y-130554698D01*
X92811275Y-130810000D01*
X92429189Y-131065302D01*
X92118120Y-131530849D01*
X92008887Y-132080000D01*
X92118120Y-132629151D01*
X92429189Y-133094698D01*
X92811275Y-133350000D01*
X92429189Y-133605302D01*
X92118120Y-134070849D01*
X92008887Y-134620000D01*
X92118120Y-135169151D01*
X92429189Y-135634698D01*
X92811275Y-135890000D01*
X92429189Y-136145302D01*
X92118120Y-136610849D01*
X92008887Y-137160000D01*
X92118120Y-137709151D01*
X92429189Y-138174698D01*
X92811275Y-138430000D01*
X92429189Y-138685302D01*
X92118120Y-139150849D01*
X92008887Y-139700000D01*
X92118120Y-140249151D01*
X92429189Y-140714698D01*
X92894736Y-141025767D01*
X93443887Y-141135000D01*
X93500113Y-141135000D01*
X93777102Y-141079904D01*
X94839599Y-142142401D01*
X95086161Y-142307148D01*
X95377000Y-142365000D01*
X109855000Y-142365000D01*
X110145839Y-142307148D01*
X110392401Y-142142401D01*
X113344802Y-139190000D01*
X116912537Y-139190000D01*
X116944673Y-139222192D01*
X117288201Y-139364838D01*
X117660167Y-139365162D01*
X118003943Y-139223117D01*
X118267192Y-138960327D01*
X118409838Y-138616799D01*
X118409892Y-138555000D01*
X123825000Y-138555000D01*
X124115839Y-138497148D01*
X124362401Y-138332401D01*
X124997401Y-137697401D01*
X125162148Y-137450839D01*
X125220000Y-137160000D01*
X125220000Y-129540000D01*
X125185254Y-129365322D01*
X125162148Y-129249160D01*
X124997401Y-129002599D01*
X122680000Y-126685198D01*
X122680000Y-124774802D01*
X122694680Y-124760122D01*
X122740167Y-124760162D01*
X123083943Y-124618117D01*
X123347192Y-124355327D01*
X123489838Y-124011799D01*
X123490162Y-123639833D01*
X123348117Y-123296057D01*
X123085327Y-123032808D01*
X122741799Y-122890162D01*
X122369833Y-122889838D01*
X122026057Y-123031883D01*
X121762808Y-123294673D01*
X121620162Y-123638201D01*
X121620121Y-123685077D01*
X121382599Y-123922599D01*
X121217852Y-124169161D01*
X121160000Y-124460000D01*
X121160000Y-127000000D01*
X121217852Y-127290839D01*
X121382599Y-127537401D01*
X123700000Y-129854802D01*
X123700000Y-136845198D01*
X123510198Y-137035000D01*
X113068047Y-137035000D01*
X113304943Y-136937117D01*
X113568192Y-136674327D01*
X113710838Y-136330799D01*
X113711162Y-135958833D01*
X113569117Y-135615057D01*
X113536000Y-135581882D01*
X113536000Y-133150463D01*
X113568192Y-133118327D01*
X113710838Y-132774799D01*
X113711162Y-132402833D01*
X113569117Y-132059057D01*
X113306327Y-131795808D01*
X112962799Y-131653162D01*
X112590833Y-131652838D01*
X112247057Y-131794883D01*
X111983808Y-132057673D01*
X111841162Y-132401201D01*
X111840838Y-132773167D01*
X111982883Y-133116943D01*
X112016000Y-133150118D01*
X112016000Y-135581537D01*
X111983808Y-135613673D01*
X111841162Y-135957201D01*
X111840838Y-136329167D01*
X111982883Y-136672943D01*
X112245673Y-136936192D01*
X112483628Y-137035000D01*
X112395000Y-137035000D01*
X112104161Y-137092852D01*
X111857599Y-137257599D01*
X110175198Y-138940000D01*
X109924995Y-138940000D01*
X109754811Y-138685302D01*
X109372725Y-138430000D01*
X109754811Y-138174698D01*
X110065880Y-137709151D01*
X110175113Y-137160000D01*
X110065880Y-136610849D01*
X109754811Y-136145302D01*
X109372725Y-135890000D01*
X109754811Y-135634698D01*
X110065880Y-135169151D01*
X110175113Y-134620000D01*
X110065880Y-134070849D01*
X109754811Y-133605302D01*
X109372725Y-133350000D01*
X109754811Y-133094698D01*
X110065880Y-132629151D01*
X110175113Y-132080000D01*
X110065880Y-131530849D01*
X109754811Y-131065302D01*
X109372725Y-130810000D01*
X109754811Y-130554698D01*
X110065880Y-130089151D01*
X110175113Y-129540000D01*
X110065880Y-128990849D01*
X109754811Y-128525302D01*
X109372725Y-128270000D01*
X109754811Y-128014698D01*
X110065880Y-127549151D01*
X110175113Y-127000000D01*
X110065880Y-126450849D01*
X109754811Y-125985302D01*
X109372725Y-125730000D01*
X109754811Y-125474698D01*
X110065880Y-125009151D01*
X110175113Y-124460000D01*
X110065880Y-123910849D01*
X109754811Y-123445302D01*
X109372725Y-123190000D01*
X109754811Y-122934698D01*
X109924995Y-122680000D01*
X118579367Y-122680000D01*
X118445162Y-123003201D01*
X118444838Y-123375167D01*
X118586883Y-123718943D01*
X118620000Y-123752118D01*
X118620000Y-127072537D01*
X118587808Y-127104673D01*
X118445162Y-127448201D01*
X118444838Y-127820167D01*
X118586883Y-128163943D01*
X118849673Y-128427192D01*
X119193201Y-128569838D01*
X119565167Y-128570162D01*
X119908943Y-128428117D01*
X120172192Y-128165327D01*
X120314838Y-127821799D01*
X120315162Y-127449833D01*
X120173117Y-127106057D01*
X120140000Y-127072882D01*
X120140000Y-123752463D01*
X120172192Y-123720327D01*
X120314838Y-123376799D01*
X120315162Y-123004833D01*
X120180944Y-122680000D01*
X129860198Y-122680000D01*
X149100000Y-141919802D01*
X149100000Y-142741483D01*
X149028400Y-142771068D01*
X148614521Y-143184225D01*
X148590217Y-143242755D01*
X148566932Y-143186400D01*
X148153775Y-142772521D01*
X147613684Y-142548256D01*
X147028882Y-142547745D01*
X146488400Y-142771068D01*
X146074521Y-143184225D01*
X145850256Y-143724316D01*
X145849745Y-144309118D01*
X146073068Y-144849600D01*
X146486225Y-145263479D01*
X147026316Y-145487744D01*
X147611118Y-145488255D01*
X148151600Y-145264932D01*
X148565479Y-144851775D01*
X148589783Y-144793245D01*
X148613068Y-144849600D01*
X149026225Y-145263479D01*
X149566316Y-145487744D01*
X150151118Y-145488255D01*
X150691600Y-145264932D01*
X151105479Y-144851775D01*
X151329744Y-144311684D01*
X151330255Y-143726882D01*
X151106932Y-143186400D01*
X150693775Y-142772521D01*
X150620000Y-142741887D01*
X150620000Y-141605000D01*
X150562148Y-141314161D01*
X150562148Y-141314160D01*
X150397401Y-141067599D01*
X147883517Y-138553715D01*
X148048692Y-138388827D01*
X148191338Y-138045299D01*
X148191662Y-137673333D01*
X148049617Y-137329557D01*
X147786827Y-137066308D01*
X147443299Y-136923662D01*
X147396423Y-136923621D01*
X141026035Y-130553233D01*
X141617192Y-130553233D01*
X141686657Y-130795417D01*
X142210102Y-130982164D01*
X142765168Y-130954382D01*
X143148943Y-130795417D01*
X143218408Y-130553233D01*
X142417800Y-129752625D01*
X141617192Y-130553233D01*
X141026035Y-130553233D01*
X139838124Y-129365322D01*
X141008656Y-129365322D01*
X141036438Y-129920388D01*
X141195403Y-130304163D01*
X141437587Y-130373628D01*
X142238195Y-129573020D01*
X142597405Y-129573020D01*
X143398013Y-130373628D01*
X143640197Y-130304163D01*
X143826944Y-129780718D01*
X143799162Y-129225652D01*
X143640197Y-128841877D01*
X143398013Y-128772412D01*
X142597405Y-129573020D01*
X142238195Y-129573020D01*
X141437587Y-128772412D01*
X141195403Y-128841877D01*
X141008656Y-129365322D01*
X139838124Y-129365322D01*
X129315401Y-118842599D01*
X129068839Y-118677852D01*
X128778000Y-118620000D01*
X109924995Y-118620000D01*
X109754811Y-118365302D01*
X109372725Y-118110000D01*
X109754811Y-117854698D01*
X110065880Y-117389151D01*
X110175113Y-116840000D01*
X110065880Y-116290849D01*
X109754811Y-115825302D01*
X109372725Y-115570000D01*
X109754811Y-115314698D01*
X110065880Y-114849151D01*
X110175113Y-114300000D01*
X110065880Y-113750849D01*
X109754811Y-113285302D01*
X109372725Y-113030000D01*
X109754811Y-112774698D01*
X109924995Y-112520000D01*
X110490000Y-112520000D01*
X110780839Y-112462148D01*
X111027401Y-112297401D01*
X112074802Y-111250000D01*
X113737537Y-111250000D01*
X113769673Y-111282192D01*
X114113201Y-111424838D01*
X114485167Y-111425162D01*
X114828943Y-111283117D01*
X115092192Y-111020327D01*
X115234838Y-110676799D01*
X115235162Y-110304833D01*
X115093117Y-109961057D01*
X114830327Y-109697808D01*
X114486799Y-109555162D01*
X114114833Y-109554838D01*
X113771057Y-109696883D01*
X113737882Y-109730000D01*
X111760000Y-109730000D01*
X111469160Y-109787852D01*
X111222599Y-109952599D01*
X110175198Y-111000000D01*
X109924995Y-111000000D01*
X109754811Y-110745302D01*
X109372725Y-110490000D01*
X109754811Y-110234698D01*
X110065880Y-109769151D01*
X110175113Y-109220000D01*
X110065880Y-108670849D01*
X109754811Y-108205302D01*
X109350297Y-107935014D01*
X109567134Y-107832389D01*
X109943041Y-107417423D01*
X110103904Y-107029039D01*
X109981915Y-106807000D01*
X108839000Y-106807000D01*
X108839000Y-106827000D01*
X108585000Y-106827000D01*
X108585000Y-106807000D01*
X107442085Y-106807000D01*
X107320096Y-107029039D01*
X107480959Y-107417423D01*
X107856866Y-107832389D01*
X108073703Y-107935014D01*
X107669189Y-108205302D01*
X107358120Y-108670849D01*
X107248887Y-109220000D01*
X107358120Y-109769151D01*
X107669189Y-110234698D01*
X108051275Y-110490000D01*
X107669189Y-110745302D01*
X107358120Y-111210849D01*
X107248887Y-111760000D01*
X107358120Y-112309151D01*
X107669189Y-112774698D01*
X108051275Y-113030000D01*
X107669189Y-113285302D01*
X107358120Y-113750849D01*
X107248887Y-114300000D01*
X107358120Y-114849151D01*
X107669189Y-115314698D01*
X108051275Y-115570000D01*
X107669189Y-115825302D01*
X107358120Y-116290849D01*
X107248887Y-116840000D01*
X107358120Y-117389151D01*
X107669189Y-117854698D01*
X108051275Y-118110000D01*
X107669189Y-118365302D01*
X107358120Y-118830849D01*
X107248887Y-119380000D01*
X107358120Y-119929151D01*
X107669189Y-120394698D01*
X108051275Y-120650000D01*
X107669189Y-120905302D01*
X107358120Y-121370849D01*
X107248887Y-121920000D01*
X107358120Y-122469151D01*
X107669189Y-122934698D01*
X108051275Y-123190000D01*
X107669189Y-123445302D01*
X107358120Y-123910849D01*
X107248887Y-124460000D01*
X107358120Y-125009151D01*
X107669189Y-125474698D01*
X108051275Y-125730000D01*
X107669189Y-125985302D01*
X107358120Y-126450849D01*
X107248887Y-127000000D01*
X107358120Y-127549151D01*
X107669189Y-128014698D01*
X108051275Y-128270000D01*
X107669189Y-128525302D01*
X107358120Y-128990849D01*
X107248887Y-129540000D01*
X107358120Y-130089151D01*
X107669189Y-130554698D01*
X108051275Y-130810000D01*
X107669189Y-131065302D01*
X107358120Y-131530849D01*
X107248887Y-132080000D01*
X107358120Y-132629151D01*
X107669189Y-133094698D01*
X108051275Y-133350000D01*
X107669189Y-133605302D01*
X107358120Y-134070849D01*
X107248887Y-134620000D01*
X107358120Y-135169151D01*
X107669189Y-135634698D01*
X108051275Y-135890000D01*
X107669189Y-136145302D01*
X107358120Y-136610849D01*
X107248887Y-137160000D01*
X107358120Y-137709151D01*
X107669189Y-138174698D01*
X108051275Y-138430000D01*
X107669189Y-138685302D01*
X107358120Y-139150849D01*
X107248887Y-139700000D01*
X107358120Y-140249151D01*
X107669189Y-140714698D01*
X107864199Y-140845000D01*
X95691802Y-140845000D01*
X94870688Y-140023886D01*
X94935113Y-139700000D01*
X94825880Y-139150849D01*
X94514811Y-138685302D01*
X94132725Y-138430000D01*
X94514811Y-138174698D01*
X94825880Y-137709151D01*
X94935113Y-137160000D01*
X94825880Y-136610849D01*
X94514811Y-136145302D01*
X94132725Y-135890000D01*
X94514811Y-135634698D01*
X94825880Y-135169151D01*
X94935113Y-134620000D01*
X94825880Y-134070849D01*
X94514811Y-133605302D01*
X94132725Y-133350000D01*
X94514811Y-133094698D01*
X94825880Y-132629151D01*
X94935113Y-132080000D01*
X94825880Y-131530849D01*
X94514811Y-131065302D01*
X94132725Y-130810000D01*
X94514811Y-130554698D01*
X94825880Y-130089151D01*
X94935113Y-129540000D01*
X94825880Y-128990849D01*
X94514811Y-128525302D01*
X94132725Y-128270000D01*
X94514811Y-128014698D01*
X94825880Y-127549151D01*
X94935113Y-127000000D01*
X94825880Y-126450849D01*
X94514811Y-125985302D01*
X94132725Y-125730000D01*
X94514811Y-125474698D01*
X94825880Y-125009151D01*
X94935113Y-124460000D01*
X94825880Y-123910849D01*
X94514811Y-123445302D01*
X94132725Y-123190000D01*
X94514811Y-122934698D01*
X94825880Y-122469151D01*
X94935113Y-121920000D01*
X94825880Y-121370849D01*
X94514811Y-120905302D01*
X94132725Y-120650000D01*
X94514811Y-120394698D01*
X94825880Y-119929151D01*
X94935113Y-119380000D01*
X94825880Y-118830849D01*
X94514811Y-118365302D01*
X94132725Y-118110000D01*
X94514811Y-117854698D01*
X94825880Y-117389151D01*
X94935113Y-116840000D01*
X94825880Y-116290849D01*
X94514811Y-115825302D01*
X94132725Y-115570000D01*
X94514811Y-115314698D01*
X94825880Y-114849151D01*
X94935113Y-114300000D01*
X94825880Y-113750849D01*
X94514811Y-113285302D01*
X94110297Y-113015014D01*
X94327134Y-112912389D01*
X94703041Y-112497423D01*
X94863904Y-112109039D01*
X94741915Y-111887000D01*
X93599000Y-111887000D01*
X93599000Y-111907000D01*
X93345000Y-111907000D01*
X93345000Y-111887000D01*
X92202085Y-111887000D01*
X92080096Y-112109039D01*
X92240959Y-112497423D01*
X92616866Y-112912389D01*
X92833703Y-113015014D01*
X92429189Y-113285302D01*
X92118120Y-113750849D01*
X92008887Y-114300000D01*
X84201000Y-114300000D01*
X84201000Y-106680000D01*
X92008887Y-106680000D01*
X92118120Y-107229151D01*
X92429189Y-107694698D01*
X92811275Y-107950000D01*
X92429189Y-108205302D01*
X92118120Y-108670849D01*
X92008887Y-109220000D01*
X92118120Y-109769151D01*
X92429189Y-110234698D01*
X92833703Y-110504986D01*
X92616866Y-110607611D01*
X92240959Y-111022577D01*
X92080096Y-111410961D01*
X92202085Y-111633000D01*
X93345000Y-111633000D01*
X93345000Y-111613000D01*
X93599000Y-111613000D01*
X93599000Y-111633000D01*
X94741915Y-111633000D01*
X94863904Y-111410961D01*
X94703041Y-111022577D01*
X94327134Y-110607611D01*
X94110297Y-110504986D01*
X94514811Y-110234698D01*
X94825880Y-109769151D01*
X94935113Y-109220000D01*
X94825880Y-108670849D01*
X94514811Y-108205302D01*
X94132725Y-107950000D01*
X94514811Y-107694698D01*
X94825880Y-107229151D01*
X94935113Y-106680000D01*
X94825880Y-106130849D01*
X94514811Y-105665302D01*
X94370535Y-105568899D01*
X94507317Y-105543162D01*
X94723441Y-105404090D01*
X94868431Y-105191890D01*
X94919440Y-104940000D01*
X94919440Y-104140000D01*
X107248887Y-104140000D01*
X107358120Y-104689151D01*
X107669189Y-105154698D01*
X108073703Y-105424986D01*
X107856866Y-105527611D01*
X107480959Y-105942577D01*
X107320096Y-106330961D01*
X107442085Y-106553000D01*
X108585000Y-106553000D01*
X108585000Y-106533000D01*
X108839000Y-106533000D01*
X108839000Y-106553000D01*
X109981915Y-106553000D01*
X110103904Y-106330961D01*
X109943041Y-105942577D01*
X109567134Y-105527611D01*
X109350297Y-105424986D01*
X109754811Y-105154698D01*
X109935724Y-104883943D01*
X110145839Y-104842148D01*
X110392401Y-104677401D01*
X112074802Y-102995000D01*
X123510198Y-102995000D01*
X124970000Y-104454802D01*
X124970000Y-107672560D01*
X124830000Y-107672560D01*
X124594683Y-107716838D01*
X124378559Y-107855910D01*
X124233569Y-108068110D01*
X124182560Y-108320000D01*
X124182560Y-110120000D01*
X124226838Y-110355317D01*
X124365910Y-110571441D01*
X124578110Y-110716431D01*
X124830000Y-110767440D01*
X126630000Y-110767440D01*
X126865317Y-110723162D01*
X127081441Y-110584090D01*
X127220598Y-110380426D01*
X127254890Y-110414718D01*
X127369447Y-110300161D01*
X127455852Y-110556643D01*
X128028146Y-110766023D01*
X126955555Y-111762000D01*
X119434241Y-111762000D01*
X119275327Y-111602808D01*
X118931799Y-111460162D01*
X118559833Y-111459838D01*
X118216057Y-111601883D01*
X117952808Y-111864673D01*
X117810162Y-112208201D01*
X117809838Y-112580167D01*
X117906274Y-112813560D01*
X117183961Y-112813560D01*
X117116327Y-112745808D01*
X116772799Y-112603162D01*
X116400833Y-112602838D01*
X116057057Y-112744883D01*
X115793808Y-113007673D01*
X115651162Y-113351201D01*
X115650838Y-113723167D01*
X115792883Y-114066943D01*
X116055673Y-114330192D01*
X116399201Y-114472838D01*
X116771167Y-114473162D01*
X117109030Y-114333560D01*
X141220269Y-114333560D01*
X141232790Y-114363863D01*
X141441632Y-114573070D01*
X141234171Y-114780170D01*
X141021043Y-115293440D01*
X141020558Y-115849201D01*
X141232790Y-116362843D01*
X141442902Y-116573323D01*
X141234171Y-116781690D01*
X141021043Y-117294960D01*
X141020558Y-117850721D01*
X141232790Y-118364363D01*
X141441632Y-118573570D01*
X141234171Y-118780670D01*
X141021043Y-119293940D01*
X141020558Y-119849701D01*
X141232790Y-120363343D01*
X141441632Y-120572550D01*
X141234171Y-120779650D01*
X141021043Y-121292920D01*
X141020558Y-121848681D01*
X141232790Y-122362323D01*
X141442902Y-122572803D01*
X141234171Y-122781170D01*
X141021043Y-123294440D01*
X141020558Y-123850201D01*
X141232790Y-124363843D01*
X141441632Y-124573050D01*
X141234171Y-124780150D01*
X141021043Y-125293420D01*
X141020558Y-125849181D01*
X141232790Y-126362823D01*
X141442902Y-126573303D01*
X141234171Y-126781670D01*
X141021043Y-127294940D01*
X141020558Y-127850701D01*
X141232790Y-128364343D01*
X141625430Y-128757669D01*
X141893271Y-128868886D01*
X142417800Y-129393415D01*
X142942364Y-128868851D01*
X143208103Y-128759050D01*
X143601429Y-128366410D01*
X143814557Y-127853140D01*
X143815042Y-127297379D01*
X143602810Y-126783737D01*
X143392698Y-126573257D01*
X143601429Y-126364890D01*
X143814557Y-125851620D01*
X143815042Y-125295859D01*
X143602810Y-124782217D01*
X143393968Y-124573010D01*
X143601429Y-124365910D01*
X143814557Y-123852640D01*
X143815042Y-123296879D01*
X143602810Y-122783237D01*
X143392698Y-122572757D01*
X143601429Y-122364390D01*
X143814557Y-121851120D01*
X143815042Y-121295359D01*
X143602810Y-120781717D01*
X143393968Y-120572510D01*
X143601429Y-120365410D01*
X143814557Y-119852140D01*
X143815042Y-119296379D01*
X143602810Y-118782737D01*
X143393968Y-118573530D01*
X143601429Y-118366430D01*
X143814557Y-117853160D01*
X143815042Y-117297399D01*
X143602810Y-116783757D01*
X143392698Y-116573277D01*
X143601429Y-116364910D01*
X143814557Y-115851640D01*
X143815042Y-115295879D01*
X143602810Y-114782237D01*
X143393968Y-114573030D01*
X143601429Y-114365930D01*
X143814557Y-113852660D01*
X143815042Y-113296899D01*
X143602810Y-112783257D01*
X143392698Y-112572777D01*
X143601429Y-112364410D01*
X143814557Y-111851140D01*
X143814559Y-111848701D01*
X163016958Y-111848701D01*
X163229190Y-112362343D01*
X163439302Y-112572823D01*
X163230571Y-112781190D01*
X163017443Y-113294460D01*
X163016958Y-113850221D01*
X163229190Y-114363863D01*
X163438032Y-114573070D01*
X163230571Y-114780170D01*
X163017443Y-115293440D01*
X163016958Y-115849201D01*
X163229190Y-116362843D01*
X163439302Y-116573323D01*
X163230571Y-116781690D01*
X163017443Y-117294960D01*
X163016958Y-117850721D01*
X163229190Y-118364363D01*
X163438032Y-118573570D01*
X163230571Y-118780670D01*
X163017443Y-119293940D01*
X163016958Y-119849701D01*
X163229190Y-120363343D01*
X163438032Y-120572550D01*
X163230571Y-120779650D01*
X163017443Y-121292920D01*
X163016958Y-121848681D01*
X163229190Y-122362323D01*
X163439302Y-122572803D01*
X163230571Y-122781170D01*
X163017443Y-123294440D01*
X163016958Y-123850201D01*
X163229190Y-124363843D01*
X163438032Y-124573050D01*
X163230571Y-124780150D01*
X163017443Y-125293420D01*
X163016958Y-125849181D01*
X163229190Y-126362823D01*
X163439302Y-126573303D01*
X163230571Y-126781670D01*
X163017443Y-127294940D01*
X163016958Y-127850701D01*
X163229190Y-128364343D01*
X163438032Y-128573550D01*
X163230571Y-128780650D01*
X163017443Y-129293920D01*
X163016958Y-129849681D01*
X163229190Y-130363323D01*
X163621830Y-130756649D01*
X164135100Y-130969777D01*
X164690861Y-130970262D01*
X165204503Y-130758030D01*
X165597829Y-130365390D01*
X165810957Y-129852120D01*
X165811442Y-129296359D01*
X165599210Y-128782717D01*
X165390368Y-128573510D01*
X165597829Y-128366410D01*
X165810957Y-127853140D01*
X165811442Y-127297379D01*
X165599210Y-126783737D01*
X165389098Y-126573257D01*
X165597829Y-126364890D01*
X165810957Y-125851620D01*
X165811442Y-125295859D01*
X165599210Y-124782217D01*
X165390368Y-124573010D01*
X165597829Y-124365910D01*
X165810957Y-123852640D01*
X165811442Y-123296879D01*
X165599210Y-122783237D01*
X165389098Y-122572757D01*
X165597829Y-122364390D01*
X165810957Y-121851120D01*
X165811442Y-121295359D01*
X165599210Y-120781717D01*
X165390368Y-120572510D01*
X165597829Y-120365410D01*
X165810957Y-119852140D01*
X165811442Y-119296379D01*
X165599210Y-118782737D01*
X165390368Y-118573530D01*
X165597829Y-118366430D01*
X165810957Y-117853160D01*
X165811442Y-117297399D01*
X165599210Y-116783757D01*
X165389098Y-116573277D01*
X165597829Y-116364910D01*
X165810957Y-115851640D01*
X165811442Y-115295879D01*
X165599210Y-114782237D01*
X165390368Y-114573030D01*
X165597829Y-114365930D01*
X165810957Y-113852660D01*
X165811442Y-113296899D01*
X165599210Y-112783257D01*
X165389098Y-112572777D01*
X165597829Y-112364410D01*
X165810957Y-111851140D01*
X165811442Y-111295379D01*
X165599210Y-110781737D01*
X165206570Y-110388411D01*
X164693300Y-110175283D01*
X164137539Y-110174798D01*
X163623897Y-110387030D01*
X163230571Y-110779670D01*
X163017443Y-111292940D01*
X163016958Y-111848701D01*
X143814559Y-111848701D01*
X143815042Y-111295379D01*
X143602810Y-110781737D01*
X143210170Y-110388411D01*
X142696900Y-110175283D01*
X142141139Y-110174798D01*
X141627497Y-110387030D01*
X141234171Y-110779670D01*
X141021043Y-111292940D01*
X141020558Y-111848701D01*
X141232790Y-112362343D01*
X141442902Y-112572823D01*
X141234171Y-112781190D01*
X141220730Y-112813560D01*
X128056919Y-112813560D01*
X130344944Y-110688965D01*
X130503330Y-110754733D01*
X131113991Y-110755265D01*
X131678371Y-110522068D01*
X132110551Y-110090643D01*
X132344733Y-109526670D01*
X132345265Y-108916009D01*
X132112068Y-108351629D01*
X131680643Y-107919449D01*
X131116670Y-107685267D01*
X130506009Y-107684735D01*
X129941629Y-107917932D01*
X129509449Y-108349357D01*
X129500797Y-108370194D01*
X129350159Y-108319446D01*
X128449605Y-109220000D01*
X128463748Y-109234143D01*
X128284143Y-109413748D01*
X128270000Y-109399605D01*
X128255858Y-109413748D01*
X128076253Y-109234143D01*
X128090395Y-109220000D01*
X128076253Y-109205858D01*
X128255858Y-109026253D01*
X128270000Y-109040395D01*
X129170554Y-108139841D01*
X129084148Y-107883357D01*
X128510664Y-107673542D01*
X127900540Y-107699161D01*
X127455852Y-107883357D01*
X127369447Y-108139839D01*
X127254890Y-108025282D01*
X127218412Y-108061760D01*
X127094090Y-107868559D01*
X126881890Y-107723569D01*
X126630000Y-107672560D01*
X126490000Y-107672560D01*
X126490000Y-104140000D01*
X126432148Y-103849161D01*
X126267401Y-103602599D01*
X124362401Y-101697599D01*
X124115839Y-101532852D01*
X123825000Y-101475000D01*
X111760000Y-101475000D01*
X111469161Y-101532852D01*
X111222599Y-101697599D01*
X109770867Y-103149331D01*
X109754811Y-103125302D01*
X109289264Y-102814233D01*
X108740113Y-102705000D01*
X108683887Y-102705000D01*
X108134736Y-102814233D01*
X107669189Y-103125302D01*
X107358120Y-103590849D01*
X107248887Y-104140000D01*
X94919440Y-104140000D01*
X94919440Y-103340000D01*
X94875162Y-103104683D01*
X94736090Y-102888559D01*
X94523890Y-102743569D01*
X94272000Y-102692560D01*
X92672000Y-102692560D01*
X92436683Y-102736838D01*
X92220559Y-102875910D01*
X92075569Y-103088110D01*
X92024560Y-103340000D01*
X92024560Y-104940000D01*
X92068838Y-105175317D01*
X92207910Y-105391441D01*
X92420110Y-105536431D01*
X92575089Y-105567815D01*
X92429189Y-105665302D01*
X92118120Y-106130849D01*
X92008887Y-106680000D01*
X84201000Y-106680000D01*
X84201000Y-100624358D01*
X84824811Y-101249259D01*
X86233825Y-101834333D01*
X87759482Y-101835664D01*
X89169515Y-101253050D01*
X90249259Y-100175189D01*
X90834333Y-98766175D01*
X90835517Y-97409000D01*
X122130604Y-97409000D01*
X121954009Y-97673293D01*
X121954009Y-97673293D01*
G37*
X121954009Y-97673293D02*
X121860000Y-98145907D01*
X121860000Y-98704093D01*
X121954009Y-99176707D01*
X122221723Y-99577370D01*
X122622386Y-99845084D01*
X123095000Y-99939093D01*
X123567614Y-99845084D01*
X123944996Y-99592926D01*
X124030910Y-99726441D01*
X124243110Y-99871431D01*
X124495000Y-99922440D01*
X125695000Y-99922440D01*
X125930317Y-99878162D01*
X126146441Y-99739090D01*
X126291431Y-99526890D01*
X126342440Y-99275000D01*
X126342440Y-98747696D01*
X132009744Y-98747696D01*
X132132353Y-99218701D01*
X132425875Y-99606933D01*
X132845624Y-99853286D01*
X132937391Y-99868462D01*
X133128000Y-99743731D01*
X133128000Y-98552000D01*
X132172453Y-98552000D01*
X132009744Y-98747696D01*
X126342440Y-98747696D01*
X126342440Y-97575000D01*
X126311205Y-97409000D01*
X132300422Y-97409000D01*
X132132353Y-97631299D01*
X132009744Y-98102304D01*
X132172453Y-98298000D01*
X133128000Y-98298000D01*
X133128000Y-98278000D01*
X133382000Y-98278000D01*
X133382000Y-98298000D01*
X133402000Y-98298000D01*
X133402000Y-98552000D01*
X133382000Y-98552000D01*
X133382000Y-99743731D01*
X133572609Y-99868462D01*
X133664376Y-99853286D01*
X134084125Y-99606933D01*
X134100269Y-99585580D01*
X134190910Y-99726441D01*
X134403110Y-99871431D01*
X134655000Y-99922440D01*
X135855000Y-99922440D01*
X136090317Y-99878162D01*
X136306441Y-99739090D01*
X136451431Y-99526890D01*
X136502440Y-99275000D01*
X136502440Y-97575000D01*
X136471205Y-97409000D01*
X160165514Y-97409000D01*
X160164336Y-98759482D01*
X160746950Y-100169515D01*
X161824811Y-101249259D01*
X163233825Y-101834333D01*
X164759482Y-101835664D01*
X166169515Y-101253050D01*
X166751000Y-100672579D01*
X166751000Y-143327558D01*
X166175189Y-142750741D01*
X164766175Y-142165667D01*
X163240518Y-142164336D01*
X161830485Y-142746950D01*
X160750741Y-143824811D01*
X160165667Y-145233825D01*
X160164336Y-146759482D01*
X160746950Y-148169515D01*
X161547037Y-148971000D01*
X89452058Y-148971000D01*
X90249259Y-148175189D01*
X90834333Y-146766175D01*
X90835664Y-145240518D01*
X90450818Y-144309118D01*
X115369745Y-144309118D01*
X115593068Y-144849600D01*
X116006225Y-145263479D01*
X116546316Y-145487744D01*
X117131118Y-145488255D01*
X117671600Y-145264932D01*
X117885810Y-145051095D01*
X118526510Y-145051095D01*
X118604942Y-145300842D01*
X119154861Y-145499793D01*
X119739057Y-145473156D01*
X120155058Y-145300842D01*
X120233490Y-145051095D01*
X119380000Y-144197605D01*
X118526510Y-145051095D01*
X117885810Y-145051095D01*
X118085479Y-144851775D01*
X118108395Y-144796587D01*
X118346905Y-144871490D01*
X119200395Y-144018000D01*
X119559605Y-144018000D01*
X120413095Y-144871490D01*
X120662842Y-144793058D01*
X120837922Y-144309118D01*
X122989745Y-144309118D01*
X123213068Y-144849600D01*
X123626225Y-145263479D01*
X124166316Y-145487744D01*
X124751118Y-145488255D01*
X125291600Y-145264932D01*
X125705479Y-144851775D01*
X125729783Y-144793245D01*
X125753068Y-144849600D01*
X126166225Y-145263479D01*
X126706316Y-145487744D01*
X127291118Y-145488255D01*
X127831600Y-145264932D01*
X128245479Y-144851775D01*
X128469744Y-144311684D01*
X128469746Y-144309118D01*
X130609745Y-144309118D01*
X130833068Y-144849600D01*
X131246225Y-145263479D01*
X131786316Y-145487744D01*
X132371118Y-145488255D01*
X132911600Y-145264932D01*
X133125810Y-145051095D01*
X133766510Y-145051095D01*
X133844942Y-145300842D01*
X134394861Y-145499793D01*
X134979057Y-145473156D01*
X135395058Y-145300842D01*
X135473490Y-145051095D01*
X134620000Y-144197605D01*
X133766510Y-145051095D01*
X133125810Y-145051095D01*
X133325479Y-144851775D01*
X133348395Y-144796587D01*
X133586905Y-144871490D01*
X134440395Y-144018000D01*
X134799605Y-144018000D01*
X135653095Y-144871490D01*
X135902842Y-144793058D01*
X136077922Y-144309118D01*
X138229745Y-144309118D01*
X138453068Y-144849600D01*
X138866225Y-145263479D01*
X139406316Y-145487744D01*
X139991118Y-145488255D01*
X140531600Y-145264932D01*
X140745810Y-145051095D01*
X141386510Y-145051095D01*
X141464942Y-145300842D01*
X142014861Y-145499793D01*
X142599057Y-145473156D01*
X143015058Y-145300842D01*
X143093490Y-145051095D01*
X142240000Y-144197605D01*
X141386510Y-145051095D01*
X140745810Y-145051095D01*
X140945479Y-144851775D01*
X140968395Y-144796587D01*
X141206905Y-144871490D01*
X142060395Y-144018000D01*
X142419605Y-144018000D01*
X143273095Y-144871490D01*
X143522842Y-144793058D01*
X143721793Y-144243139D01*
X143695156Y-143658943D01*
X143522842Y-143242942D01*
X143273095Y-143164510D01*
X142419605Y-144018000D01*
X142060395Y-144018000D01*
X141206905Y-143164510D01*
X140968786Y-143239290D01*
X140946932Y-143186400D01*
X140745789Y-142984905D01*
X141386510Y-142984905D01*
X142240000Y-143838395D01*
X143093490Y-142984905D01*
X143015058Y-142735158D01*
X142465139Y-142536207D01*
X141880943Y-142562844D01*
X141464942Y-142735158D01*
X141386510Y-142984905D01*
X140745789Y-142984905D01*
X140533775Y-142772521D01*
X139993684Y-142548256D01*
X139408882Y-142547745D01*
X138868400Y-142771068D01*
X138454521Y-143184225D01*
X138230256Y-143724316D01*
X138229745Y-144309118D01*
X136077922Y-144309118D01*
X136101793Y-144243139D01*
X136075156Y-143658943D01*
X135902842Y-143242942D01*
X135653095Y-143164510D01*
X134799605Y-144018000D01*
X134440395Y-144018000D01*
X133586905Y-143164510D01*
X133348786Y-143239290D01*
X133326932Y-143186400D01*
X133125789Y-142984905D01*
X133766510Y-142984905D01*
X134620000Y-143838395D01*
X135473490Y-142984905D01*
X135395058Y-142735158D01*
X134845139Y-142536207D01*
X134260943Y-142562844D01*
X133844942Y-142735158D01*
X133766510Y-142984905D01*
X133125789Y-142984905D01*
X132913775Y-142772521D01*
X132373684Y-142548256D01*
X131788882Y-142547745D01*
X131248400Y-142771068D01*
X130834521Y-143184225D01*
X130610256Y-143724316D01*
X130609745Y-144309118D01*
X128469746Y-144309118D01*
X128470255Y-143726882D01*
X128246932Y-143186400D01*
X127833775Y-142772521D01*
X127293684Y-142548256D01*
X126708882Y-142547745D01*
X126168400Y-142771068D01*
X125754521Y-143184225D01*
X125730217Y-143242755D01*
X125706932Y-143186400D01*
X125293775Y-142772521D01*
X124753684Y-142548256D01*
X124168882Y-142547745D01*
X123628400Y-142771068D01*
X123214521Y-143184225D01*
X122990256Y-143724316D01*
X122989745Y-144309118D01*
X120837922Y-144309118D01*
X120861793Y-144243139D01*
X120835156Y-143658943D01*
X120662842Y-143242942D01*
X120413095Y-143164510D01*
X119559605Y-144018000D01*
X119200395Y-144018000D01*
X118346905Y-143164510D01*
X118108786Y-143239290D01*
X118086932Y-143186400D01*
X117885789Y-142984905D01*
X118526510Y-142984905D01*
X119380000Y-143838395D01*
X120233490Y-142984905D01*
X120155058Y-142735158D01*
X119605139Y-142536207D01*
X119020943Y-142562844D01*
X118604942Y-142735158D01*
X118526510Y-142984905D01*
X117885789Y-142984905D01*
X117673775Y-142772521D01*
X117133684Y-142548256D01*
X116548882Y-142547745D01*
X116008400Y-142771068D01*
X115594521Y-143184225D01*
X115370256Y-143724316D01*
X115369745Y-144309118D01*
X90450818Y-144309118D01*
X90253050Y-143830485D01*
X89175189Y-142750741D01*
X87766175Y-142165667D01*
X86240518Y-142164336D01*
X84830485Y-142746950D01*
X84201000Y-143375337D01*
X84201000Y-114300000D01*
X92008887Y-114300000D01*
X92118120Y-114849151D01*
X92429189Y-115314698D01*
X92811275Y-115570000D01*
X92429189Y-115825302D01*
X92118120Y-116290849D01*
X92008887Y-116840000D01*
X92118120Y-117389151D01*
X92429189Y-117854698D01*
X92811275Y-118110000D01*
X92429189Y-118365302D01*
X92118120Y-118830849D01*
X92008887Y-119380000D01*
X92118120Y-119929151D01*
X92429189Y-120394698D01*
X92811275Y-120650000D01*
X92429189Y-120905302D01*
X92118120Y-121370849D01*
X92008887Y-121920000D01*
X92118120Y-122469151D01*
X92429189Y-122934698D01*
X92811275Y-123190000D01*
X92429189Y-123445302D01*
X92118120Y-123910849D01*
X92008887Y-124460000D01*
X92118120Y-125009151D01*
X92429189Y-125474698D01*
X92811275Y-125730000D01*
X92429189Y-125985302D01*
X92118120Y-126450849D01*
X92008887Y-127000000D01*
X92118120Y-127549151D01*
X92429189Y-128014698D01*
X92811275Y-128270000D01*
X92429189Y-128525302D01*
X92118120Y-128990849D01*
X92008887Y-129540000D01*
X92118120Y-130089151D01*
X92429189Y-130554698D01*
X92811275Y-130810000D01*
X92429189Y-131065302D01*
X92118120Y-131530849D01*
X92008887Y-132080000D01*
X92118120Y-132629151D01*
X92429189Y-133094698D01*
X92811275Y-133350000D01*
X92429189Y-133605302D01*
X92118120Y-134070849D01*
X92008887Y-134620000D01*
X92118120Y-135169151D01*
X92429189Y-135634698D01*
X92811275Y-135890000D01*
X92429189Y-136145302D01*
X92118120Y-136610849D01*
X92008887Y-137160000D01*
X92118120Y-137709151D01*
X92429189Y-138174698D01*
X92811275Y-138430000D01*
X92429189Y-138685302D01*
X92118120Y-139150849D01*
X92008887Y-139700000D01*
X92118120Y-140249151D01*
X92429189Y-140714698D01*
X92894736Y-141025767D01*
X93443887Y-141135000D01*
X93500113Y-141135000D01*
X93777102Y-141079904D01*
X94839599Y-142142401D01*
X95086161Y-142307148D01*
X95377000Y-142365000D01*
X109855000Y-142365000D01*
X110145839Y-142307148D01*
X110392401Y-142142401D01*
X113344802Y-139190000D01*
X116912537Y-139190000D01*
X116944673Y-139222192D01*
X117288201Y-139364838D01*
X117660167Y-139365162D01*
X118003943Y-139223117D01*
X118267192Y-138960327D01*
X118409838Y-138616799D01*
X118409892Y-138555000D01*
X123825000Y-138555000D01*
X124115839Y-138497148D01*
X124362401Y-138332401D01*
X124997401Y-137697401D01*
X125162148Y-137450839D01*
X125220000Y-137160000D01*
X125220000Y-129540000D01*
X125185254Y-129365322D01*
X125162148Y-129249160D01*
X124997401Y-129002599D01*
X122680000Y-126685198D01*
X122680000Y-124774802D01*
X122694680Y-124760122D01*
X122740167Y-124760162D01*
X123083943Y-124618117D01*
X123347192Y-124355327D01*
X123489838Y-124011799D01*
X123490162Y-123639833D01*
X123348117Y-123296057D01*
X123085327Y-123032808D01*
X122741799Y-122890162D01*
X122369833Y-122889838D01*
X122026057Y-123031883D01*
X121762808Y-123294673D01*
X121620162Y-123638201D01*
X121620121Y-123685077D01*
X121382599Y-123922599D01*
X121217852Y-124169161D01*
X121160000Y-124460000D01*
X121160000Y-127000000D01*
X121217852Y-127290839D01*
X121382599Y-127537401D01*
X123700000Y-129854802D01*
X123700000Y-136845198D01*
X123510198Y-137035000D01*
X113068047Y-137035000D01*
X113304943Y-136937117D01*
X113568192Y-136674327D01*
X113710838Y-136330799D01*
X113711162Y-135958833D01*
X113569117Y-135615057D01*
X113536000Y-135581882D01*
X113536000Y-133150463D01*
X113568192Y-133118327D01*
X113710838Y-132774799D01*
X113711162Y-132402833D01*
X113569117Y-132059057D01*
X113306327Y-131795808D01*
X112962799Y-131653162D01*
X112590833Y-131652838D01*
X112247057Y-131794883D01*
X111983808Y-132057673D01*
X111841162Y-132401201D01*
X111840838Y-132773167D01*
X111982883Y-133116943D01*
X112016000Y-133150118D01*
X112016000Y-135581537D01*
X111983808Y-135613673D01*
X111841162Y-135957201D01*
X111840838Y-136329167D01*
X111982883Y-136672943D01*
X112245673Y-136936192D01*
X112483628Y-137035000D01*
X112395000Y-137035000D01*
X112104161Y-137092852D01*
X111857599Y-137257599D01*
X110175198Y-138940000D01*
X109924995Y-138940000D01*
X109754811Y-138685302D01*
X109372725Y-138430000D01*
X109754811Y-138174698D01*
X110065880Y-137709151D01*
X110175113Y-137160000D01*
X110065880Y-136610849D01*
X109754811Y-136145302D01*
X109372725Y-135890000D01*
X109754811Y-135634698D01*
X110065880Y-135169151D01*
X110175113Y-134620000D01*
X110065880Y-134070849D01*
X109754811Y-133605302D01*
X109372725Y-133350000D01*
X109754811Y-133094698D01*
X110065880Y-132629151D01*
X110175113Y-132080000D01*
X110065880Y-131530849D01*
X109754811Y-131065302D01*
X109372725Y-130810000D01*
X109754811Y-130554698D01*
X110065880Y-130089151D01*
X110175113Y-129540000D01*
X110065880Y-128990849D01*
X109754811Y-128525302D01*
X109372725Y-128270000D01*
X109754811Y-128014698D01*
X110065880Y-127549151D01*
X110175113Y-127000000D01*
X110065880Y-126450849D01*
X109754811Y-125985302D01*
X109372725Y-125730000D01*
X109754811Y-125474698D01*
X110065880Y-125009151D01*
X110175113Y-124460000D01*
X110065880Y-123910849D01*
X109754811Y-123445302D01*
X109372725Y-123190000D01*
X109754811Y-122934698D01*
X109924995Y-122680000D01*
X118579367Y-122680000D01*
X118445162Y-123003201D01*
X118444838Y-123375167D01*
X118586883Y-123718943D01*
X118620000Y-123752118D01*
X118620000Y-127072537D01*
X118587808Y-127104673D01*
X118445162Y-127448201D01*
X118444838Y-127820167D01*
X118586883Y-128163943D01*
X118849673Y-128427192D01*
X119193201Y-128569838D01*
X119565167Y-128570162D01*
X119908943Y-128428117D01*
X120172192Y-128165327D01*
X120314838Y-127821799D01*
X120315162Y-127449833D01*
X120173117Y-127106057D01*
X120140000Y-127072882D01*
X120140000Y-123752463D01*
X120172192Y-123720327D01*
X120314838Y-123376799D01*
X120315162Y-123004833D01*
X120180944Y-122680000D01*
X129860198Y-122680000D01*
X149100000Y-141919802D01*
X149100000Y-142741483D01*
X149028400Y-142771068D01*
X148614521Y-143184225D01*
X148590217Y-143242755D01*
X148566932Y-143186400D01*
X148153775Y-142772521D01*
X147613684Y-142548256D01*
X147028882Y-142547745D01*
X146488400Y-142771068D01*
X146074521Y-143184225D01*
X145850256Y-143724316D01*
X145849745Y-144309118D01*
X146073068Y-144849600D01*
X146486225Y-145263479D01*
X147026316Y-145487744D01*
X147611118Y-145488255D01*
X148151600Y-145264932D01*
X148565479Y-144851775D01*
X148589783Y-144793245D01*
X148613068Y-144849600D01*
X149026225Y-145263479D01*
X149566316Y-145487744D01*
X150151118Y-145488255D01*
X150691600Y-145264932D01*
X151105479Y-144851775D01*
X151329744Y-144311684D01*
X151330255Y-143726882D01*
X151106932Y-143186400D01*
X150693775Y-142772521D01*
X150620000Y-142741887D01*
X150620000Y-141605000D01*
X150562148Y-141314161D01*
X150562148Y-141314160D01*
X150397401Y-141067599D01*
X147883517Y-138553715D01*
X148048692Y-138388827D01*
X148191338Y-138045299D01*
X148191662Y-137673333D01*
X148049617Y-137329557D01*
X147786827Y-137066308D01*
X147443299Y-136923662D01*
X147396423Y-136923621D01*
X141026035Y-130553233D01*
X141617192Y-130553233D01*
X141686657Y-130795417D01*
X142210102Y-130982164D01*
X142765168Y-130954382D01*
X143148943Y-130795417D01*
X143218408Y-130553233D01*
X142417800Y-129752625D01*
X141617192Y-130553233D01*
X141026035Y-130553233D01*
X139838124Y-129365322D01*
X141008656Y-129365322D01*
X141036438Y-129920388D01*
X141195403Y-130304163D01*
X141437587Y-130373628D01*
X142238195Y-129573020D01*
X142597405Y-129573020D01*
X143398013Y-130373628D01*
X143640197Y-130304163D01*
X143826944Y-129780718D01*
X143799162Y-129225652D01*
X143640197Y-128841877D01*
X143398013Y-128772412D01*
X142597405Y-129573020D01*
X142238195Y-129573020D01*
X141437587Y-128772412D01*
X141195403Y-128841877D01*
X141008656Y-129365322D01*
X139838124Y-129365322D01*
X129315401Y-118842599D01*
X129068839Y-118677852D01*
X128778000Y-118620000D01*
X109924995Y-118620000D01*
X109754811Y-118365302D01*
X109372725Y-118110000D01*
X109754811Y-117854698D01*
X110065880Y-117389151D01*
X110175113Y-116840000D01*
X110065880Y-116290849D01*
X109754811Y-115825302D01*
X109372725Y-115570000D01*
X109754811Y-115314698D01*
X110065880Y-114849151D01*
X110175113Y-114300000D01*
X110065880Y-113750849D01*
X109754811Y-113285302D01*
X109372725Y-113030000D01*
X109754811Y-112774698D01*
X109924995Y-112520000D01*
X110490000Y-112520000D01*
X110780839Y-112462148D01*
X111027401Y-112297401D01*
X112074802Y-111250000D01*
X113737537Y-111250000D01*
X113769673Y-111282192D01*
X114113201Y-111424838D01*
X114485167Y-111425162D01*
X114828943Y-111283117D01*
X115092192Y-111020327D01*
X115234838Y-110676799D01*
X115235162Y-110304833D01*
X115093117Y-109961057D01*
X114830327Y-109697808D01*
X114486799Y-109555162D01*
X114114833Y-109554838D01*
X113771057Y-109696883D01*
X113737882Y-109730000D01*
X111760000Y-109730000D01*
X111469160Y-109787852D01*
X111222599Y-109952599D01*
X110175198Y-111000000D01*
X109924995Y-111000000D01*
X109754811Y-110745302D01*
X109372725Y-110490000D01*
X109754811Y-110234698D01*
X110065880Y-109769151D01*
X110175113Y-109220000D01*
X110065880Y-108670849D01*
X109754811Y-108205302D01*
X109350297Y-107935014D01*
X109567134Y-107832389D01*
X109943041Y-107417423D01*
X110103904Y-107029039D01*
X109981915Y-106807000D01*
X108839000Y-106807000D01*
X108839000Y-106827000D01*
X108585000Y-106827000D01*
X108585000Y-106807000D01*
X107442085Y-106807000D01*
X107320096Y-107029039D01*
X107480959Y-107417423D01*
X107856866Y-107832389D01*
X108073703Y-107935014D01*
X107669189Y-108205302D01*
X107358120Y-108670849D01*
X107248887Y-109220000D01*
X107358120Y-109769151D01*
X107669189Y-110234698D01*
X108051275Y-110490000D01*
X107669189Y-110745302D01*
X107358120Y-111210849D01*
X107248887Y-111760000D01*
X107358120Y-112309151D01*
X107669189Y-112774698D01*
X108051275Y-113030000D01*
X107669189Y-113285302D01*
X107358120Y-113750849D01*
X107248887Y-114300000D01*
X107358120Y-114849151D01*
X107669189Y-115314698D01*
X108051275Y-115570000D01*
X107669189Y-115825302D01*
X107358120Y-116290849D01*
X107248887Y-116840000D01*
X107358120Y-117389151D01*
X107669189Y-117854698D01*
X108051275Y-118110000D01*
X107669189Y-118365302D01*
X107358120Y-118830849D01*
X107248887Y-119380000D01*
X107358120Y-119929151D01*
X107669189Y-120394698D01*
X108051275Y-120650000D01*
X107669189Y-120905302D01*
X107358120Y-121370849D01*
X107248887Y-121920000D01*
X107358120Y-122469151D01*
X107669189Y-122934698D01*
X108051275Y-123190000D01*
X107669189Y-123445302D01*
X107358120Y-123910849D01*
X107248887Y-124460000D01*
X107358120Y-125009151D01*
X107669189Y-125474698D01*
X108051275Y-125730000D01*
X107669189Y-125985302D01*
X107358120Y-126450849D01*
X107248887Y-127000000D01*
X107358120Y-127549151D01*
X107669189Y-128014698D01*
X108051275Y-128270000D01*
X107669189Y-128525302D01*
X107358120Y-128990849D01*
X107248887Y-129540000D01*
X107358120Y-130089151D01*
X107669189Y-130554698D01*
X108051275Y-130810000D01*
X107669189Y-131065302D01*
X107358120Y-131530849D01*
X107248887Y-132080000D01*
X107358120Y-132629151D01*
X107669189Y-133094698D01*
X108051275Y-133350000D01*
X107669189Y-133605302D01*
X107358120Y-134070849D01*
X107248887Y-134620000D01*
X107358120Y-135169151D01*
X107669189Y-135634698D01*
X108051275Y-135890000D01*
X107669189Y-136145302D01*
X107358120Y-136610849D01*
X107248887Y-137160000D01*
X107358120Y-137709151D01*
X107669189Y-138174698D01*
X108051275Y-138430000D01*
X107669189Y-138685302D01*
X107358120Y-139150849D01*
X107248887Y-139700000D01*
X107358120Y-140249151D01*
X107669189Y-140714698D01*
X107864199Y-140845000D01*
X95691802Y-140845000D01*
X94870688Y-140023886D01*
X94935113Y-139700000D01*
X94825880Y-139150849D01*
X94514811Y-138685302D01*
X94132725Y-138430000D01*
X94514811Y-138174698D01*
X94825880Y-137709151D01*
X94935113Y-137160000D01*
X94825880Y-136610849D01*
X94514811Y-136145302D01*
X94132725Y-135890000D01*
X94514811Y-135634698D01*
X94825880Y-135169151D01*
X94935113Y-134620000D01*
X94825880Y-134070849D01*
X94514811Y-133605302D01*
X94132725Y-133350000D01*
X94514811Y-133094698D01*
X94825880Y-132629151D01*
X94935113Y-132080000D01*
X94825880Y-131530849D01*
X94514811Y-131065302D01*
X94132725Y-130810000D01*
X94514811Y-130554698D01*
X94825880Y-130089151D01*
X94935113Y-129540000D01*
X94825880Y-128990849D01*
X94514811Y-128525302D01*
X94132725Y-128270000D01*
X94514811Y-128014698D01*
X94825880Y-127549151D01*
X94935113Y-127000000D01*
X94825880Y-126450849D01*
X94514811Y-125985302D01*
X94132725Y-125730000D01*
X94514811Y-125474698D01*
X94825880Y-125009151D01*
X94935113Y-124460000D01*
X94825880Y-123910849D01*
X94514811Y-123445302D01*
X94132725Y-123190000D01*
X94514811Y-122934698D01*
X94825880Y-122469151D01*
X94935113Y-121920000D01*
X94825880Y-121370849D01*
X94514811Y-120905302D01*
X94132725Y-120650000D01*
X94514811Y-120394698D01*
X94825880Y-119929151D01*
X94935113Y-119380000D01*
X94825880Y-118830849D01*
X94514811Y-118365302D01*
X94132725Y-118110000D01*
X94514811Y-117854698D01*
X94825880Y-117389151D01*
X94935113Y-116840000D01*
X94825880Y-116290849D01*
X94514811Y-115825302D01*
X94132725Y-115570000D01*
X94514811Y-115314698D01*
X94825880Y-114849151D01*
X94935113Y-114300000D01*
X94825880Y-113750849D01*
X94514811Y-113285302D01*
X94110297Y-113015014D01*
X94327134Y-112912389D01*
X94703041Y-112497423D01*
X94863904Y-112109039D01*
X94741915Y-111887000D01*
X93599000Y-111887000D01*
X93599000Y-111907000D01*
X93345000Y-111907000D01*
X93345000Y-111887000D01*
X92202085Y-111887000D01*
X92080096Y-112109039D01*
X92240959Y-112497423D01*
X92616866Y-112912389D01*
X92833703Y-113015014D01*
X92429189Y-113285302D01*
X92118120Y-113750849D01*
X92008887Y-114300000D01*
X84201000Y-114300000D01*
X84201000Y-106680000D01*
X92008887Y-106680000D01*
X92118120Y-107229151D01*
X92429189Y-107694698D01*
X92811275Y-107950000D01*
X92429189Y-108205302D01*
X92118120Y-108670849D01*
X92008887Y-109220000D01*
X92118120Y-109769151D01*
X92429189Y-110234698D01*
X92833703Y-110504986D01*
X92616866Y-110607611D01*
X92240959Y-111022577D01*
X92080096Y-111410961D01*
X92202085Y-111633000D01*
X93345000Y-111633000D01*
X93345000Y-111613000D01*
X93599000Y-111613000D01*
X93599000Y-111633000D01*
X94741915Y-111633000D01*
X94863904Y-111410961D01*
X94703041Y-111022577D01*
X94327134Y-110607611D01*
X94110297Y-110504986D01*
X94514811Y-110234698D01*
X94825880Y-109769151D01*
X94935113Y-109220000D01*
X94825880Y-108670849D01*
X94514811Y-108205302D01*
X94132725Y-107950000D01*
X94514811Y-107694698D01*
X94825880Y-107229151D01*
X94935113Y-106680000D01*
X94825880Y-106130849D01*
X94514811Y-105665302D01*
X94370535Y-105568899D01*
X94507317Y-105543162D01*
X94723441Y-105404090D01*
X94868431Y-105191890D01*
X94919440Y-104940000D01*
X94919440Y-104140000D01*
X107248887Y-104140000D01*
X107358120Y-104689151D01*
X107669189Y-105154698D01*
X108073703Y-105424986D01*
X107856866Y-105527611D01*
X107480959Y-105942577D01*
X107320096Y-106330961D01*
X107442085Y-106553000D01*
X108585000Y-106553000D01*
X108585000Y-106533000D01*
X108839000Y-106533000D01*
X108839000Y-106553000D01*
X109981915Y-106553000D01*
X110103904Y-106330961D01*
X109943041Y-105942577D01*
X109567134Y-105527611D01*
X109350297Y-105424986D01*
X109754811Y-105154698D01*
X109935724Y-104883943D01*
X110145839Y-104842148D01*
X110392401Y-104677401D01*
X112074802Y-102995000D01*
X123510198Y-102995000D01*
X124970000Y-104454802D01*
X124970000Y-107672560D01*
X124830000Y-107672560D01*
X124594683Y-107716838D01*
X124378559Y-107855910D01*
X124233569Y-108068110D01*
X124182560Y-108320000D01*
X124182560Y-110120000D01*
X124226838Y-110355317D01*
X124365910Y-110571441D01*
X124578110Y-110716431D01*
X124830000Y-110767440D01*
X126630000Y-110767440D01*
X126865317Y-110723162D01*
X127081441Y-110584090D01*
X127220598Y-110380426D01*
X127254890Y-110414718D01*
X127369447Y-110300161D01*
X127455852Y-110556643D01*
X128028146Y-110766023D01*
X126955555Y-111762000D01*
X119434241Y-111762000D01*
X119275327Y-111602808D01*
X118931799Y-111460162D01*
X118559833Y-111459838D01*
X118216057Y-111601883D01*
X117952808Y-111864673D01*
X117810162Y-112208201D01*
X117809838Y-112580167D01*
X117906274Y-112813560D01*
X117183961Y-112813560D01*
X117116327Y-112745808D01*
X116772799Y-112603162D01*
X116400833Y-112602838D01*
X116057057Y-112744883D01*
X115793808Y-113007673D01*
X115651162Y-113351201D01*
X115650838Y-113723167D01*
X115792883Y-114066943D01*
X116055673Y-114330192D01*
X116399201Y-114472838D01*
X116771167Y-114473162D01*
X117109030Y-114333560D01*
X141220269Y-114333560D01*
X141232790Y-114363863D01*
X141441632Y-114573070D01*
X141234171Y-114780170D01*
X141021043Y-115293440D01*
X141020558Y-115849201D01*
X141232790Y-116362843D01*
X141442902Y-116573323D01*
X141234171Y-116781690D01*
X141021043Y-117294960D01*
X141020558Y-117850721D01*
X141232790Y-118364363D01*
X141441632Y-118573570D01*
X141234171Y-118780670D01*
X141021043Y-119293940D01*
X141020558Y-119849701D01*
X141232790Y-120363343D01*
X141441632Y-120572550D01*
X141234171Y-120779650D01*
X141021043Y-121292920D01*
X141020558Y-121848681D01*
X141232790Y-122362323D01*
X141442902Y-122572803D01*
X141234171Y-122781170D01*
X141021043Y-123294440D01*
X141020558Y-123850201D01*
X141232790Y-124363843D01*
X141441632Y-124573050D01*
X141234171Y-124780150D01*
X141021043Y-125293420D01*
X141020558Y-125849181D01*
X141232790Y-126362823D01*
X141442902Y-126573303D01*
X141234171Y-126781670D01*
X141021043Y-127294940D01*
X141020558Y-127850701D01*
X141232790Y-128364343D01*
X141625430Y-128757669D01*
X141893271Y-128868886D01*
X142417800Y-129393415D01*
X142942364Y-128868851D01*
X143208103Y-128759050D01*
X143601429Y-128366410D01*
X143814557Y-127853140D01*
X143815042Y-127297379D01*
X143602810Y-126783737D01*
X143392698Y-126573257D01*
X143601429Y-126364890D01*
X143814557Y-125851620D01*
X143815042Y-125295859D01*
X143602810Y-124782217D01*
X143393968Y-124573010D01*
X143601429Y-124365910D01*
X143814557Y-123852640D01*
X143815042Y-123296879D01*
X143602810Y-122783237D01*
X143392698Y-122572757D01*
X143601429Y-122364390D01*
X143814557Y-121851120D01*
X143815042Y-121295359D01*
X143602810Y-120781717D01*
X143393968Y-120572510D01*
X143601429Y-120365410D01*
X143814557Y-119852140D01*
X143815042Y-119296379D01*
X143602810Y-118782737D01*
X143393968Y-118573530D01*
X143601429Y-118366430D01*
X143814557Y-117853160D01*
X143815042Y-117297399D01*
X143602810Y-116783757D01*
X143392698Y-116573277D01*
X143601429Y-116364910D01*
X143814557Y-115851640D01*
X143815042Y-115295879D01*
X143602810Y-114782237D01*
X143393968Y-114573030D01*
X143601429Y-114365930D01*
X143814557Y-113852660D01*
X143815042Y-113296899D01*
X143602810Y-112783257D01*
X143392698Y-112572777D01*
X143601429Y-112364410D01*
X143814557Y-111851140D01*
X143814559Y-111848701D01*
X163016958Y-111848701D01*
X163229190Y-112362343D01*
X163439302Y-112572823D01*
X163230571Y-112781190D01*
X163017443Y-113294460D01*
X163016958Y-113850221D01*
X163229190Y-114363863D01*
X163438032Y-114573070D01*
X163230571Y-114780170D01*
X163017443Y-115293440D01*
X163016958Y-115849201D01*
X163229190Y-116362843D01*
X163439302Y-116573323D01*
X163230571Y-116781690D01*
X163017443Y-117294960D01*
X163016958Y-117850721D01*
X163229190Y-118364363D01*
X163438032Y-118573570D01*
X163230571Y-118780670D01*
X163017443Y-119293940D01*
X163016958Y-119849701D01*
X163229190Y-120363343D01*
X163438032Y-120572550D01*
X163230571Y-120779650D01*
X163017443Y-121292920D01*
X163016958Y-121848681D01*
X163229190Y-122362323D01*
X163439302Y-122572803D01*
X163230571Y-122781170D01*
X163017443Y-123294440D01*
X163016958Y-123850201D01*
X163229190Y-124363843D01*
X163438032Y-124573050D01*
X163230571Y-124780150D01*
X163017443Y-125293420D01*
X163016958Y-125849181D01*
X163229190Y-126362823D01*
X163439302Y-126573303D01*
X163230571Y-126781670D01*
X163017443Y-127294940D01*
X163016958Y-127850701D01*
X163229190Y-128364343D01*
X163438032Y-128573550D01*
X163230571Y-128780650D01*
X163017443Y-129293920D01*
X163016958Y-129849681D01*
X163229190Y-130363323D01*
X163621830Y-130756649D01*
X164135100Y-130969777D01*
X164690861Y-130970262D01*
X165204503Y-130758030D01*
X165597829Y-130365390D01*
X165810957Y-129852120D01*
X165811442Y-129296359D01*
X165599210Y-128782717D01*
X165390368Y-128573510D01*
X165597829Y-128366410D01*
X165810957Y-127853140D01*
X165811442Y-127297379D01*
X165599210Y-126783737D01*
X165389098Y-126573257D01*
X165597829Y-126364890D01*
X165810957Y-125851620D01*
X165811442Y-125295859D01*
X165599210Y-124782217D01*
X165390368Y-124573010D01*
X165597829Y-124365910D01*
X165810957Y-123852640D01*
X165811442Y-123296879D01*
X165599210Y-122783237D01*
X165389098Y-122572757D01*
X165597829Y-122364390D01*
X165810957Y-121851120D01*
X165811442Y-121295359D01*
X165599210Y-120781717D01*
X165390368Y-120572510D01*
X165597829Y-120365410D01*
X165810957Y-119852140D01*
X165811442Y-119296379D01*
X165599210Y-118782737D01*
X165390368Y-118573530D01*
X165597829Y-118366430D01*
X165810957Y-117853160D01*
X165811442Y-117297399D01*
X165599210Y-116783757D01*
X165389098Y-116573277D01*
X165597829Y-116364910D01*
X165810957Y-115851640D01*
X165811442Y-115295879D01*
X165599210Y-114782237D01*
X165390368Y-114573030D01*
X165597829Y-114365930D01*
X165810957Y-113852660D01*
X165811442Y-113296899D01*
X165599210Y-112783257D01*
X165389098Y-112572777D01*
X165597829Y-112364410D01*
X165810957Y-111851140D01*
X165811442Y-111295379D01*
X165599210Y-110781737D01*
X165206570Y-110388411D01*
X164693300Y-110175283D01*
X164137539Y-110174798D01*
X163623897Y-110387030D01*
X163230571Y-110779670D01*
X163017443Y-111292940D01*
X163016958Y-111848701D01*
X143814559Y-111848701D01*
X143815042Y-111295379D01*
X143602810Y-110781737D01*
X143210170Y-110388411D01*
X142696900Y-110175283D01*
X142141139Y-110174798D01*
X141627497Y-110387030D01*
X141234171Y-110779670D01*
X141021043Y-111292940D01*
X141020558Y-111848701D01*
X141232790Y-112362343D01*
X141442902Y-112572823D01*
X141234171Y-112781190D01*
X141220730Y-112813560D01*
X128056919Y-112813560D01*
X130344944Y-110688965D01*
X130503330Y-110754733D01*
X131113991Y-110755265D01*
X131678371Y-110522068D01*
X132110551Y-110090643D01*
X132344733Y-109526670D01*
X132345265Y-108916009D01*
X132112068Y-108351629D01*
X131680643Y-107919449D01*
X131116670Y-107685267D01*
X130506009Y-107684735D01*
X129941629Y-107917932D01*
X129509449Y-108349357D01*
X129500797Y-108370194D01*
X129350159Y-108319446D01*
X128449605Y-109220000D01*
X128463748Y-109234143D01*
X128284143Y-109413748D01*
X128270000Y-109399605D01*
X128255858Y-109413748D01*
X128076253Y-109234143D01*
X128090395Y-109220000D01*
X128076253Y-109205858D01*
X128255858Y-109026253D01*
X128270000Y-109040395D01*
X129170554Y-108139841D01*
X129084148Y-107883357D01*
X128510664Y-107673542D01*
X127900540Y-107699161D01*
X127455852Y-107883357D01*
X127369447Y-108139839D01*
X127254890Y-108025282D01*
X127218412Y-108061760D01*
X127094090Y-107868559D01*
X126881890Y-107723569D01*
X126630000Y-107672560D01*
X126490000Y-107672560D01*
X126490000Y-104140000D01*
X126432148Y-103849161D01*
X126267401Y-103602599D01*
X124362401Y-101697599D01*
X124115839Y-101532852D01*
X123825000Y-101475000D01*
X111760000Y-101475000D01*
X111469161Y-101532852D01*
X111222599Y-101697599D01*
X109770867Y-103149331D01*
X109754811Y-103125302D01*
X109289264Y-102814233D01*
X108740113Y-102705000D01*
X108683887Y-102705000D01*
X108134736Y-102814233D01*
X107669189Y-103125302D01*
X107358120Y-103590849D01*
X107248887Y-104140000D01*
X94919440Y-104140000D01*
X94919440Y-103340000D01*
X94875162Y-103104683D01*
X94736090Y-102888559D01*
X94523890Y-102743569D01*
X94272000Y-102692560D01*
X92672000Y-102692560D01*
X92436683Y-102736838D01*
X92220559Y-102875910D01*
X92075569Y-103088110D01*
X92024560Y-103340000D01*
X92024560Y-104940000D01*
X92068838Y-105175317D01*
X92207910Y-105391441D01*
X92420110Y-105536431D01*
X92575089Y-105567815D01*
X92429189Y-105665302D01*
X92118120Y-106130849D01*
X92008887Y-106680000D01*
X84201000Y-106680000D01*
X84201000Y-100624358D01*
X84824811Y-101249259D01*
X86233825Y-101834333D01*
X87759482Y-101835664D01*
X89169515Y-101253050D01*
X90249259Y-100175189D01*
X90834333Y-98766175D01*
X90835517Y-97409000D01*
X122130604Y-97409000D01*
X121954009Y-97673293D01*
M02*
