G04 #@! TF.FileFunction,Soldermask,Top*
%FSLAX46Y46*%
G04 Gerber Fmt 4.6, Leading zero omitted, Abs format (unit mm)*
G04 Created by KiCad (PCBNEW 4.0.7) date 05/09/18 22:27:07*
%MOMM*%
%LPD*%
G01*
G04 APERTURE LIST*
%ADD10C,0.100000*%
%ADD11C,6.500000*%
%ADD12R,1.400000X1.600000*%
%ADD13R,1.700000X1.700000*%
%ADD14O,1.700000X1.700000*%
%ADD15R,1.600000X1.350000*%
%ADD16C,1.900000*%
%ADD17R,1.900000X1.900000*%
%ADD18R,1.600000X1.400000*%
%ADD19C,1.624000*%
%ADD20R,1.350000X1.600000*%
%ADD21R,1.660000X0.750000*%
%ADD22R,1.300000X1.800000*%
%ADD23O,1.300000X1.800000*%
%ADD24C,1.770000*%
%ADD25O,0.900000X1.700000*%
G04 APERTURE END LIST*
D10*
D11*
X87000000Y-98000000D03*
X87000000Y-146000000D03*
X164000000Y-146000000D03*
D12*
X112014000Y-104822000D03*
X112014000Y-107522000D03*
X120396000Y-104568000D03*
X120396000Y-107268000D03*
D13*
X93472000Y-104140000D03*
D14*
X108712000Y-137160000D03*
X93472000Y-106680000D03*
X108712000Y-134620000D03*
X93472000Y-109220000D03*
X108712000Y-132080000D03*
X93472000Y-111760000D03*
X108712000Y-129540000D03*
X93472000Y-114300000D03*
X108712000Y-127000000D03*
X93472000Y-116840000D03*
X108712000Y-124460000D03*
X93472000Y-119380000D03*
X108712000Y-121920000D03*
X93472000Y-121920000D03*
X108712000Y-119380000D03*
X93472000Y-124460000D03*
X108712000Y-116840000D03*
X93472000Y-127000000D03*
X108712000Y-114300000D03*
X93472000Y-129540000D03*
X108712000Y-111760000D03*
X93472000Y-132080000D03*
X108712000Y-109220000D03*
X93472000Y-134620000D03*
X108712000Y-106680000D03*
X93472000Y-137160000D03*
X108712000Y-104140000D03*
X93472000Y-139700000D03*
X108712000Y-139700000D03*
D15*
X123210000Y-114300000D03*
X125710000Y-114300000D03*
X130830000Y-114300000D03*
X133330000Y-114300000D03*
D12*
X117602000Y-104568000D03*
X117602000Y-107268000D03*
X114808000Y-104822000D03*
X114808000Y-107522000D03*
D16*
X130810000Y-109220000D03*
D17*
X125730000Y-109220000D03*
D16*
X128270000Y-109220000D03*
D15*
X130830000Y-120650000D03*
X133330000Y-120650000D03*
X130830000Y-117602000D03*
X133330000Y-117602000D03*
D18*
X126572000Y-123952000D03*
X123872000Y-123952000D03*
X116666000Y-123698000D03*
X113966000Y-123698000D03*
X125810000Y-117856000D03*
X123110000Y-117856000D03*
D12*
X137668000Y-115998000D03*
X137668000Y-118698000D03*
D19*
X142417800Y-111572040D03*
X142417800Y-113573560D03*
X142417800Y-115572540D03*
X142417800Y-117574060D03*
X142417800Y-119573040D03*
X142417800Y-121572020D03*
X142417800Y-123573540D03*
X142417800Y-125572520D03*
X142417800Y-127574040D03*
X142417800Y-129573020D03*
X164414200Y-129573020D03*
X164414200Y-127574040D03*
X164414200Y-125572520D03*
X164414200Y-123573540D03*
X164414200Y-121572020D03*
X164414200Y-119573040D03*
X164414200Y-117574060D03*
X164414200Y-115572540D03*
X164414200Y-113573560D03*
X164414200Y-111572040D03*
D15*
X115082000Y-130556000D03*
X117582000Y-130556000D03*
X115296000Y-117348000D03*
X112796000Y-117348000D03*
D20*
X118872000Y-114828000D03*
X118872000Y-117328000D03*
X122936000Y-136378000D03*
X122936000Y-133878000D03*
D21*
X112696000Y-112588000D03*
X112696000Y-113538000D03*
X112696000Y-114488000D03*
X115396000Y-114488000D03*
X115396000Y-112588000D03*
X115396000Y-113538000D03*
X114982000Y-134432000D03*
X114982000Y-135382000D03*
X114982000Y-136332000D03*
X117682000Y-136332000D03*
X117682000Y-134432000D03*
X117682000Y-135382000D03*
D11*
X164000000Y-98000000D03*
D22*
X125095000Y-98425000D03*
D23*
X123095000Y-98425000D03*
D22*
X135255000Y-98425000D03*
D23*
X133255000Y-98425000D03*
D24*
X149860000Y-144018000D03*
X147320000Y-144018000D03*
X134620000Y-144018000D03*
X132080000Y-144018000D03*
X127000000Y-144018000D03*
X124460000Y-144018000D03*
X142240000Y-144018000D03*
X139700000Y-144018000D03*
X119380000Y-144018000D03*
X116840000Y-144018000D03*
D25*
X128778000Y-134880000D03*
X131318000Y-134880000D03*
X128778000Y-129280000D03*
X131318000Y-129280000D03*
X134366000Y-134880000D03*
X136906000Y-134880000D03*
X134366000Y-129280000D03*
X136906000Y-129280000D03*
M02*
