G04 #@! TF.FileFunction,Copper,L1,Top,Signal*
%FSLAX46Y46*%
G04 Gerber Fmt 4.6, Leading zero omitted, Abs format (unit mm)*
G04 Created by KiCad (PCBNEW 4.0.7) date 05/09/18 21:31:48*
%MOMM*%
%LPD*%
G01*
G04 APERTURE LIST*
%ADD10C,0.100000*%
%ADD11C,6.400000*%
%ADD12R,1.300000X1.500000*%
%ADD13R,1.600000X1.600000*%
%ADD14O,1.600000X1.600000*%
%ADD15R,1.500000X1.250000*%
%ADD16C,1.800000*%
%ADD17R,1.800000X1.800000*%
%ADD18R,1.500000X1.300000*%
%ADD19C,1.524000*%
%ADD20R,1.250000X1.500000*%
%ADD21R,1.560000X0.650000*%
%ADD22R,1.200000X1.700000*%
%ADD23O,1.200000X1.700000*%
%ADD24C,1.670000*%
%ADD25O,0.800000X1.600000*%
%ADD26C,0.600000*%
%ADD27C,0.250000*%
%ADD28C,0.254000*%
G04 APERTURE END LIST*
D10*
D11*
X87000000Y-98000000D03*
X87000000Y-146000000D03*
X164000000Y-146000000D03*
D12*
X112014000Y-104822000D03*
X112014000Y-107522000D03*
X120396000Y-104568000D03*
X120396000Y-107268000D03*
D13*
X93472000Y-104140000D03*
D14*
X108712000Y-137160000D03*
X93472000Y-106680000D03*
X108712000Y-134620000D03*
X93472000Y-109220000D03*
X108712000Y-132080000D03*
X93472000Y-111760000D03*
X108712000Y-129540000D03*
X93472000Y-114300000D03*
X108712000Y-127000000D03*
X93472000Y-116840000D03*
X108712000Y-124460000D03*
X93472000Y-119380000D03*
X108712000Y-121920000D03*
X93472000Y-121920000D03*
X108712000Y-119380000D03*
X93472000Y-124460000D03*
X108712000Y-116840000D03*
X93472000Y-127000000D03*
X108712000Y-114300000D03*
X93472000Y-129540000D03*
X108712000Y-111760000D03*
X93472000Y-132080000D03*
X108712000Y-109220000D03*
X93472000Y-134620000D03*
X108712000Y-106680000D03*
X93472000Y-137160000D03*
X108712000Y-104140000D03*
X93472000Y-139700000D03*
X108712000Y-139700000D03*
D15*
X123210000Y-114300000D03*
X125710000Y-114300000D03*
X130830000Y-114300000D03*
X133330000Y-114300000D03*
D12*
X117602000Y-104568000D03*
X117602000Y-107268000D03*
X114808000Y-104822000D03*
X114808000Y-107522000D03*
D16*
X130810000Y-109220000D03*
D17*
X125730000Y-109220000D03*
D16*
X128270000Y-109220000D03*
D15*
X130830000Y-120650000D03*
X133330000Y-120650000D03*
X130830000Y-117602000D03*
X133330000Y-117602000D03*
D18*
X126572000Y-123952000D03*
X123872000Y-123952000D03*
X116666000Y-123698000D03*
X113966000Y-123698000D03*
X125810000Y-117856000D03*
X123110000Y-117856000D03*
D12*
X137668000Y-115998000D03*
X137668000Y-118698000D03*
D19*
X142417800Y-111572040D03*
X142417800Y-113573560D03*
X142417800Y-115572540D03*
X142417800Y-117574060D03*
X142417800Y-119573040D03*
X142417800Y-121572020D03*
X142417800Y-123573540D03*
X142417800Y-125572520D03*
X142417800Y-127574040D03*
X142417800Y-129573020D03*
X164414200Y-129573020D03*
X164414200Y-127574040D03*
X164414200Y-125572520D03*
X164414200Y-123573540D03*
X164414200Y-121572020D03*
X164414200Y-119573040D03*
X164414200Y-117574060D03*
X164414200Y-115572540D03*
X164414200Y-113573560D03*
X164414200Y-111572040D03*
D15*
X115082000Y-130556000D03*
X117582000Y-130556000D03*
X115296000Y-117348000D03*
X112796000Y-117348000D03*
D20*
X118872000Y-114828000D03*
X118872000Y-117328000D03*
X122936000Y-136378000D03*
X122936000Y-133878000D03*
D21*
X112696000Y-112588000D03*
X112696000Y-113538000D03*
X112696000Y-114488000D03*
X115396000Y-114488000D03*
X115396000Y-112588000D03*
X115396000Y-113538000D03*
X114982000Y-134432000D03*
X114982000Y-135382000D03*
X114982000Y-136332000D03*
X117682000Y-136332000D03*
X117682000Y-134432000D03*
X117682000Y-135382000D03*
D11*
X164000000Y-98000000D03*
D22*
X125095000Y-98425000D03*
D23*
X123095000Y-98425000D03*
D22*
X135255000Y-98425000D03*
D23*
X133255000Y-98425000D03*
D24*
X149860000Y-144018000D03*
X147320000Y-144018000D03*
X134620000Y-144018000D03*
X132080000Y-144018000D03*
X127000000Y-144018000D03*
X124460000Y-144018000D03*
X142240000Y-144018000D03*
X139700000Y-144018000D03*
X119380000Y-144018000D03*
X116840000Y-144018000D03*
D25*
X128778000Y-134880000D03*
X131318000Y-134880000D03*
X128778000Y-129280000D03*
X131318000Y-129280000D03*
X134366000Y-134880000D03*
X136906000Y-134880000D03*
X134366000Y-129280000D03*
X136906000Y-129280000D03*
D26*
X133985000Y-127000000D03*
X128905000Y-127000000D03*
X135382000Y-114554000D03*
X135382000Y-117348000D03*
X135382000Y-120396000D03*
X112395000Y-116205000D03*
X120396000Y-118110000D03*
X122428000Y-130556000D03*
X117348000Y-128016000D03*
X111760000Y-135636000D03*
X127000000Y-115824000D03*
X139700000Y-116205000D03*
X111125000Y-113030000D03*
X116586000Y-113538000D03*
X147256500Y-137858500D03*
X117475000Y-138430000D03*
X122555000Y-123825000D03*
X119380000Y-123190000D03*
X119380000Y-127635000D03*
X118745000Y-112395000D03*
X112776000Y-132588000D03*
X112776000Y-136144000D03*
X114300000Y-110490000D03*
D27*
X120396000Y-110490000D02*
X119380000Y-110490000D01*
X117602000Y-108712000D02*
X117602000Y-107268000D01*
X119380000Y-110490000D02*
X117602000Y-108712000D01*
X120396000Y-107268000D02*
X120396000Y-110490000D01*
X120396000Y-110490000D02*
X120396000Y-115142000D01*
X120396000Y-115142000D02*
X123110000Y-117856000D01*
X134366000Y-129280000D02*
X134366000Y-127381000D01*
X134366000Y-127381000D02*
X133985000Y-127000000D01*
X128778000Y-129280000D02*
X128778000Y-127127000D01*
X128778000Y-127127000D02*
X128905000Y-127000000D01*
X133330000Y-114300000D02*
X135128000Y-114300000D01*
X135128000Y-114300000D02*
X135382000Y-114554000D01*
X133330000Y-117602000D02*
X135128000Y-117602000D01*
X135128000Y-117602000D02*
X135382000Y-117348000D01*
X133330000Y-120650000D02*
X135128000Y-120650000D01*
X135128000Y-120650000D02*
X135382000Y-120396000D01*
X112796000Y-117348000D02*
X112796000Y-116606000D01*
X112796000Y-116606000D02*
X112395000Y-116205000D01*
X118872000Y-117328000D02*
X119614000Y-117328000D01*
X119614000Y-117328000D02*
X120396000Y-118110000D01*
X122936000Y-133878000D02*
X122936000Y-131064000D01*
X122936000Y-131064000D02*
X122428000Y-130556000D01*
X117582000Y-130556000D02*
X117582000Y-128250000D01*
X117582000Y-128250000D02*
X117348000Y-128016000D01*
X114982000Y-135382000D02*
X112014000Y-135382000D01*
X112014000Y-135382000D02*
X111760000Y-135636000D01*
X125710000Y-114300000D02*
X125710000Y-114534000D01*
X125710000Y-114534000D02*
X127000000Y-115824000D01*
X137668000Y-115998000D02*
X139493000Y-115998000D01*
X139493000Y-115998000D02*
X139700000Y-116205000D01*
X137080000Y-116586000D02*
X137668000Y-115998000D01*
X112946000Y-113538000D02*
X111633000Y-113538000D01*
X111633000Y-113538000D02*
X111125000Y-113030000D01*
X115146000Y-113538000D02*
X116586000Y-113538000D01*
X112014000Y-104822000D02*
X112014000Y-103124000D01*
X95250000Y-114300000D02*
X93472000Y-114300000D01*
X95885000Y-113665000D02*
X95250000Y-114300000D01*
X95885000Y-102870000D02*
X95885000Y-113665000D01*
X96520000Y-102235000D02*
X95885000Y-102870000D01*
X111125000Y-102235000D02*
X96520000Y-102235000D01*
X112014000Y-103124000D02*
X111125000Y-102235000D01*
X112014000Y-104822000D02*
X112014000Y-104140000D01*
X93472000Y-116840000D02*
X93472000Y-116840000D01*
X116840000Y-100584000D02*
X120396000Y-104568000D01*
X92964000Y-100584000D02*
X116840000Y-100584000D01*
X90932000Y-102616000D02*
X92964000Y-100584000D01*
X90932000Y-115316000D02*
X90932000Y-102616000D01*
X93472000Y-116840000D02*
X90932000Y-115316000D01*
X125095000Y-98425000D02*
X125095000Y-108585000D01*
X125095000Y-108585000D02*
X125730000Y-109220000D01*
X132080000Y-143510000D02*
X132080000Y-139700000D01*
X132080000Y-139700000D02*
X133096000Y-138684000D01*
X139700000Y-143510000D02*
X139700000Y-140970000D01*
X134112000Y-138684000D02*
X133096000Y-138684000D01*
X139700000Y-139700000D02*
X139700000Y-140970000D01*
X134366000Y-138684000D02*
X134112000Y-138684000D01*
X137414000Y-138684000D02*
X138684000Y-138684000D01*
X138684000Y-138684000D02*
X139700000Y-139700000D01*
X137414000Y-138684000D02*
X134366000Y-138684000D01*
X134366000Y-138684000D02*
X134366000Y-134880000D01*
X134112000Y-135134000D02*
X134366000Y-134880000D01*
X131318000Y-134880000D02*
X131318000Y-136398000D01*
X131318000Y-136398000D02*
X127000000Y-140716000D01*
X127000000Y-143510000D02*
X127000000Y-140716000D01*
X124460000Y-143510000D02*
X124460000Y-140716000D01*
X124460000Y-140716000D02*
X128778000Y-136398000D01*
X128778000Y-136398000D02*
X128778000Y-134880000D01*
X147320000Y-143510000D02*
X147320000Y-137922000D01*
X147320000Y-137922000D02*
X147256500Y-137858500D01*
X93472000Y-104140000D02*
X93472000Y-102108000D01*
X114808000Y-101092000D02*
X117602000Y-104568000D01*
X94488000Y-101092000D02*
X114808000Y-101092000D01*
X93472000Y-102108000D02*
X94488000Y-101092000D01*
X114808000Y-104822000D02*
X114808000Y-102108000D01*
X94615000Y-106680000D02*
X93472000Y-106680000D01*
X95250000Y-106045000D02*
X94615000Y-106680000D01*
X95250000Y-102235000D02*
X95250000Y-106045000D01*
X95885000Y-101600000D02*
X95250000Y-102235000D01*
X114300000Y-101600000D02*
X95885000Y-101600000D01*
X114808000Y-102108000D02*
X114300000Y-101600000D01*
X112946000Y-108454000D02*
X112014000Y-107522000D01*
X112946000Y-110236000D02*
X112946000Y-108454000D01*
X112946000Y-110236000D02*
X112946000Y-110066000D01*
X112946000Y-110066000D02*
X114808000Y-108204000D01*
X114808000Y-108204000D02*
X114808000Y-107522000D01*
X114808000Y-107522000D02*
X115062000Y-107776000D01*
X112946000Y-112588000D02*
X112946000Y-110236000D01*
X113966000Y-123698000D02*
X113966000Y-125396000D01*
X123825000Y-138430000D02*
X117475000Y-138430000D01*
X125095000Y-137160000D02*
X123825000Y-138430000D01*
X125095000Y-128905000D02*
X125095000Y-137160000D01*
X123190000Y-127000000D02*
X125095000Y-128905000D01*
X115570000Y-127000000D02*
X123190000Y-127000000D01*
X113966000Y-125396000D02*
X115570000Y-127000000D01*
X123745000Y-123825000D02*
X122555000Y-123825000D01*
X123745000Y-123825000D02*
X123872000Y-123952000D01*
X128905000Y-115062000D02*
X128905000Y-115677000D01*
X128905000Y-115677000D02*
X130830000Y-117602000D01*
X128905000Y-117348000D02*
X128905000Y-118725000D01*
X128905000Y-118725000D02*
X130830000Y-120650000D01*
X119380000Y-136332000D02*
X119380000Y-127635000D01*
X117348000Y-116840000D02*
X117348000Y-121158000D01*
X117348000Y-121158000D02*
X119380000Y-123190000D01*
X116586000Y-114488000D02*
X116774000Y-114488000D01*
X117348000Y-115062000D02*
X117348000Y-116840000D01*
X116774000Y-114488000D02*
X117348000Y-115062000D01*
X115296000Y-117348000D02*
X115296000Y-114588000D01*
X115296000Y-114588000D02*
X115396000Y-114488000D01*
X119192000Y-136332000D02*
X119380000Y-136332000D01*
X119380000Y-136332000D02*
X120650000Y-136332000D01*
X117682000Y-136332000D02*
X119192000Y-136332000D01*
X120650000Y-136332000D02*
X122890000Y-136332000D01*
X122890000Y-136332000D02*
X122936000Y-136378000D01*
X116652000Y-114488000D02*
X116586000Y-114488000D01*
X116586000Y-114488000D02*
X115146000Y-114488000D01*
X118745000Y-112395000D02*
X116652000Y-114488000D01*
X130810000Y-109220000D02*
X140065760Y-109220000D01*
X140065760Y-109220000D02*
X142417800Y-111572040D01*
X128905000Y-114935000D02*
X128905000Y-115062000D01*
X128905000Y-115062000D02*
X128905000Y-117348000D01*
X128905000Y-117348000D02*
X128905000Y-117475000D01*
X130810000Y-111760000D02*
X128905000Y-113665000D01*
X128905000Y-113665000D02*
X128905000Y-114935000D01*
X130810000Y-109220000D02*
X130810000Y-111760000D01*
X130810000Y-111760000D02*
X130810000Y-114280000D01*
X130810000Y-114280000D02*
X130830000Y-114300000D01*
X116332000Y-138430000D02*
X116332000Y-143002000D01*
X116332000Y-143002000D02*
X116840000Y-143510000D01*
X116332000Y-135636000D02*
X116332000Y-138430000D01*
X116332000Y-138430000D02*
X116332000Y-138684000D01*
X116586000Y-135382000D02*
X116332000Y-135636000D01*
X117682000Y-135382000D02*
X116586000Y-135382000D01*
X117432000Y-135382000D02*
X117856000Y-135382000D01*
X126572000Y-123952000D02*
X134493000Y-123952000D01*
X136906000Y-126365000D02*
X136906000Y-129280000D01*
X134493000Y-123952000D02*
X136906000Y-126365000D01*
X136906000Y-129280000D02*
X136906000Y-128778000D01*
X116666000Y-123698000D02*
X116666000Y-124286000D01*
X116666000Y-124286000D02*
X118110000Y-125730000D01*
X118110000Y-125730000D02*
X130175000Y-125730000D01*
X130175000Y-125730000D02*
X131318000Y-126873000D01*
X131318000Y-126873000D02*
X131318000Y-129280000D01*
X135382000Y-122174000D02*
X135890000Y-122174000D01*
X137668000Y-120396000D02*
X137668000Y-118698000D01*
X135890000Y-122174000D02*
X137668000Y-120396000D01*
X125810000Y-117856000D02*
X125810000Y-120984000D01*
X140208000Y-119634000D02*
X140208000Y-117782340D01*
X137668000Y-122174000D02*
X140208000Y-119634000D01*
X127000000Y-122174000D02*
X135382000Y-122174000D01*
X135382000Y-122174000D02*
X137668000Y-122174000D01*
X125810000Y-120984000D02*
X127000000Y-122174000D01*
X140208000Y-117782340D02*
X142417800Y-115572540D01*
X125810000Y-117856000D02*
X125810000Y-118444000D01*
X109728000Y-144468002D02*
X109728000Y-144272000D01*
X109728000Y-144272000D02*
X110744000Y-143256000D01*
X110744000Y-143256000D02*
X110744000Y-135636000D01*
X110744000Y-135636000D02*
X111948000Y-134432000D01*
X111948000Y-134432000D02*
X114982000Y-134432000D01*
X91440000Y-131572000D02*
X93472000Y-129540000D01*
X91440000Y-140970000D02*
X91440000Y-131572000D01*
X94938002Y-144468002D02*
X91440000Y-140970000D01*
X109728000Y-144468002D02*
X94938002Y-144468002D01*
X115232000Y-134432000D02*
X113218000Y-134432000D01*
X111506000Y-122936000D02*
X111506000Y-131318000D01*
X111506000Y-114488000D02*
X111506000Y-122936000D01*
X111506000Y-131318000D02*
X112776000Y-132588000D01*
X115396000Y-112588000D02*
X116520000Y-112588000D01*
X119380000Y-111760000D02*
X119380000Y-114320000D01*
X119126000Y-111506000D02*
X119380000Y-111760000D01*
X117602000Y-111506000D02*
X119126000Y-111506000D01*
X116520000Y-112588000D02*
X117602000Y-111506000D01*
X119380000Y-114320000D02*
X118872000Y-114828000D01*
X114808000Y-132715000D02*
X114808000Y-130830000D01*
X114808000Y-130830000D02*
X115082000Y-130556000D01*
X112964000Y-136332000D02*
X112776000Y-136144000D01*
X114982000Y-136332000D02*
X112964000Y-136332000D01*
X114300000Y-132715000D02*
X112903000Y-132715000D01*
X114300000Y-132715000D02*
X114808000Y-132715000D01*
X112903000Y-132715000D02*
X112776000Y-132588000D01*
X111440000Y-114488000D02*
X108712000Y-111760000D01*
X111506000Y-114488000D02*
X111440000Y-114488000D01*
X114300000Y-110490000D02*
X115146000Y-111336000D01*
X114808000Y-132715000D02*
X116840000Y-132715000D01*
X116840000Y-132715000D02*
X117432000Y-133307000D01*
X112946000Y-114488000D02*
X111506000Y-114488000D01*
X115146000Y-111336000D02*
X115146000Y-112588000D01*
X117432000Y-133307000D02*
X117432000Y-134432000D01*
D28*
G36*
X121954009Y-97673293D02*
X121860000Y-98145907D01*
X121860000Y-98704093D01*
X121954009Y-99176707D01*
X122221723Y-99577370D01*
X122622386Y-99845084D01*
X123095000Y-99939093D01*
X123567614Y-99845084D01*
X123940590Y-99595870D01*
X123956673Y-99634699D01*
X124135302Y-99813327D01*
X124368691Y-99910000D01*
X124809250Y-99910000D01*
X124968000Y-99751250D01*
X124968000Y-98552000D01*
X125222000Y-98552000D01*
X125222000Y-99751250D01*
X125380750Y-99910000D01*
X125821309Y-99910000D01*
X126054698Y-99813327D01*
X126233327Y-99634699D01*
X126330000Y-99401310D01*
X126330000Y-98710750D01*
X126171250Y-98552000D01*
X125222000Y-98552000D01*
X124968000Y-98552000D01*
X124948000Y-98552000D01*
X124948000Y-98298000D01*
X124968000Y-98298000D01*
X124968000Y-98278000D01*
X125222000Y-98278000D01*
X125222000Y-98298000D01*
X126171250Y-98298000D01*
X126330000Y-98139250D01*
X126330000Y-97448690D01*
X126313560Y-97409000D01*
X132290604Y-97409000D01*
X132114009Y-97673293D01*
X132020000Y-98145907D01*
X132020000Y-98704093D01*
X132114009Y-99176707D01*
X132381723Y-99577370D01*
X132782386Y-99845084D01*
X133255000Y-99939093D01*
X133727614Y-99845084D01*
X134104996Y-99592926D01*
X134190910Y-99726441D01*
X134403110Y-99871431D01*
X134655000Y-99922440D01*
X135855000Y-99922440D01*
X136090317Y-99878162D01*
X136306441Y-99739090D01*
X136451431Y-99526890D01*
X136502440Y-99275000D01*
X136502440Y-97575000D01*
X136471205Y-97409000D01*
X160165514Y-97409000D01*
X160164336Y-98759482D01*
X160746950Y-100169515D01*
X161824811Y-101249259D01*
X163233825Y-101834333D01*
X164759482Y-101835664D01*
X166169515Y-101253050D01*
X166751000Y-100672579D01*
X166751000Y-143327558D01*
X166175189Y-142750741D01*
X164766175Y-142165667D01*
X163240518Y-142164336D01*
X161830485Y-142746950D01*
X160750741Y-143824811D01*
X160165667Y-145233825D01*
X160164336Y-146759482D01*
X160746950Y-148169515D01*
X161547037Y-148971000D01*
X89452058Y-148971000D01*
X90249259Y-148175189D01*
X90834333Y-146766175D01*
X90835664Y-145240518D01*
X90253050Y-143830485D01*
X89175189Y-142750741D01*
X87766175Y-142165667D01*
X86240518Y-142164336D01*
X84830485Y-142746950D01*
X84201000Y-143375337D01*
X84201000Y-102616000D01*
X90172000Y-102616000D01*
X90172000Y-115316000D01*
X90190166Y-115407326D01*
X90194692Y-115500327D01*
X90218828Y-115551420D01*
X90229852Y-115606839D01*
X90281581Y-115684258D01*
X90321355Y-115768452D01*
X90363207Y-115806420D01*
X90394599Y-115853401D01*
X90472016Y-115905129D01*
X90540983Y-115967695D01*
X92010793Y-116849580D01*
X92118120Y-117389151D01*
X92429189Y-117854698D01*
X92811275Y-118110000D01*
X92429189Y-118365302D01*
X92118120Y-118830849D01*
X92008887Y-119380000D01*
X92118120Y-119929151D01*
X92429189Y-120394698D01*
X92811275Y-120650000D01*
X92429189Y-120905302D01*
X92118120Y-121370849D01*
X92008887Y-121920000D01*
X92118120Y-122469151D01*
X92429189Y-122934698D01*
X92811275Y-123190000D01*
X92429189Y-123445302D01*
X92118120Y-123910849D01*
X92008887Y-124460000D01*
X92118120Y-125009151D01*
X92429189Y-125474698D01*
X92811275Y-125730000D01*
X92429189Y-125985302D01*
X92118120Y-126450849D01*
X92008887Y-127000000D01*
X92118120Y-127549151D01*
X92429189Y-128014698D01*
X92811275Y-128270000D01*
X92429189Y-128525302D01*
X92118120Y-128990849D01*
X92008887Y-129540000D01*
X92073312Y-129863886D01*
X90902599Y-131034599D01*
X90737852Y-131281161D01*
X90680000Y-131572000D01*
X90680000Y-140970000D01*
X90737852Y-141260839D01*
X90902599Y-141507401D01*
X94400601Y-145005403D01*
X94647163Y-145170150D01*
X94938002Y-145228002D01*
X109728000Y-145228002D01*
X110018839Y-145170150D01*
X110265401Y-145005403D01*
X110430148Y-144758841D01*
X110458501Y-144616301D01*
X111281401Y-143793401D01*
X111446148Y-143546839D01*
X111504000Y-143256000D01*
X111504000Y-136542103D01*
X111573201Y-136570838D01*
X111940826Y-136571158D01*
X111982883Y-136672943D01*
X112245673Y-136936192D01*
X112589201Y-137078838D01*
X112899188Y-137079108D01*
X112964000Y-137092000D01*
X113727331Y-137092000D01*
X113737910Y-137108441D01*
X113950110Y-137253431D01*
X114202000Y-137304440D01*
X115572000Y-137304440D01*
X115572000Y-143002000D01*
X115605973Y-143172793D01*
X115594521Y-143184225D01*
X115370256Y-143724316D01*
X115369745Y-144309118D01*
X115593068Y-144849600D01*
X116006225Y-145263479D01*
X116546316Y-145487744D01*
X117131118Y-145488255D01*
X117671600Y-145264932D01*
X118085479Y-144851775D01*
X118109783Y-144793245D01*
X118133068Y-144849600D01*
X118546225Y-145263479D01*
X119086316Y-145487744D01*
X119671118Y-145488255D01*
X120211600Y-145264932D01*
X120625479Y-144851775D01*
X120849744Y-144311684D01*
X120849746Y-144309118D01*
X122989745Y-144309118D01*
X123213068Y-144849600D01*
X123626225Y-145263479D01*
X124166316Y-145487744D01*
X124751118Y-145488255D01*
X125291600Y-145264932D01*
X125705479Y-144851775D01*
X125729783Y-144793245D01*
X125753068Y-144849600D01*
X126166225Y-145263479D01*
X126706316Y-145487744D01*
X127291118Y-145488255D01*
X127831600Y-145264932D01*
X128245479Y-144851775D01*
X128469744Y-144311684D01*
X128469746Y-144309118D01*
X130609745Y-144309118D01*
X130833068Y-144849600D01*
X131246225Y-145263479D01*
X131786316Y-145487744D01*
X132371118Y-145488255D01*
X132911600Y-145264932D01*
X133325479Y-144851775D01*
X133349783Y-144793245D01*
X133373068Y-144849600D01*
X133786225Y-145263479D01*
X134326316Y-145487744D01*
X134911118Y-145488255D01*
X135451600Y-145264932D01*
X135865479Y-144851775D01*
X136089744Y-144311684D01*
X136090255Y-143726882D01*
X135866932Y-143186400D01*
X135453775Y-142772521D01*
X134913684Y-142548256D01*
X134328882Y-142547745D01*
X133788400Y-142771068D01*
X133374521Y-143184225D01*
X133350217Y-143242755D01*
X133326932Y-143186400D01*
X132913775Y-142772521D01*
X132840000Y-142741887D01*
X132840000Y-140014802D01*
X133410802Y-139444000D01*
X138369198Y-139444000D01*
X138940000Y-140014802D01*
X138940000Y-142741483D01*
X138868400Y-142771068D01*
X138454521Y-143184225D01*
X138230256Y-143724316D01*
X138229745Y-144309118D01*
X138453068Y-144849600D01*
X138866225Y-145263479D01*
X139406316Y-145487744D01*
X139991118Y-145488255D01*
X140531600Y-145264932D01*
X140945479Y-144851775D01*
X140969783Y-144793245D01*
X140993068Y-144849600D01*
X141406225Y-145263479D01*
X141946316Y-145487744D01*
X142531118Y-145488255D01*
X143071600Y-145264932D01*
X143485479Y-144851775D01*
X143709744Y-144311684D01*
X143709746Y-144309118D01*
X145849745Y-144309118D01*
X146073068Y-144849600D01*
X146486225Y-145263479D01*
X147026316Y-145487744D01*
X147611118Y-145488255D01*
X148151600Y-145264932D01*
X148565479Y-144851775D01*
X148589783Y-144793245D01*
X148613068Y-144849600D01*
X149026225Y-145263479D01*
X149566316Y-145487744D01*
X150151118Y-145488255D01*
X150691600Y-145264932D01*
X151105479Y-144851775D01*
X151329744Y-144311684D01*
X151330255Y-143726882D01*
X151106932Y-143186400D01*
X150693775Y-142772521D01*
X150153684Y-142548256D01*
X149568882Y-142547745D01*
X149028400Y-142771068D01*
X148614521Y-143184225D01*
X148590217Y-143242755D01*
X148566932Y-143186400D01*
X148153775Y-142772521D01*
X148080000Y-142741887D01*
X148080000Y-138313429D01*
X148191338Y-138045299D01*
X148191662Y-137673333D01*
X148049617Y-137329557D01*
X147786827Y-137066308D01*
X147443299Y-136923662D01*
X147071333Y-136923338D01*
X146727557Y-137065383D01*
X146464308Y-137328173D01*
X146321662Y-137671701D01*
X146321338Y-138043667D01*
X146463383Y-138387443D01*
X146560000Y-138484229D01*
X146560000Y-142741483D01*
X146488400Y-142771068D01*
X146074521Y-143184225D01*
X145850256Y-143724316D01*
X145849745Y-144309118D01*
X143709746Y-144309118D01*
X143710255Y-143726882D01*
X143486932Y-143186400D01*
X143073775Y-142772521D01*
X142533684Y-142548256D01*
X141948882Y-142547745D01*
X141408400Y-142771068D01*
X140994521Y-143184225D01*
X140970217Y-143242755D01*
X140946932Y-143186400D01*
X140533775Y-142772521D01*
X140460000Y-142741887D01*
X140460000Y-139700000D01*
X140402148Y-139409161D01*
X140237401Y-139162599D01*
X139221401Y-138146599D01*
X138974839Y-137981852D01*
X138684000Y-137924000D01*
X135126000Y-137924000D01*
X135126000Y-135997848D01*
X135322215Y-135704190D01*
X135401000Y-135308113D01*
X135401000Y-135007000D01*
X135871000Y-135007000D01*
X135871000Y-135407000D01*
X135998385Y-135793410D01*
X136263947Y-136101658D01*
X136619877Y-136274666D01*
X136779000Y-136146998D01*
X136779000Y-135007000D01*
X137033000Y-135007000D01*
X137033000Y-136146998D01*
X137192123Y-136274666D01*
X137548053Y-136101658D01*
X137813615Y-135793410D01*
X137941000Y-135407000D01*
X137941000Y-135007000D01*
X137033000Y-135007000D01*
X136779000Y-135007000D01*
X135871000Y-135007000D01*
X135401000Y-135007000D01*
X135401000Y-134451887D01*
X135381331Y-134353000D01*
X135871000Y-134353000D01*
X135871000Y-134753000D01*
X136779000Y-134753000D01*
X136779000Y-133613002D01*
X137033000Y-133613002D01*
X137033000Y-134753000D01*
X137941000Y-134753000D01*
X137941000Y-134353000D01*
X137813615Y-133966590D01*
X137548053Y-133658342D01*
X137192123Y-133485334D01*
X137033000Y-133613002D01*
X136779000Y-133613002D01*
X136619877Y-133485334D01*
X136263947Y-133658342D01*
X135998385Y-133966590D01*
X135871000Y-134353000D01*
X135381331Y-134353000D01*
X135322215Y-134055810D01*
X135097856Y-133720031D01*
X134762077Y-133495672D01*
X134366000Y-133416887D01*
X133969923Y-133495672D01*
X133634144Y-133720031D01*
X133409785Y-134055810D01*
X133331000Y-134451887D01*
X133331000Y-135308113D01*
X133409785Y-135704190D01*
X133606000Y-135997848D01*
X133606000Y-137924000D01*
X133096000Y-137924000D01*
X132805161Y-137981852D01*
X132558599Y-138146599D01*
X131542599Y-139162599D01*
X131377852Y-139409161D01*
X131320000Y-139700000D01*
X131320000Y-142741483D01*
X131248400Y-142771068D01*
X130834521Y-143184225D01*
X130610256Y-143724316D01*
X130609745Y-144309118D01*
X128469746Y-144309118D01*
X128470255Y-143726882D01*
X128246932Y-143186400D01*
X127833775Y-142772521D01*
X127760000Y-142741887D01*
X127760000Y-141030802D01*
X131855401Y-136935401D01*
X132020148Y-136688839D01*
X132078000Y-136398000D01*
X132078000Y-135997848D01*
X132274215Y-135704190D01*
X132353000Y-135308113D01*
X132353000Y-134451887D01*
X132274215Y-134055810D01*
X132049856Y-133720031D01*
X131714077Y-133495672D01*
X131318000Y-133416887D01*
X130921923Y-133495672D01*
X130586144Y-133720031D01*
X130361785Y-134055810D01*
X130283000Y-134451887D01*
X130283000Y-135308113D01*
X130361785Y-135704190D01*
X130558000Y-135997848D01*
X130558000Y-136083198D01*
X126462599Y-140178599D01*
X126297852Y-140425161D01*
X126240000Y-140716000D01*
X126240000Y-142741483D01*
X126168400Y-142771068D01*
X125754521Y-143184225D01*
X125730217Y-143242755D01*
X125706932Y-143186400D01*
X125293775Y-142772521D01*
X125220000Y-142741887D01*
X125220000Y-141030802D01*
X129315401Y-136935401D01*
X129480148Y-136688839D01*
X129538000Y-136398000D01*
X129538000Y-135997848D01*
X129734215Y-135704190D01*
X129813000Y-135308113D01*
X129813000Y-134451887D01*
X129734215Y-134055810D01*
X129509856Y-133720031D01*
X129174077Y-133495672D01*
X128778000Y-133416887D01*
X128381923Y-133495672D01*
X128046144Y-133720031D01*
X127821785Y-134055810D01*
X127743000Y-134451887D01*
X127743000Y-135308113D01*
X127821785Y-135704190D01*
X128018000Y-135997848D01*
X128018000Y-136083198D01*
X123922599Y-140178599D01*
X123757852Y-140425161D01*
X123700000Y-140716000D01*
X123700000Y-142741483D01*
X123628400Y-142771068D01*
X123214521Y-143184225D01*
X122990256Y-143724316D01*
X122989745Y-144309118D01*
X120849746Y-144309118D01*
X120850255Y-143726882D01*
X120626932Y-143186400D01*
X120213775Y-142772521D01*
X119673684Y-142548256D01*
X119088882Y-142547745D01*
X118548400Y-142771068D01*
X118134521Y-143184225D01*
X118110217Y-143242755D01*
X118086932Y-143186400D01*
X117673775Y-142772521D01*
X117133684Y-142548256D01*
X117092000Y-142548220D01*
X117092000Y-139283368D01*
X117288201Y-139364838D01*
X117660167Y-139365162D01*
X118003943Y-139223117D01*
X118037118Y-139190000D01*
X123825000Y-139190000D01*
X124115839Y-139132148D01*
X124362401Y-138967401D01*
X125632401Y-137697401D01*
X125797148Y-137450840D01*
X125855000Y-137160000D01*
X125855000Y-128905000D01*
X125797148Y-128614161D01*
X125632401Y-128367599D01*
X123754802Y-126490000D01*
X128104367Y-126490000D01*
X127970162Y-126813201D01*
X127969838Y-127185167D01*
X128018000Y-127301728D01*
X128018000Y-128162152D01*
X127821785Y-128455810D01*
X127743000Y-128851887D01*
X127743000Y-129708113D01*
X127821785Y-130104190D01*
X128046144Y-130439969D01*
X128381923Y-130664328D01*
X128778000Y-130743113D01*
X129174077Y-130664328D01*
X129509856Y-130439969D01*
X129734215Y-130104190D01*
X129813000Y-129708113D01*
X129813000Y-128851887D01*
X129734215Y-128455810D01*
X129538000Y-128162152D01*
X129538000Y-127689241D01*
X129697192Y-127530327D01*
X129839838Y-127186799D01*
X129840162Y-126814833D01*
X129705944Y-126490000D01*
X129860198Y-126490000D01*
X130558000Y-127187802D01*
X130558000Y-128162152D01*
X130361785Y-128455810D01*
X130283000Y-128851887D01*
X130283000Y-129708113D01*
X130361785Y-130104190D01*
X130586144Y-130439969D01*
X130921923Y-130664328D01*
X131318000Y-130743113D01*
X131714077Y-130664328D01*
X132049856Y-130439969D01*
X132274215Y-130104190D01*
X132353000Y-129708113D01*
X132353000Y-128851887D01*
X133331000Y-128851887D01*
X133331000Y-129708113D01*
X133409785Y-130104190D01*
X133634144Y-130439969D01*
X133969923Y-130664328D01*
X134366000Y-130743113D01*
X134762077Y-130664328D01*
X135097856Y-130439969D01*
X135322215Y-130104190D01*
X135401000Y-129708113D01*
X135401000Y-128851887D01*
X135871000Y-128851887D01*
X135871000Y-129708113D01*
X135949785Y-130104190D01*
X136174144Y-130439969D01*
X136509923Y-130664328D01*
X136906000Y-130743113D01*
X137302077Y-130664328D01*
X137637856Y-130439969D01*
X137862215Y-130104190D01*
X137941000Y-129708113D01*
X137941000Y-128851887D01*
X137862215Y-128455810D01*
X137637856Y-128120031D01*
X137302077Y-127895672D01*
X136906000Y-127816887D01*
X136509923Y-127895672D01*
X136174144Y-128120031D01*
X135949785Y-128455810D01*
X135871000Y-128851887D01*
X135401000Y-128851887D01*
X135322215Y-128455810D01*
X135097856Y-128120031D01*
X134762077Y-127895672D01*
X134366000Y-127816887D01*
X133969923Y-127895672D01*
X133634144Y-128120031D01*
X133409785Y-128455810D01*
X133331000Y-128851887D01*
X132353000Y-128851887D01*
X132274215Y-128455810D01*
X132078000Y-128162152D01*
X132078000Y-126873000D01*
X132020148Y-126582161D01*
X131855401Y-126335599D01*
X130712401Y-125192599D01*
X130465839Y-125027852D01*
X130175000Y-124970000D01*
X127839096Y-124970000D01*
X127918431Y-124853890D01*
X127969440Y-124602000D01*
X127969440Y-123302000D01*
X127925162Y-123066683D01*
X127839783Y-122934000D01*
X137668000Y-122934000D01*
X137958839Y-122876148D01*
X138205401Y-122711401D01*
X140745401Y-120171401D01*
X140910148Y-119924840D01*
X140940329Y-119773110D01*
X140968000Y-119634000D01*
X140968000Y-118097142D01*
X141077240Y-117987902D01*
X141232790Y-118364363D01*
X141441632Y-118573570D01*
X141234171Y-118780670D01*
X141021043Y-119293940D01*
X141020558Y-119849701D01*
X141232790Y-120363343D01*
X141441632Y-120572550D01*
X141234171Y-120779650D01*
X141021043Y-121292920D01*
X141020558Y-121848681D01*
X141232790Y-122362323D01*
X141442902Y-122572803D01*
X141234171Y-122781170D01*
X141021043Y-123294440D01*
X141020558Y-123850201D01*
X141232790Y-124363843D01*
X141441632Y-124573050D01*
X141234171Y-124780150D01*
X141021043Y-125293420D01*
X141020558Y-125849181D01*
X141232790Y-126362823D01*
X141442902Y-126573303D01*
X141234171Y-126781670D01*
X141021043Y-127294940D01*
X141020558Y-127850701D01*
X141232790Y-128364343D01*
X141441632Y-128573550D01*
X141234171Y-128780650D01*
X141021043Y-129293920D01*
X141020558Y-129849681D01*
X141232790Y-130363323D01*
X141625430Y-130756649D01*
X142138700Y-130969777D01*
X142694461Y-130970262D01*
X143208103Y-130758030D01*
X143601429Y-130365390D01*
X143814557Y-129852120D01*
X143815042Y-129296359D01*
X143602810Y-128782717D01*
X143393968Y-128573510D01*
X143601429Y-128366410D01*
X143814557Y-127853140D01*
X143815042Y-127297379D01*
X143602810Y-126783737D01*
X143392698Y-126573257D01*
X143601429Y-126364890D01*
X143814557Y-125851620D01*
X143815042Y-125295859D01*
X143602810Y-124782217D01*
X143393968Y-124573010D01*
X143601429Y-124365910D01*
X143814557Y-123852640D01*
X143815042Y-123296879D01*
X143602810Y-122783237D01*
X143392698Y-122572757D01*
X143601429Y-122364390D01*
X143814557Y-121851120D01*
X143815042Y-121295359D01*
X143602810Y-120781717D01*
X143393968Y-120572510D01*
X143601429Y-120365410D01*
X143814557Y-119852140D01*
X143815042Y-119296379D01*
X143602810Y-118782737D01*
X143393968Y-118573530D01*
X143601429Y-118366430D01*
X143814557Y-117853160D01*
X143815042Y-117297399D01*
X143602810Y-116783757D01*
X143392698Y-116573277D01*
X143601429Y-116364910D01*
X143814557Y-115851640D01*
X143815042Y-115295879D01*
X143602810Y-114782237D01*
X143393968Y-114573030D01*
X143601429Y-114365930D01*
X143814557Y-113852660D01*
X143815042Y-113296899D01*
X143602810Y-112783257D01*
X143392698Y-112572777D01*
X143601429Y-112364410D01*
X143814557Y-111851140D01*
X143814559Y-111848701D01*
X163016958Y-111848701D01*
X163229190Y-112362343D01*
X163439302Y-112572823D01*
X163230571Y-112781190D01*
X163017443Y-113294460D01*
X163016958Y-113850221D01*
X163229190Y-114363863D01*
X163438032Y-114573070D01*
X163230571Y-114780170D01*
X163017443Y-115293440D01*
X163016958Y-115849201D01*
X163229190Y-116362843D01*
X163439302Y-116573323D01*
X163230571Y-116781690D01*
X163017443Y-117294960D01*
X163016958Y-117850721D01*
X163229190Y-118364363D01*
X163438032Y-118573570D01*
X163230571Y-118780670D01*
X163017443Y-119293940D01*
X163016958Y-119849701D01*
X163229190Y-120363343D01*
X163438032Y-120572550D01*
X163230571Y-120779650D01*
X163017443Y-121292920D01*
X163016958Y-121848681D01*
X163229190Y-122362323D01*
X163439302Y-122572803D01*
X163230571Y-122781170D01*
X163017443Y-123294440D01*
X163016958Y-123850201D01*
X163229190Y-124363843D01*
X163438032Y-124573050D01*
X163230571Y-124780150D01*
X163017443Y-125293420D01*
X163016958Y-125849181D01*
X163229190Y-126362823D01*
X163439302Y-126573303D01*
X163230571Y-126781670D01*
X163017443Y-127294940D01*
X163016958Y-127850701D01*
X163229190Y-128364343D01*
X163438032Y-128573550D01*
X163230571Y-128780650D01*
X163017443Y-129293920D01*
X163016958Y-129849681D01*
X163229190Y-130363323D01*
X163621830Y-130756649D01*
X164135100Y-130969777D01*
X164690861Y-130970262D01*
X165204503Y-130758030D01*
X165597829Y-130365390D01*
X165810957Y-129852120D01*
X165811442Y-129296359D01*
X165599210Y-128782717D01*
X165390368Y-128573510D01*
X165597829Y-128366410D01*
X165810957Y-127853140D01*
X165811442Y-127297379D01*
X165599210Y-126783737D01*
X165389098Y-126573257D01*
X165597829Y-126364890D01*
X165810957Y-125851620D01*
X165811442Y-125295859D01*
X165599210Y-124782217D01*
X165390368Y-124573010D01*
X165597829Y-124365910D01*
X165810957Y-123852640D01*
X165811442Y-123296879D01*
X165599210Y-122783237D01*
X165389098Y-122572757D01*
X165597829Y-122364390D01*
X165810957Y-121851120D01*
X165811442Y-121295359D01*
X165599210Y-120781717D01*
X165390368Y-120572510D01*
X165597829Y-120365410D01*
X165810957Y-119852140D01*
X165811442Y-119296379D01*
X165599210Y-118782737D01*
X165390368Y-118573530D01*
X165597829Y-118366430D01*
X165810957Y-117853160D01*
X165811442Y-117297399D01*
X165599210Y-116783757D01*
X165389098Y-116573277D01*
X165597829Y-116364910D01*
X165810957Y-115851640D01*
X165811442Y-115295879D01*
X165599210Y-114782237D01*
X165390368Y-114573030D01*
X165597829Y-114365930D01*
X165810957Y-113852660D01*
X165811442Y-113296899D01*
X165599210Y-112783257D01*
X165389098Y-112572777D01*
X165597829Y-112364410D01*
X165810957Y-111851140D01*
X165811442Y-111295379D01*
X165599210Y-110781737D01*
X165206570Y-110388411D01*
X164693300Y-110175283D01*
X164137539Y-110174798D01*
X163623897Y-110387030D01*
X163230571Y-110779670D01*
X163017443Y-111292940D01*
X163016958Y-111848701D01*
X143814559Y-111848701D01*
X143815042Y-111295379D01*
X143602810Y-110781737D01*
X143210170Y-110388411D01*
X142696900Y-110175283D01*
X142141139Y-110174798D01*
X142108745Y-110188183D01*
X140603161Y-108682599D01*
X140356599Y-108517852D01*
X140065760Y-108460000D01*
X132156846Y-108460000D01*
X132112068Y-108351629D01*
X131680643Y-107919449D01*
X131116670Y-107685267D01*
X130506009Y-107684735D01*
X129941629Y-107917932D01*
X129539677Y-108319182D01*
X129140643Y-107919449D01*
X128576670Y-107685267D01*
X127966009Y-107684735D01*
X127401629Y-107917932D01*
X127224159Y-108095092D01*
X127168327Y-107960301D01*
X126989698Y-107781673D01*
X126756309Y-107685000D01*
X126015750Y-107685000D01*
X125857000Y-107843750D01*
X125857000Y-109093000D01*
X125877000Y-109093000D01*
X125877000Y-109347000D01*
X125857000Y-109347000D01*
X125857000Y-110596250D01*
X126015750Y-110755000D01*
X126756309Y-110755000D01*
X126989698Y-110658327D01*
X127168327Y-110479699D01*
X127224119Y-110345006D01*
X127399357Y-110520551D01*
X127963330Y-110754733D01*
X128573991Y-110755265D01*
X129138371Y-110522068D01*
X129540323Y-110120818D01*
X129939357Y-110520551D01*
X130050000Y-110566494D01*
X130050000Y-111445198D01*
X128367599Y-113127599D01*
X128202852Y-113374161D01*
X128145000Y-113665000D01*
X128145000Y-118725000D01*
X128202852Y-119015839D01*
X128367599Y-119262401D01*
X129432560Y-120327362D01*
X129432560Y-121275000D01*
X129458715Y-121414000D01*
X127314802Y-121414000D01*
X126570000Y-120669198D01*
X126570000Y-119151558D01*
X126795317Y-119109162D01*
X127011441Y-118970090D01*
X127156431Y-118757890D01*
X127207440Y-118506000D01*
X127207440Y-117206000D01*
X127163162Y-116970683D01*
X127026963Y-116759024D01*
X127185167Y-116759162D01*
X127528943Y-116617117D01*
X127792192Y-116354327D01*
X127934838Y-116010799D01*
X127935162Y-115638833D01*
X127793117Y-115295057D01*
X127530327Y-115031808D01*
X127186799Y-114889162D01*
X127139924Y-114889121D01*
X127107440Y-114856637D01*
X127107440Y-113675000D01*
X127063162Y-113439683D01*
X126924090Y-113223559D01*
X126711890Y-113078569D01*
X126460000Y-113027560D01*
X124960000Y-113027560D01*
X124724683Y-113071838D01*
X124508559Y-113210910D01*
X124462031Y-113279006D01*
X124319698Y-113136673D01*
X124086309Y-113040000D01*
X123495750Y-113040000D01*
X123337000Y-113198750D01*
X123337000Y-114173000D01*
X123357000Y-114173000D01*
X123357000Y-114427000D01*
X123337000Y-114427000D01*
X123337000Y-115401250D01*
X123495750Y-115560000D01*
X124086309Y-115560000D01*
X124319698Y-115463327D01*
X124460936Y-115322090D01*
X124495910Y-115376441D01*
X124708110Y-115521431D01*
X124960000Y-115572440D01*
X125673638Y-115572440D01*
X126064878Y-115963680D01*
X126064838Y-116009167D01*
X126206883Y-116352943D01*
X126412141Y-116558560D01*
X125060000Y-116558560D01*
X124824683Y-116602838D01*
X124608559Y-116741910D01*
X124463569Y-116954110D01*
X124460919Y-116967197D01*
X124324090Y-116754559D01*
X124111890Y-116609569D01*
X123860000Y-116558560D01*
X122887362Y-116558560D01*
X121156000Y-114827198D01*
X121156000Y-114585750D01*
X121825000Y-114585750D01*
X121825000Y-115051310D01*
X121921673Y-115284699D01*
X122100302Y-115463327D01*
X122333691Y-115560000D01*
X122924250Y-115560000D01*
X123083000Y-115401250D01*
X123083000Y-114427000D01*
X121983750Y-114427000D01*
X121825000Y-114585750D01*
X121156000Y-114585750D01*
X121156000Y-113548690D01*
X121825000Y-113548690D01*
X121825000Y-114014250D01*
X121983750Y-114173000D01*
X123083000Y-114173000D01*
X123083000Y-113198750D01*
X122924250Y-113040000D01*
X122333691Y-113040000D01*
X122100302Y-113136673D01*
X121921673Y-113315301D01*
X121825000Y-113548690D01*
X121156000Y-113548690D01*
X121156000Y-109505750D01*
X124195000Y-109505750D01*
X124195000Y-110246310D01*
X124291673Y-110479699D01*
X124470302Y-110658327D01*
X124703691Y-110755000D01*
X125444250Y-110755000D01*
X125603000Y-110596250D01*
X125603000Y-109347000D01*
X124353750Y-109347000D01*
X124195000Y-109505750D01*
X121156000Y-109505750D01*
X121156000Y-108644742D01*
X121281317Y-108621162D01*
X121497441Y-108482090D01*
X121642431Y-108269890D01*
X121657861Y-108193690D01*
X124195000Y-108193690D01*
X124195000Y-108934250D01*
X124353750Y-109093000D01*
X125603000Y-109093000D01*
X125603000Y-107843750D01*
X125444250Y-107685000D01*
X124703691Y-107685000D01*
X124470302Y-107781673D01*
X124291673Y-107960301D01*
X124195000Y-108193690D01*
X121657861Y-108193690D01*
X121693440Y-108018000D01*
X121693440Y-106518000D01*
X121649162Y-106282683D01*
X121510090Y-106066559D01*
X121297890Y-105921569D01*
X121284803Y-105918919D01*
X121497441Y-105782090D01*
X121642431Y-105569890D01*
X121693440Y-105318000D01*
X121693440Y-103818000D01*
X121649162Y-103582683D01*
X121510090Y-103366559D01*
X121297890Y-103221569D01*
X121046000Y-103170560D01*
X120167393Y-103170560D01*
X117406993Y-100077919D01*
X117389542Y-100064769D01*
X117377401Y-100046599D01*
X117271698Y-99975971D01*
X117170165Y-99899463D01*
X117149008Y-99893992D01*
X117130839Y-99881852D01*
X117006150Y-99857050D01*
X116883071Y-99825222D01*
X116861433Y-99828263D01*
X116840000Y-99824000D01*
X92964000Y-99824000D01*
X92673161Y-99881852D01*
X92426599Y-100046599D01*
X90394599Y-102078599D01*
X90229852Y-102325161D01*
X90172000Y-102616000D01*
X84201000Y-102616000D01*
X84201000Y-100624358D01*
X84824811Y-101249259D01*
X86233825Y-101834333D01*
X87759482Y-101835664D01*
X89169515Y-101253050D01*
X90249259Y-100175189D01*
X90834333Y-98766175D01*
X90835517Y-97409000D01*
X122130604Y-97409000D01*
X121954009Y-97673293D01*
X121954009Y-97673293D01*
G37*
X121954009Y-97673293D02*
X121860000Y-98145907D01*
X121860000Y-98704093D01*
X121954009Y-99176707D01*
X122221723Y-99577370D01*
X122622386Y-99845084D01*
X123095000Y-99939093D01*
X123567614Y-99845084D01*
X123940590Y-99595870D01*
X123956673Y-99634699D01*
X124135302Y-99813327D01*
X124368691Y-99910000D01*
X124809250Y-99910000D01*
X124968000Y-99751250D01*
X124968000Y-98552000D01*
X125222000Y-98552000D01*
X125222000Y-99751250D01*
X125380750Y-99910000D01*
X125821309Y-99910000D01*
X126054698Y-99813327D01*
X126233327Y-99634699D01*
X126330000Y-99401310D01*
X126330000Y-98710750D01*
X126171250Y-98552000D01*
X125222000Y-98552000D01*
X124968000Y-98552000D01*
X124948000Y-98552000D01*
X124948000Y-98298000D01*
X124968000Y-98298000D01*
X124968000Y-98278000D01*
X125222000Y-98278000D01*
X125222000Y-98298000D01*
X126171250Y-98298000D01*
X126330000Y-98139250D01*
X126330000Y-97448690D01*
X126313560Y-97409000D01*
X132290604Y-97409000D01*
X132114009Y-97673293D01*
X132020000Y-98145907D01*
X132020000Y-98704093D01*
X132114009Y-99176707D01*
X132381723Y-99577370D01*
X132782386Y-99845084D01*
X133255000Y-99939093D01*
X133727614Y-99845084D01*
X134104996Y-99592926D01*
X134190910Y-99726441D01*
X134403110Y-99871431D01*
X134655000Y-99922440D01*
X135855000Y-99922440D01*
X136090317Y-99878162D01*
X136306441Y-99739090D01*
X136451431Y-99526890D01*
X136502440Y-99275000D01*
X136502440Y-97575000D01*
X136471205Y-97409000D01*
X160165514Y-97409000D01*
X160164336Y-98759482D01*
X160746950Y-100169515D01*
X161824811Y-101249259D01*
X163233825Y-101834333D01*
X164759482Y-101835664D01*
X166169515Y-101253050D01*
X166751000Y-100672579D01*
X166751000Y-143327558D01*
X166175189Y-142750741D01*
X164766175Y-142165667D01*
X163240518Y-142164336D01*
X161830485Y-142746950D01*
X160750741Y-143824811D01*
X160165667Y-145233825D01*
X160164336Y-146759482D01*
X160746950Y-148169515D01*
X161547037Y-148971000D01*
X89452058Y-148971000D01*
X90249259Y-148175189D01*
X90834333Y-146766175D01*
X90835664Y-145240518D01*
X90253050Y-143830485D01*
X89175189Y-142750741D01*
X87766175Y-142165667D01*
X86240518Y-142164336D01*
X84830485Y-142746950D01*
X84201000Y-143375337D01*
X84201000Y-102616000D01*
X90172000Y-102616000D01*
X90172000Y-115316000D01*
X90190166Y-115407326D01*
X90194692Y-115500327D01*
X90218828Y-115551420D01*
X90229852Y-115606839D01*
X90281581Y-115684258D01*
X90321355Y-115768452D01*
X90363207Y-115806420D01*
X90394599Y-115853401D01*
X90472016Y-115905129D01*
X90540983Y-115967695D01*
X92010793Y-116849580D01*
X92118120Y-117389151D01*
X92429189Y-117854698D01*
X92811275Y-118110000D01*
X92429189Y-118365302D01*
X92118120Y-118830849D01*
X92008887Y-119380000D01*
X92118120Y-119929151D01*
X92429189Y-120394698D01*
X92811275Y-120650000D01*
X92429189Y-120905302D01*
X92118120Y-121370849D01*
X92008887Y-121920000D01*
X92118120Y-122469151D01*
X92429189Y-122934698D01*
X92811275Y-123190000D01*
X92429189Y-123445302D01*
X92118120Y-123910849D01*
X92008887Y-124460000D01*
X92118120Y-125009151D01*
X92429189Y-125474698D01*
X92811275Y-125730000D01*
X92429189Y-125985302D01*
X92118120Y-126450849D01*
X92008887Y-127000000D01*
X92118120Y-127549151D01*
X92429189Y-128014698D01*
X92811275Y-128270000D01*
X92429189Y-128525302D01*
X92118120Y-128990849D01*
X92008887Y-129540000D01*
X92073312Y-129863886D01*
X90902599Y-131034599D01*
X90737852Y-131281161D01*
X90680000Y-131572000D01*
X90680000Y-140970000D01*
X90737852Y-141260839D01*
X90902599Y-141507401D01*
X94400601Y-145005403D01*
X94647163Y-145170150D01*
X94938002Y-145228002D01*
X109728000Y-145228002D01*
X110018839Y-145170150D01*
X110265401Y-145005403D01*
X110430148Y-144758841D01*
X110458501Y-144616301D01*
X111281401Y-143793401D01*
X111446148Y-143546839D01*
X111504000Y-143256000D01*
X111504000Y-136542103D01*
X111573201Y-136570838D01*
X111940826Y-136571158D01*
X111982883Y-136672943D01*
X112245673Y-136936192D01*
X112589201Y-137078838D01*
X112899188Y-137079108D01*
X112964000Y-137092000D01*
X113727331Y-137092000D01*
X113737910Y-137108441D01*
X113950110Y-137253431D01*
X114202000Y-137304440D01*
X115572000Y-137304440D01*
X115572000Y-143002000D01*
X115605973Y-143172793D01*
X115594521Y-143184225D01*
X115370256Y-143724316D01*
X115369745Y-144309118D01*
X115593068Y-144849600D01*
X116006225Y-145263479D01*
X116546316Y-145487744D01*
X117131118Y-145488255D01*
X117671600Y-145264932D01*
X118085479Y-144851775D01*
X118109783Y-144793245D01*
X118133068Y-144849600D01*
X118546225Y-145263479D01*
X119086316Y-145487744D01*
X119671118Y-145488255D01*
X120211600Y-145264932D01*
X120625479Y-144851775D01*
X120849744Y-144311684D01*
X120849746Y-144309118D01*
X122989745Y-144309118D01*
X123213068Y-144849600D01*
X123626225Y-145263479D01*
X124166316Y-145487744D01*
X124751118Y-145488255D01*
X125291600Y-145264932D01*
X125705479Y-144851775D01*
X125729783Y-144793245D01*
X125753068Y-144849600D01*
X126166225Y-145263479D01*
X126706316Y-145487744D01*
X127291118Y-145488255D01*
X127831600Y-145264932D01*
X128245479Y-144851775D01*
X128469744Y-144311684D01*
X128469746Y-144309118D01*
X130609745Y-144309118D01*
X130833068Y-144849600D01*
X131246225Y-145263479D01*
X131786316Y-145487744D01*
X132371118Y-145488255D01*
X132911600Y-145264932D01*
X133325479Y-144851775D01*
X133349783Y-144793245D01*
X133373068Y-144849600D01*
X133786225Y-145263479D01*
X134326316Y-145487744D01*
X134911118Y-145488255D01*
X135451600Y-145264932D01*
X135865479Y-144851775D01*
X136089744Y-144311684D01*
X136090255Y-143726882D01*
X135866932Y-143186400D01*
X135453775Y-142772521D01*
X134913684Y-142548256D01*
X134328882Y-142547745D01*
X133788400Y-142771068D01*
X133374521Y-143184225D01*
X133350217Y-143242755D01*
X133326932Y-143186400D01*
X132913775Y-142772521D01*
X132840000Y-142741887D01*
X132840000Y-140014802D01*
X133410802Y-139444000D01*
X138369198Y-139444000D01*
X138940000Y-140014802D01*
X138940000Y-142741483D01*
X138868400Y-142771068D01*
X138454521Y-143184225D01*
X138230256Y-143724316D01*
X138229745Y-144309118D01*
X138453068Y-144849600D01*
X138866225Y-145263479D01*
X139406316Y-145487744D01*
X139991118Y-145488255D01*
X140531600Y-145264932D01*
X140945479Y-144851775D01*
X140969783Y-144793245D01*
X140993068Y-144849600D01*
X141406225Y-145263479D01*
X141946316Y-145487744D01*
X142531118Y-145488255D01*
X143071600Y-145264932D01*
X143485479Y-144851775D01*
X143709744Y-144311684D01*
X143709746Y-144309118D01*
X145849745Y-144309118D01*
X146073068Y-144849600D01*
X146486225Y-145263479D01*
X147026316Y-145487744D01*
X147611118Y-145488255D01*
X148151600Y-145264932D01*
X148565479Y-144851775D01*
X148589783Y-144793245D01*
X148613068Y-144849600D01*
X149026225Y-145263479D01*
X149566316Y-145487744D01*
X150151118Y-145488255D01*
X150691600Y-145264932D01*
X151105479Y-144851775D01*
X151329744Y-144311684D01*
X151330255Y-143726882D01*
X151106932Y-143186400D01*
X150693775Y-142772521D01*
X150153684Y-142548256D01*
X149568882Y-142547745D01*
X149028400Y-142771068D01*
X148614521Y-143184225D01*
X148590217Y-143242755D01*
X148566932Y-143186400D01*
X148153775Y-142772521D01*
X148080000Y-142741887D01*
X148080000Y-138313429D01*
X148191338Y-138045299D01*
X148191662Y-137673333D01*
X148049617Y-137329557D01*
X147786827Y-137066308D01*
X147443299Y-136923662D01*
X147071333Y-136923338D01*
X146727557Y-137065383D01*
X146464308Y-137328173D01*
X146321662Y-137671701D01*
X146321338Y-138043667D01*
X146463383Y-138387443D01*
X146560000Y-138484229D01*
X146560000Y-142741483D01*
X146488400Y-142771068D01*
X146074521Y-143184225D01*
X145850256Y-143724316D01*
X145849745Y-144309118D01*
X143709746Y-144309118D01*
X143710255Y-143726882D01*
X143486932Y-143186400D01*
X143073775Y-142772521D01*
X142533684Y-142548256D01*
X141948882Y-142547745D01*
X141408400Y-142771068D01*
X140994521Y-143184225D01*
X140970217Y-143242755D01*
X140946932Y-143186400D01*
X140533775Y-142772521D01*
X140460000Y-142741887D01*
X140460000Y-139700000D01*
X140402148Y-139409161D01*
X140237401Y-139162599D01*
X139221401Y-138146599D01*
X138974839Y-137981852D01*
X138684000Y-137924000D01*
X135126000Y-137924000D01*
X135126000Y-135997848D01*
X135322215Y-135704190D01*
X135401000Y-135308113D01*
X135401000Y-135007000D01*
X135871000Y-135007000D01*
X135871000Y-135407000D01*
X135998385Y-135793410D01*
X136263947Y-136101658D01*
X136619877Y-136274666D01*
X136779000Y-136146998D01*
X136779000Y-135007000D01*
X137033000Y-135007000D01*
X137033000Y-136146998D01*
X137192123Y-136274666D01*
X137548053Y-136101658D01*
X137813615Y-135793410D01*
X137941000Y-135407000D01*
X137941000Y-135007000D01*
X137033000Y-135007000D01*
X136779000Y-135007000D01*
X135871000Y-135007000D01*
X135401000Y-135007000D01*
X135401000Y-134451887D01*
X135381331Y-134353000D01*
X135871000Y-134353000D01*
X135871000Y-134753000D01*
X136779000Y-134753000D01*
X136779000Y-133613002D01*
X137033000Y-133613002D01*
X137033000Y-134753000D01*
X137941000Y-134753000D01*
X137941000Y-134353000D01*
X137813615Y-133966590D01*
X137548053Y-133658342D01*
X137192123Y-133485334D01*
X137033000Y-133613002D01*
X136779000Y-133613002D01*
X136619877Y-133485334D01*
X136263947Y-133658342D01*
X135998385Y-133966590D01*
X135871000Y-134353000D01*
X135381331Y-134353000D01*
X135322215Y-134055810D01*
X135097856Y-133720031D01*
X134762077Y-133495672D01*
X134366000Y-133416887D01*
X133969923Y-133495672D01*
X133634144Y-133720031D01*
X133409785Y-134055810D01*
X133331000Y-134451887D01*
X133331000Y-135308113D01*
X133409785Y-135704190D01*
X133606000Y-135997848D01*
X133606000Y-137924000D01*
X133096000Y-137924000D01*
X132805161Y-137981852D01*
X132558599Y-138146599D01*
X131542599Y-139162599D01*
X131377852Y-139409161D01*
X131320000Y-139700000D01*
X131320000Y-142741483D01*
X131248400Y-142771068D01*
X130834521Y-143184225D01*
X130610256Y-143724316D01*
X130609745Y-144309118D01*
X128469746Y-144309118D01*
X128470255Y-143726882D01*
X128246932Y-143186400D01*
X127833775Y-142772521D01*
X127760000Y-142741887D01*
X127760000Y-141030802D01*
X131855401Y-136935401D01*
X132020148Y-136688839D01*
X132078000Y-136398000D01*
X132078000Y-135997848D01*
X132274215Y-135704190D01*
X132353000Y-135308113D01*
X132353000Y-134451887D01*
X132274215Y-134055810D01*
X132049856Y-133720031D01*
X131714077Y-133495672D01*
X131318000Y-133416887D01*
X130921923Y-133495672D01*
X130586144Y-133720031D01*
X130361785Y-134055810D01*
X130283000Y-134451887D01*
X130283000Y-135308113D01*
X130361785Y-135704190D01*
X130558000Y-135997848D01*
X130558000Y-136083198D01*
X126462599Y-140178599D01*
X126297852Y-140425161D01*
X126240000Y-140716000D01*
X126240000Y-142741483D01*
X126168400Y-142771068D01*
X125754521Y-143184225D01*
X125730217Y-143242755D01*
X125706932Y-143186400D01*
X125293775Y-142772521D01*
X125220000Y-142741887D01*
X125220000Y-141030802D01*
X129315401Y-136935401D01*
X129480148Y-136688839D01*
X129538000Y-136398000D01*
X129538000Y-135997848D01*
X129734215Y-135704190D01*
X129813000Y-135308113D01*
X129813000Y-134451887D01*
X129734215Y-134055810D01*
X129509856Y-133720031D01*
X129174077Y-133495672D01*
X128778000Y-133416887D01*
X128381923Y-133495672D01*
X128046144Y-133720031D01*
X127821785Y-134055810D01*
X127743000Y-134451887D01*
X127743000Y-135308113D01*
X127821785Y-135704190D01*
X128018000Y-135997848D01*
X128018000Y-136083198D01*
X123922599Y-140178599D01*
X123757852Y-140425161D01*
X123700000Y-140716000D01*
X123700000Y-142741483D01*
X123628400Y-142771068D01*
X123214521Y-143184225D01*
X122990256Y-143724316D01*
X122989745Y-144309118D01*
X120849746Y-144309118D01*
X120850255Y-143726882D01*
X120626932Y-143186400D01*
X120213775Y-142772521D01*
X119673684Y-142548256D01*
X119088882Y-142547745D01*
X118548400Y-142771068D01*
X118134521Y-143184225D01*
X118110217Y-143242755D01*
X118086932Y-143186400D01*
X117673775Y-142772521D01*
X117133684Y-142548256D01*
X117092000Y-142548220D01*
X117092000Y-139283368D01*
X117288201Y-139364838D01*
X117660167Y-139365162D01*
X118003943Y-139223117D01*
X118037118Y-139190000D01*
X123825000Y-139190000D01*
X124115839Y-139132148D01*
X124362401Y-138967401D01*
X125632401Y-137697401D01*
X125797148Y-137450840D01*
X125855000Y-137160000D01*
X125855000Y-128905000D01*
X125797148Y-128614161D01*
X125632401Y-128367599D01*
X123754802Y-126490000D01*
X128104367Y-126490000D01*
X127970162Y-126813201D01*
X127969838Y-127185167D01*
X128018000Y-127301728D01*
X128018000Y-128162152D01*
X127821785Y-128455810D01*
X127743000Y-128851887D01*
X127743000Y-129708113D01*
X127821785Y-130104190D01*
X128046144Y-130439969D01*
X128381923Y-130664328D01*
X128778000Y-130743113D01*
X129174077Y-130664328D01*
X129509856Y-130439969D01*
X129734215Y-130104190D01*
X129813000Y-129708113D01*
X129813000Y-128851887D01*
X129734215Y-128455810D01*
X129538000Y-128162152D01*
X129538000Y-127689241D01*
X129697192Y-127530327D01*
X129839838Y-127186799D01*
X129840162Y-126814833D01*
X129705944Y-126490000D01*
X129860198Y-126490000D01*
X130558000Y-127187802D01*
X130558000Y-128162152D01*
X130361785Y-128455810D01*
X130283000Y-128851887D01*
X130283000Y-129708113D01*
X130361785Y-130104190D01*
X130586144Y-130439969D01*
X130921923Y-130664328D01*
X131318000Y-130743113D01*
X131714077Y-130664328D01*
X132049856Y-130439969D01*
X132274215Y-130104190D01*
X132353000Y-129708113D01*
X132353000Y-128851887D01*
X133331000Y-128851887D01*
X133331000Y-129708113D01*
X133409785Y-130104190D01*
X133634144Y-130439969D01*
X133969923Y-130664328D01*
X134366000Y-130743113D01*
X134762077Y-130664328D01*
X135097856Y-130439969D01*
X135322215Y-130104190D01*
X135401000Y-129708113D01*
X135401000Y-128851887D01*
X135871000Y-128851887D01*
X135871000Y-129708113D01*
X135949785Y-130104190D01*
X136174144Y-130439969D01*
X136509923Y-130664328D01*
X136906000Y-130743113D01*
X137302077Y-130664328D01*
X137637856Y-130439969D01*
X137862215Y-130104190D01*
X137941000Y-129708113D01*
X137941000Y-128851887D01*
X137862215Y-128455810D01*
X137637856Y-128120031D01*
X137302077Y-127895672D01*
X136906000Y-127816887D01*
X136509923Y-127895672D01*
X136174144Y-128120031D01*
X135949785Y-128455810D01*
X135871000Y-128851887D01*
X135401000Y-128851887D01*
X135322215Y-128455810D01*
X135097856Y-128120031D01*
X134762077Y-127895672D01*
X134366000Y-127816887D01*
X133969923Y-127895672D01*
X133634144Y-128120031D01*
X133409785Y-128455810D01*
X133331000Y-128851887D01*
X132353000Y-128851887D01*
X132274215Y-128455810D01*
X132078000Y-128162152D01*
X132078000Y-126873000D01*
X132020148Y-126582161D01*
X131855401Y-126335599D01*
X130712401Y-125192599D01*
X130465839Y-125027852D01*
X130175000Y-124970000D01*
X127839096Y-124970000D01*
X127918431Y-124853890D01*
X127969440Y-124602000D01*
X127969440Y-123302000D01*
X127925162Y-123066683D01*
X127839783Y-122934000D01*
X137668000Y-122934000D01*
X137958839Y-122876148D01*
X138205401Y-122711401D01*
X140745401Y-120171401D01*
X140910148Y-119924840D01*
X140940329Y-119773110D01*
X140968000Y-119634000D01*
X140968000Y-118097142D01*
X141077240Y-117987902D01*
X141232790Y-118364363D01*
X141441632Y-118573570D01*
X141234171Y-118780670D01*
X141021043Y-119293940D01*
X141020558Y-119849701D01*
X141232790Y-120363343D01*
X141441632Y-120572550D01*
X141234171Y-120779650D01*
X141021043Y-121292920D01*
X141020558Y-121848681D01*
X141232790Y-122362323D01*
X141442902Y-122572803D01*
X141234171Y-122781170D01*
X141021043Y-123294440D01*
X141020558Y-123850201D01*
X141232790Y-124363843D01*
X141441632Y-124573050D01*
X141234171Y-124780150D01*
X141021043Y-125293420D01*
X141020558Y-125849181D01*
X141232790Y-126362823D01*
X141442902Y-126573303D01*
X141234171Y-126781670D01*
X141021043Y-127294940D01*
X141020558Y-127850701D01*
X141232790Y-128364343D01*
X141441632Y-128573550D01*
X141234171Y-128780650D01*
X141021043Y-129293920D01*
X141020558Y-129849681D01*
X141232790Y-130363323D01*
X141625430Y-130756649D01*
X142138700Y-130969777D01*
X142694461Y-130970262D01*
X143208103Y-130758030D01*
X143601429Y-130365390D01*
X143814557Y-129852120D01*
X143815042Y-129296359D01*
X143602810Y-128782717D01*
X143393968Y-128573510D01*
X143601429Y-128366410D01*
X143814557Y-127853140D01*
X143815042Y-127297379D01*
X143602810Y-126783737D01*
X143392698Y-126573257D01*
X143601429Y-126364890D01*
X143814557Y-125851620D01*
X143815042Y-125295859D01*
X143602810Y-124782217D01*
X143393968Y-124573010D01*
X143601429Y-124365910D01*
X143814557Y-123852640D01*
X143815042Y-123296879D01*
X143602810Y-122783237D01*
X143392698Y-122572757D01*
X143601429Y-122364390D01*
X143814557Y-121851120D01*
X143815042Y-121295359D01*
X143602810Y-120781717D01*
X143393968Y-120572510D01*
X143601429Y-120365410D01*
X143814557Y-119852140D01*
X143815042Y-119296379D01*
X143602810Y-118782737D01*
X143393968Y-118573530D01*
X143601429Y-118366430D01*
X143814557Y-117853160D01*
X143815042Y-117297399D01*
X143602810Y-116783757D01*
X143392698Y-116573277D01*
X143601429Y-116364910D01*
X143814557Y-115851640D01*
X143815042Y-115295879D01*
X143602810Y-114782237D01*
X143393968Y-114573030D01*
X143601429Y-114365930D01*
X143814557Y-113852660D01*
X143815042Y-113296899D01*
X143602810Y-112783257D01*
X143392698Y-112572777D01*
X143601429Y-112364410D01*
X143814557Y-111851140D01*
X143814559Y-111848701D01*
X163016958Y-111848701D01*
X163229190Y-112362343D01*
X163439302Y-112572823D01*
X163230571Y-112781190D01*
X163017443Y-113294460D01*
X163016958Y-113850221D01*
X163229190Y-114363863D01*
X163438032Y-114573070D01*
X163230571Y-114780170D01*
X163017443Y-115293440D01*
X163016958Y-115849201D01*
X163229190Y-116362843D01*
X163439302Y-116573323D01*
X163230571Y-116781690D01*
X163017443Y-117294960D01*
X163016958Y-117850721D01*
X163229190Y-118364363D01*
X163438032Y-118573570D01*
X163230571Y-118780670D01*
X163017443Y-119293940D01*
X163016958Y-119849701D01*
X163229190Y-120363343D01*
X163438032Y-120572550D01*
X163230571Y-120779650D01*
X163017443Y-121292920D01*
X163016958Y-121848681D01*
X163229190Y-122362323D01*
X163439302Y-122572803D01*
X163230571Y-122781170D01*
X163017443Y-123294440D01*
X163016958Y-123850201D01*
X163229190Y-124363843D01*
X163438032Y-124573050D01*
X163230571Y-124780150D01*
X163017443Y-125293420D01*
X163016958Y-125849181D01*
X163229190Y-126362823D01*
X163439302Y-126573303D01*
X163230571Y-126781670D01*
X163017443Y-127294940D01*
X163016958Y-127850701D01*
X163229190Y-128364343D01*
X163438032Y-128573550D01*
X163230571Y-128780650D01*
X163017443Y-129293920D01*
X163016958Y-129849681D01*
X163229190Y-130363323D01*
X163621830Y-130756649D01*
X164135100Y-130969777D01*
X164690861Y-130970262D01*
X165204503Y-130758030D01*
X165597829Y-130365390D01*
X165810957Y-129852120D01*
X165811442Y-129296359D01*
X165599210Y-128782717D01*
X165390368Y-128573510D01*
X165597829Y-128366410D01*
X165810957Y-127853140D01*
X165811442Y-127297379D01*
X165599210Y-126783737D01*
X165389098Y-126573257D01*
X165597829Y-126364890D01*
X165810957Y-125851620D01*
X165811442Y-125295859D01*
X165599210Y-124782217D01*
X165390368Y-124573010D01*
X165597829Y-124365910D01*
X165810957Y-123852640D01*
X165811442Y-123296879D01*
X165599210Y-122783237D01*
X165389098Y-122572757D01*
X165597829Y-122364390D01*
X165810957Y-121851120D01*
X165811442Y-121295359D01*
X165599210Y-120781717D01*
X165390368Y-120572510D01*
X165597829Y-120365410D01*
X165810957Y-119852140D01*
X165811442Y-119296379D01*
X165599210Y-118782737D01*
X165390368Y-118573530D01*
X165597829Y-118366430D01*
X165810957Y-117853160D01*
X165811442Y-117297399D01*
X165599210Y-116783757D01*
X165389098Y-116573277D01*
X165597829Y-116364910D01*
X165810957Y-115851640D01*
X165811442Y-115295879D01*
X165599210Y-114782237D01*
X165390368Y-114573030D01*
X165597829Y-114365930D01*
X165810957Y-113852660D01*
X165811442Y-113296899D01*
X165599210Y-112783257D01*
X165389098Y-112572777D01*
X165597829Y-112364410D01*
X165810957Y-111851140D01*
X165811442Y-111295379D01*
X165599210Y-110781737D01*
X165206570Y-110388411D01*
X164693300Y-110175283D01*
X164137539Y-110174798D01*
X163623897Y-110387030D01*
X163230571Y-110779670D01*
X163017443Y-111292940D01*
X163016958Y-111848701D01*
X143814559Y-111848701D01*
X143815042Y-111295379D01*
X143602810Y-110781737D01*
X143210170Y-110388411D01*
X142696900Y-110175283D01*
X142141139Y-110174798D01*
X142108745Y-110188183D01*
X140603161Y-108682599D01*
X140356599Y-108517852D01*
X140065760Y-108460000D01*
X132156846Y-108460000D01*
X132112068Y-108351629D01*
X131680643Y-107919449D01*
X131116670Y-107685267D01*
X130506009Y-107684735D01*
X129941629Y-107917932D01*
X129539677Y-108319182D01*
X129140643Y-107919449D01*
X128576670Y-107685267D01*
X127966009Y-107684735D01*
X127401629Y-107917932D01*
X127224159Y-108095092D01*
X127168327Y-107960301D01*
X126989698Y-107781673D01*
X126756309Y-107685000D01*
X126015750Y-107685000D01*
X125857000Y-107843750D01*
X125857000Y-109093000D01*
X125877000Y-109093000D01*
X125877000Y-109347000D01*
X125857000Y-109347000D01*
X125857000Y-110596250D01*
X126015750Y-110755000D01*
X126756309Y-110755000D01*
X126989698Y-110658327D01*
X127168327Y-110479699D01*
X127224119Y-110345006D01*
X127399357Y-110520551D01*
X127963330Y-110754733D01*
X128573991Y-110755265D01*
X129138371Y-110522068D01*
X129540323Y-110120818D01*
X129939357Y-110520551D01*
X130050000Y-110566494D01*
X130050000Y-111445198D01*
X128367599Y-113127599D01*
X128202852Y-113374161D01*
X128145000Y-113665000D01*
X128145000Y-118725000D01*
X128202852Y-119015839D01*
X128367599Y-119262401D01*
X129432560Y-120327362D01*
X129432560Y-121275000D01*
X129458715Y-121414000D01*
X127314802Y-121414000D01*
X126570000Y-120669198D01*
X126570000Y-119151558D01*
X126795317Y-119109162D01*
X127011441Y-118970090D01*
X127156431Y-118757890D01*
X127207440Y-118506000D01*
X127207440Y-117206000D01*
X127163162Y-116970683D01*
X127026963Y-116759024D01*
X127185167Y-116759162D01*
X127528943Y-116617117D01*
X127792192Y-116354327D01*
X127934838Y-116010799D01*
X127935162Y-115638833D01*
X127793117Y-115295057D01*
X127530327Y-115031808D01*
X127186799Y-114889162D01*
X127139924Y-114889121D01*
X127107440Y-114856637D01*
X127107440Y-113675000D01*
X127063162Y-113439683D01*
X126924090Y-113223559D01*
X126711890Y-113078569D01*
X126460000Y-113027560D01*
X124960000Y-113027560D01*
X124724683Y-113071838D01*
X124508559Y-113210910D01*
X124462031Y-113279006D01*
X124319698Y-113136673D01*
X124086309Y-113040000D01*
X123495750Y-113040000D01*
X123337000Y-113198750D01*
X123337000Y-114173000D01*
X123357000Y-114173000D01*
X123357000Y-114427000D01*
X123337000Y-114427000D01*
X123337000Y-115401250D01*
X123495750Y-115560000D01*
X124086309Y-115560000D01*
X124319698Y-115463327D01*
X124460936Y-115322090D01*
X124495910Y-115376441D01*
X124708110Y-115521431D01*
X124960000Y-115572440D01*
X125673638Y-115572440D01*
X126064878Y-115963680D01*
X126064838Y-116009167D01*
X126206883Y-116352943D01*
X126412141Y-116558560D01*
X125060000Y-116558560D01*
X124824683Y-116602838D01*
X124608559Y-116741910D01*
X124463569Y-116954110D01*
X124460919Y-116967197D01*
X124324090Y-116754559D01*
X124111890Y-116609569D01*
X123860000Y-116558560D01*
X122887362Y-116558560D01*
X121156000Y-114827198D01*
X121156000Y-114585750D01*
X121825000Y-114585750D01*
X121825000Y-115051310D01*
X121921673Y-115284699D01*
X122100302Y-115463327D01*
X122333691Y-115560000D01*
X122924250Y-115560000D01*
X123083000Y-115401250D01*
X123083000Y-114427000D01*
X121983750Y-114427000D01*
X121825000Y-114585750D01*
X121156000Y-114585750D01*
X121156000Y-113548690D01*
X121825000Y-113548690D01*
X121825000Y-114014250D01*
X121983750Y-114173000D01*
X123083000Y-114173000D01*
X123083000Y-113198750D01*
X122924250Y-113040000D01*
X122333691Y-113040000D01*
X122100302Y-113136673D01*
X121921673Y-113315301D01*
X121825000Y-113548690D01*
X121156000Y-113548690D01*
X121156000Y-109505750D01*
X124195000Y-109505750D01*
X124195000Y-110246310D01*
X124291673Y-110479699D01*
X124470302Y-110658327D01*
X124703691Y-110755000D01*
X125444250Y-110755000D01*
X125603000Y-110596250D01*
X125603000Y-109347000D01*
X124353750Y-109347000D01*
X124195000Y-109505750D01*
X121156000Y-109505750D01*
X121156000Y-108644742D01*
X121281317Y-108621162D01*
X121497441Y-108482090D01*
X121642431Y-108269890D01*
X121657861Y-108193690D01*
X124195000Y-108193690D01*
X124195000Y-108934250D01*
X124353750Y-109093000D01*
X125603000Y-109093000D01*
X125603000Y-107843750D01*
X125444250Y-107685000D01*
X124703691Y-107685000D01*
X124470302Y-107781673D01*
X124291673Y-107960301D01*
X124195000Y-108193690D01*
X121657861Y-108193690D01*
X121693440Y-108018000D01*
X121693440Y-106518000D01*
X121649162Y-106282683D01*
X121510090Y-106066559D01*
X121297890Y-105921569D01*
X121284803Y-105918919D01*
X121497441Y-105782090D01*
X121642431Y-105569890D01*
X121693440Y-105318000D01*
X121693440Y-103818000D01*
X121649162Y-103582683D01*
X121510090Y-103366559D01*
X121297890Y-103221569D01*
X121046000Y-103170560D01*
X120167393Y-103170560D01*
X117406993Y-100077919D01*
X117389542Y-100064769D01*
X117377401Y-100046599D01*
X117271698Y-99975971D01*
X117170165Y-99899463D01*
X117149008Y-99893992D01*
X117130839Y-99881852D01*
X117006150Y-99857050D01*
X116883071Y-99825222D01*
X116861433Y-99828263D01*
X116840000Y-99824000D01*
X92964000Y-99824000D01*
X92673161Y-99881852D01*
X92426599Y-100046599D01*
X90394599Y-102078599D01*
X90229852Y-102325161D01*
X90172000Y-102616000D01*
X84201000Y-102616000D01*
X84201000Y-100624358D01*
X84824811Y-101249259D01*
X86233825Y-101834333D01*
X87759482Y-101835664D01*
X89169515Y-101253050D01*
X90249259Y-100175189D01*
X90834333Y-98766175D01*
X90835517Y-97409000D01*
X122130604Y-97409000D01*
X121954009Y-97673293D01*
G36*
X107480959Y-103402577D02*
X107320096Y-103790961D01*
X107442085Y-104013000D01*
X108585000Y-104013000D01*
X108585000Y-103993000D01*
X108839000Y-103993000D01*
X108839000Y-104013000D01*
X109981915Y-104013000D01*
X110103904Y-103790961D01*
X109943041Y-103402577D01*
X109573828Y-102995000D01*
X110810198Y-102995000D01*
X111254000Y-103438802D01*
X111254000Y-103445258D01*
X111128683Y-103468838D01*
X110912559Y-103607910D01*
X110767569Y-103820110D01*
X110716560Y-104072000D01*
X110716560Y-105572000D01*
X110760838Y-105807317D01*
X110899910Y-106023441D01*
X111112110Y-106168431D01*
X111125197Y-106171081D01*
X110912559Y-106307910D01*
X110767569Y-106520110D01*
X110716560Y-106772000D01*
X110716560Y-108272000D01*
X110760838Y-108507317D01*
X110899910Y-108723441D01*
X111112110Y-108868431D01*
X111364000Y-108919440D01*
X112186000Y-108919440D01*
X112186000Y-111615560D01*
X111916000Y-111615560D01*
X111680683Y-111659838D01*
X111464559Y-111798910D01*
X111319569Y-112011110D01*
X111302550Y-112095154D01*
X110939833Y-112094838D01*
X110596057Y-112236883D01*
X110429726Y-112402924D01*
X110110688Y-112083886D01*
X110175113Y-111760000D01*
X110065880Y-111210849D01*
X109754811Y-110745302D01*
X109372725Y-110490000D01*
X109754811Y-110234698D01*
X110065880Y-109769151D01*
X110175113Y-109220000D01*
X110065880Y-108670849D01*
X109754811Y-108205302D01*
X109372725Y-107950000D01*
X109754811Y-107694698D01*
X110065880Y-107229151D01*
X110175113Y-106680000D01*
X110065880Y-106130849D01*
X109754811Y-105665302D01*
X109350297Y-105395014D01*
X109567134Y-105292389D01*
X109943041Y-104877423D01*
X110103904Y-104489039D01*
X109981915Y-104267000D01*
X108839000Y-104267000D01*
X108839000Y-104287000D01*
X108585000Y-104287000D01*
X108585000Y-104267000D01*
X107442085Y-104267000D01*
X107320096Y-104489039D01*
X107480959Y-104877423D01*
X107856866Y-105292389D01*
X108073703Y-105395014D01*
X107669189Y-105665302D01*
X107358120Y-106130849D01*
X107248887Y-106680000D01*
X107358120Y-107229151D01*
X107669189Y-107694698D01*
X108051275Y-107950000D01*
X107669189Y-108205302D01*
X107358120Y-108670849D01*
X107248887Y-109220000D01*
X107358120Y-109769151D01*
X107669189Y-110234698D01*
X108051275Y-110490000D01*
X107669189Y-110745302D01*
X107358120Y-111210849D01*
X107248887Y-111760000D01*
X107358120Y-112309151D01*
X107669189Y-112774698D01*
X108051275Y-113030000D01*
X107669189Y-113285302D01*
X107358120Y-113750849D01*
X107248887Y-114300000D01*
X107358120Y-114849151D01*
X107669189Y-115314698D01*
X108051275Y-115570000D01*
X107669189Y-115825302D01*
X107358120Y-116290849D01*
X107248887Y-116840000D01*
X107358120Y-117389151D01*
X107669189Y-117854698D01*
X108051275Y-118110000D01*
X107669189Y-118365302D01*
X107358120Y-118830849D01*
X107248887Y-119380000D01*
X107358120Y-119929151D01*
X107669189Y-120394698D01*
X108051275Y-120650000D01*
X107669189Y-120905302D01*
X107358120Y-121370849D01*
X107248887Y-121920000D01*
X107358120Y-122469151D01*
X107669189Y-122934698D01*
X108051275Y-123190000D01*
X107669189Y-123445302D01*
X107358120Y-123910849D01*
X107248887Y-124460000D01*
X107358120Y-125009151D01*
X107669189Y-125474698D01*
X108051275Y-125730000D01*
X107669189Y-125985302D01*
X107358120Y-126450849D01*
X107248887Y-127000000D01*
X107358120Y-127549151D01*
X107669189Y-128014698D01*
X108051275Y-128270000D01*
X107669189Y-128525302D01*
X107358120Y-128990849D01*
X107248887Y-129540000D01*
X107358120Y-130089151D01*
X107669189Y-130554698D01*
X108051275Y-130810000D01*
X107669189Y-131065302D01*
X107358120Y-131530849D01*
X107248887Y-132080000D01*
X107358120Y-132629151D01*
X107669189Y-133094698D01*
X108051275Y-133350000D01*
X107669189Y-133605302D01*
X107358120Y-134070849D01*
X107248887Y-134620000D01*
X107358120Y-135169151D01*
X107669189Y-135634698D01*
X108051275Y-135890000D01*
X107669189Y-136145302D01*
X107358120Y-136610849D01*
X107248887Y-137160000D01*
X107358120Y-137709151D01*
X107669189Y-138174698D01*
X108051275Y-138430000D01*
X107669189Y-138685302D01*
X107358120Y-139150849D01*
X107248887Y-139700000D01*
X107358120Y-140249151D01*
X107669189Y-140714698D01*
X108134736Y-141025767D01*
X108683887Y-141135000D01*
X108740113Y-141135000D01*
X109289264Y-141025767D01*
X109754811Y-140714698D01*
X109984000Y-140371693D01*
X109984000Y-142941198D01*
X109217196Y-143708002D01*
X95252804Y-143708002D01*
X92200000Y-140655198D01*
X92200000Y-140371693D01*
X92429189Y-140714698D01*
X92894736Y-141025767D01*
X93443887Y-141135000D01*
X93500113Y-141135000D01*
X94049264Y-141025767D01*
X94514811Y-140714698D01*
X94825880Y-140249151D01*
X94935113Y-139700000D01*
X94825880Y-139150849D01*
X94514811Y-138685302D01*
X94132725Y-138430000D01*
X94514811Y-138174698D01*
X94825880Y-137709151D01*
X94935113Y-137160000D01*
X94825880Y-136610849D01*
X94514811Y-136145302D01*
X94132725Y-135890000D01*
X94514811Y-135634698D01*
X94825880Y-135169151D01*
X94935113Y-134620000D01*
X94825880Y-134070849D01*
X94514811Y-133605302D01*
X94132725Y-133350000D01*
X94514811Y-133094698D01*
X94825880Y-132629151D01*
X94935113Y-132080000D01*
X94825880Y-131530849D01*
X94514811Y-131065302D01*
X94132725Y-130810000D01*
X94514811Y-130554698D01*
X94825880Y-130089151D01*
X94935113Y-129540000D01*
X94825880Y-128990849D01*
X94514811Y-128525302D01*
X94132725Y-128270000D01*
X94514811Y-128014698D01*
X94825880Y-127549151D01*
X94935113Y-127000000D01*
X94825880Y-126450849D01*
X94514811Y-125985302D01*
X94132725Y-125730000D01*
X94514811Y-125474698D01*
X94825880Y-125009151D01*
X94935113Y-124460000D01*
X94825880Y-123910849D01*
X94514811Y-123445302D01*
X94132725Y-123190000D01*
X94514811Y-122934698D01*
X94825880Y-122469151D01*
X94935113Y-121920000D01*
X94825880Y-121370849D01*
X94514811Y-120905302D01*
X94132725Y-120650000D01*
X94514811Y-120394698D01*
X94825880Y-119929151D01*
X94935113Y-119380000D01*
X94825880Y-118830849D01*
X94514811Y-118365302D01*
X94132725Y-118110000D01*
X94514811Y-117854698D01*
X94825880Y-117389151D01*
X94935113Y-116840000D01*
X94825880Y-116290849D01*
X94514811Y-115825302D01*
X94132725Y-115570000D01*
X94514811Y-115314698D01*
X94684995Y-115060000D01*
X95250000Y-115060000D01*
X95540839Y-115002148D01*
X95787401Y-114837401D01*
X96422401Y-114202401D01*
X96587148Y-113955839D01*
X96645000Y-113665000D01*
X96645000Y-103184802D01*
X96834802Y-102995000D01*
X107850172Y-102995000D01*
X107480959Y-103402577D01*
X107480959Y-103402577D01*
G37*
X107480959Y-103402577D02*
X107320096Y-103790961D01*
X107442085Y-104013000D01*
X108585000Y-104013000D01*
X108585000Y-103993000D01*
X108839000Y-103993000D01*
X108839000Y-104013000D01*
X109981915Y-104013000D01*
X110103904Y-103790961D01*
X109943041Y-103402577D01*
X109573828Y-102995000D01*
X110810198Y-102995000D01*
X111254000Y-103438802D01*
X111254000Y-103445258D01*
X111128683Y-103468838D01*
X110912559Y-103607910D01*
X110767569Y-103820110D01*
X110716560Y-104072000D01*
X110716560Y-105572000D01*
X110760838Y-105807317D01*
X110899910Y-106023441D01*
X111112110Y-106168431D01*
X111125197Y-106171081D01*
X110912559Y-106307910D01*
X110767569Y-106520110D01*
X110716560Y-106772000D01*
X110716560Y-108272000D01*
X110760838Y-108507317D01*
X110899910Y-108723441D01*
X111112110Y-108868431D01*
X111364000Y-108919440D01*
X112186000Y-108919440D01*
X112186000Y-111615560D01*
X111916000Y-111615560D01*
X111680683Y-111659838D01*
X111464559Y-111798910D01*
X111319569Y-112011110D01*
X111302550Y-112095154D01*
X110939833Y-112094838D01*
X110596057Y-112236883D01*
X110429726Y-112402924D01*
X110110688Y-112083886D01*
X110175113Y-111760000D01*
X110065880Y-111210849D01*
X109754811Y-110745302D01*
X109372725Y-110490000D01*
X109754811Y-110234698D01*
X110065880Y-109769151D01*
X110175113Y-109220000D01*
X110065880Y-108670849D01*
X109754811Y-108205302D01*
X109372725Y-107950000D01*
X109754811Y-107694698D01*
X110065880Y-107229151D01*
X110175113Y-106680000D01*
X110065880Y-106130849D01*
X109754811Y-105665302D01*
X109350297Y-105395014D01*
X109567134Y-105292389D01*
X109943041Y-104877423D01*
X110103904Y-104489039D01*
X109981915Y-104267000D01*
X108839000Y-104267000D01*
X108839000Y-104287000D01*
X108585000Y-104287000D01*
X108585000Y-104267000D01*
X107442085Y-104267000D01*
X107320096Y-104489039D01*
X107480959Y-104877423D01*
X107856866Y-105292389D01*
X108073703Y-105395014D01*
X107669189Y-105665302D01*
X107358120Y-106130849D01*
X107248887Y-106680000D01*
X107358120Y-107229151D01*
X107669189Y-107694698D01*
X108051275Y-107950000D01*
X107669189Y-108205302D01*
X107358120Y-108670849D01*
X107248887Y-109220000D01*
X107358120Y-109769151D01*
X107669189Y-110234698D01*
X108051275Y-110490000D01*
X107669189Y-110745302D01*
X107358120Y-111210849D01*
X107248887Y-111760000D01*
X107358120Y-112309151D01*
X107669189Y-112774698D01*
X108051275Y-113030000D01*
X107669189Y-113285302D01*
X107358120Y-113750849D01*
X107248887Y-114300000D01*
X107358120Y-114849151D01*
X107669189Y-115314698D01*
X108051275Y-115570000D01*
X107669189Y-115825302D01*
X107358120Y-116290849D01*
X107248887Y-116840000D01*
X107358120Y-117389151D01*
X107669189Y-117854698D01*
X108051275Y-118110000D01*
X107669189Y-118365302D01*
X107358120Y-118830849D01*
X107248887Y-119380000D01*
X107358120Y-119929151D01*
X107669189Y-120394698D01*
X108051275Y-120650000D01*
X107669189Y-120905302D01*
X107358120Y-121370849D01*
X107248887Y-121920000D01*
X107358120Y-122469151D01*
X107669189Y-122934698D01*
X108051275Y-123190000D01*
X107669189Y-123445302D01*
X107358120Y-123910849D01*
X107248887Y-124460000D01*
X107358120Y-125009151D01*
X107669189Y-125474698D01*
X108051275Y-125730000D01*
X107669189Y-125985302D01*
X107358120Y-126450849D01*
X107248887Y-127000000D01*
X107358120Y-127549151D01*
X107669189Y-128014698D01*
X108051275Y-128270000D01*
X107669189Y-128525302D01*
X107358120Y-128990849D01*
X107248887Y-129540000D01*
X107358120Y-130089151D01*
X107669189Y-130554698D01*
X108051275Y-130810000D01*
X107669189Y-131065302D01*
X107358120Y-131530849D01*
X107248887Y-132080000D01*
X107358120Y-132629151D01*
X107669189Y-133094698D01*
X108051275Y-133350000D01*
X107669189Y-133605302D01*
X107358120Y-134070849D01*
X107248887Y-134620000D01*
X107358120Y-135169151D01*
X107669189Y-135634698D01*
X108051275Y-135890000D01*
X107669189Y-136145302D01*
X107358120Y-136610849D01*
X107248887Y-137160000D01*
X107358120Y-137709151D01*
X107669189Y-138174698D01*
X108051275Y-138430000D01*
X107669189Y-138685302D01*
X107358120Y-139150849D01*
X107248887Y-139700000D01*
X107358120Y-140249151D01*
X107669189Y-140714698D01*
X108134736Y-141025767D01*
X108683887Y-141135000D01*
X108740113Y-141135000D01*
X109289264Y-141025767D01*
X109754811Y-140714698D01*
X109984000Y-140371693D01*
X109984000Y-142941198D01*
X109217196Y-143708002D01*
X95252804Y-143708002D01*
X92200000Y-140655198D01*
X92200000Y-140371693D01*
X92429189Y-140714698D01*
X92894736Y-141025767D01*
X93443887Y-141135000D01*
X93500113Y-141135000D01*
X94049264Y-141025767D01*
X94514811Y-140714698D01*
X94825880Y-140249151D01*
X94935113Y-139700000D01*
X94825880Y-139150849D01*
X94514811Y-138685302D01*
X94132725Y-138430000D01*
X94514811Y-138174698D01*
X94825880Y-137709151D01*
X94935113Y-137160000D01*
X94825880Y-136610849D01*
X94514811Y-136145302D01*
X94132725Y-135890000D01*
X94514811Y-135634698D01*
X94825880Y-135169151D01*
X94935113Y-134620000D01*
X94825880Y-134070849D01*
X94514811Y-133605302D01*
X94132725Y-133350000D01*
X94514811Y-133094698D01*
X94825880Y-132629151D01*
X94935113Y-132080000D01*
X94825880Y-131530849D01*
X94514811Y-131065302D01*
X94132725Y-130810000D01*
X94514811Y-130554698D01*
X94825880Y-130089151D01*
X94935113Y-129540000D01*
X94825880Y-128990849D01*
X94514811Y-128525302D01*
X94132725Y-128270000D01*
X94514811Y-128014698D01*
X94825880Y-127549151D01*
X94935113Y-127000000D01*
X94825880Y-126450849D01*
X94514811Y-125985302D01*
X94132725Y-125730000D01*
X94514811Y-125474698D01*
X94825880Y-125009151D01*
X94935113Y-124460000D01*
X94825880Y-123910849D01*
X94514811Y-123445302D01*
X94132725Y-123190000D01*
X94514811Y-122934698D01*
X94825880Y-122469151D01*
X94935113Y-121920000D01*
X94825880Y-121370849D01*
X94514811Y-120905302D01*
X94132725Y-120650000D01*
X94514811Y-120394698D01*
X94825880Y-119929151D01*
X94935113Y-119380000D01*
X94825880Y-118830849D01*
X94514811Y-118365302D01*
X94132725Y-118110000D01*
X94514811Y-117854698D01*
X94825880Y-117389151D01*
X94935113Y-116840000D01*
X94825880Y-116290849D01*
X94514811Y-115825302D01*
X94132725Y-115570000D01*
X94514811Y-115314698D01*
X94684995Y-115060000D01*
X95250000Y-115060000D01*
X95540839Y-115002148D01*
X95787401Y-114837401D01*
X96422401Y-114202401D01*
X96587148Y-113955839D01*
X96645000Y-113665000D01*
X96645000Y-103184802D01*
X96834802Y-102995000D01*
X107850172Y-102995000D01*
X107480959Y-103402577D01*
M02*
