G04 #@! TF.FileFunction,Legend,Top*
%FSLAX46Y46*%
G04 Gerber Fmt 4.6, Leading zero omitted, Abs format (unit mm)*
G04 Created by KiCad (PCBNEW 4.0.7) date 04/10/18 20:34:57*
%MOMM*%
%LPD*%
G01*
G04 APERTURE LIST*
%ADD10C,0.100000*%
%ADD11C,0.150000*%
%ADD12C,0.200000*%
%ADD13C,0.120000*%
%ADD14C,0.203200*%
%ADD15C,0.010000*%
%ADD16C,0.152400*%
G04 APERTURE END LIST*
D10*
D11*
X136381905Y-94670571D02*
X135620000Y-94670571D01*
X136000952Y-94289619D02*
X136000952Y-95051524D01*
X133620000Y-94670571D02*
X132858095Y-94670571D01*
X122229762Y-101528571D02*
X122372619Y-101576190D01*
X122420238Y-101623810D01*
X122467857Y-101719048D01*
X122467857Y-101861905D01*
X122420238Y-101957143D01*
X122372619Y-102004762D01*
X122277381Y-102052381D01*
X121896428Y-102052381D01*
X121896428Y-101052381D01*
X122229762Y-101052381D01*
X122325000Y-101100000D01*
X122372619Y-101147619D01*
X122420238Y-101242857D01*
X122420238Y-101338095D01*
X122372619Y-101433333D01*
X122325000Y-101480952D01*
X122229762Y-101528571D01*
X121896428Y-101528571D01*
X122848809Y-101766667D02*
X123325000Y-101766667D01*
X122753571Y-102052381D02*
X123086904Y-101052381D01*
X123420238Y-102052381D01*
X123610714Y-101052381D02*
X124182143Y-101052381D01*
X123896428Y-102052381D02*
X123896428Y-101052381D01*
X124372619Y-101052381D02*
X124944048Y-101052381D01*
X124658333Y-102052381D02*
X124658333Y-101052381D01*
X125229762Y-101147619D02*
X125277381Y-101100000D01*
X125372619Y-101052381D01*
X125610715Y-101052381D01*
X125705953Y-101100000D01*
X125753572Y-101147619D01*
X125801191Y-101242857D01*
X125801191Y-101338095D01*
X125753572Y-101480952D01*
X125182143Y-102052381D01*
X125801191Y-102052381D01*
X145613809Y-148994762D02*
X145756666Y-149042381D01*
X145994762Y-149042381D01*
X146090000Y-148994762D01*
X146137619Y-148947143D01*
X146185238Y-148851905D01*
X146185238Y-148756667D01*
X146137619Y-148661429D01*
X146090000Y-148613810D01*
X145994762Y-148566190D01*
X145804285Y-148518571D01*
X145709047Y-148470952D01*
X145661428Y-148423333D01*
X145613809Y-148328095D01*
X145613809Y-148232857D01*
X145661428Y-148137619D01*
X145709047Y-148090000D01*
X145804285Y-148042381D01*
X146042381Y-148042381D01*
X146185238Y-148090000D01*
X147185238Y-148947143D02*
X147137619Y-148994762D01*
X146994762Y-149042381D01*
X146899524Y-149042381D01*
X146756666Y-148994762D01*
X146661428Y-148899524D01*
X146613809Y-148804286D01*
X146566190Y-148613810D01*
X146566190Y-148470952D01*
X146613809Y-148280476D01*
X146661428Y-148185238D01*
X146756666Y-148090000D01*
X146899524Y-148042381D01*
X146994762Y-148042381D01*
X147137619Y-148090000D01*
X147185238Y-148137619D01*
X148090000Y-149042381D02*
X147613809Y-149042381D01*
X147613809Y-148042381D01*
X149137619Y-148994762D02*
X149280476Y-149042381D01*
X149518572Y-149042381D01*
X149613810Y-148994762D01*
X149661429Y-148947143D01*
X149709048Y-148851905D01*
X149709048Y-148756667D01*
X149661429Y-148661429D01*
X149613810Y-148613810D01*
X149518572Y-148566190D01*
X149328095Y-148518571D01*
X149232857Y-148470952D01*
X149185238Y-148423333D01*
X149137619Y-148328095D01*
X149137619Y-148232857D01*
X149185238Y-148137619D01*
X149232857Y-148090000D01*
X149328095Y-148042381D01*
X149566191Y-148042381D01*
X149709048Y-148090000D01*
X150137619Y-149042381D02*
X150137619Y-148042381D01*
X150375714Y-148042381D01*
X150518572Y-148090000D01*
X150613810Y-148185238D01*
X150661429Y-148280476D01*
X150709048Y-148470952D01*
X150709048Y-148613810D01*
X150661429Y-148804286D01*
X150613810Y-148899524D01*
X150518572Y-148994762D01*
X150375714Y-149042381D01*
X150137619Y-149042381D01*
X151090000Y-148756667D02*
X151566191Y-148756667D01*
X150994762Y-149042381D02*
X151328095Y-148042381D01*
X151661429Y-149042381D01*
D12*
X111865210Y-112014000D02*
G75*
G03X111865210Y-112014000I-359210J0D01*
G01*
X114151210Y-134112000D02*
G75*
G03X114151210Y-134112000I-359210J0D01*
G01*
D11*
X115443333Y-148042381D02*
X116014762Y-148042381D01*
X115729047Y-149042381D02*
X115729047Y-148042381D01*
X116252857Y-148042381D02*
X116919524Y-149042381D01*
X116919524Y-148042381D02*
X116252857Y-149042381D01*
X118586191Y-148090000D02*
X118490953Y-148042381D01*
X118348096Y-148042381D01*
X118205238Y-148090000D01*
X118110000Y-148185238D01*
X118062381Y-148280476D01*
X118014762Y-148470952D01*
X118014762Y-148613810D01*
X118062381Y-148804286D01*
X118110000Y-148899524D01*
X118205238Y-148994762D01*
X118348096Y-149042381D01*
X118443334Y-149042381D01*
X118586191Y-148994762D01*
X118633810Y-148947143D01*
X118633810Y-148613810D01*
X118443334Y-148613810D01*
X119062381Y-149042381D02*
X119062381Y-148042381D01*
X119633810Y-149042381D01*
X119633810Y-148042381D01*
X120110000Y-149042381D02*
X120110000Y-148042381D01*
X120348095Y-148042381D01*
X120490953Y-148090000D01*
X120586191Y-148185238D01*
X120633810Y-148280476D01*
X120681429Y-148470952D01*
X120681429Y-148613810D01*
X120633810Y-148804286D01*
X120586191Y-148899524D01*
X120490953Y-148994762D01*
X120348095Y-149042381D01*
X120110000Y-149042381D01*
X114062381Y-139866667D02*
X114538572Y-139866667D01*
X113967143Y-140152381D02*
X114300476Y-139152381D01*
X114633810Y-140152381D01*
X115443334Y-140152381D02*
X114967143Y-140152381D01*
X114967143Y-139152381D01*
X115633810Y-139152381D02*
X116205239Y-139152381D01*
X115919524Y-140152381D02*
X115919524Y-139152381D01*
X116300477Y-140247619D02*
X117062382Y-140247619D01*
X117871906Y-140057143D02*
X117824287Y-140104762D01*
X117681430Y-140152381D01*
X117586192Y-140152381D01*
X117443334Y-140104762D01*
X117348096Y-140009524D01*
X117300477Y-139914286D01*
X117252858Y-139723810D01*
X117252858Y-139580952D01*
X117300477Y-139390476D01*
X117348096Y-139295238D01*
X117443334Y-139200000D01*
X117586192Y-139152381D01*
X117681430Y-139152381D01*
X117824287Y-139200000D01*
X117871906Y-139247619D01*
X118490953Y-139152381D02*
X118681430Y-139152381D01*
X118776668Y-139200000D01*
X118871906Y-139295238D01*
X118919525Y-139485714D01*
X118919525Y-139819048D01*
X118871906Y-140009524D01*
X118776668Y-140104762D01*
X118681430Y-140152381D01*
X118490953Y-140152381D01*
X118395715Y-140104762D01*
X118300477Y-140009524D01*
X118252858Y-139819048D01*
X118252858Y-139485714D01*
X118300477Y-139295238D01*
X118395715Y-139200000D01*
X118490953Y-139152381D01*
X119348096Y-140152381D02*
X119348096Y-139152381D01*
X119681430Y-139866667D01*
X120014763Y-139152381D01*
X120014763Y-140152381D01*
X120490953Y-140152381D02*
X120490953Y-139152381D01*
X120824287Y-139866667D01*
X121157620Y-139152381D01*
X121157620Y-140152381D01*
X121586191Y-140104762D02*
X121729048Y-140152381D01*
X121967144Y-140152381D01*
X122062382Y-140104762D01*
X122110001Y-140057143D01*
X122157620Y-139961905D01*
X122157620Y-139866667D01*
X122110001Y-139771429D01*
X122062382Y-139723810D01*
X121967144Y-139676190D01*
X121776667Y-139628571D01*
X121681429Y-139580952D01*
X121633810Y-139533333D01*
X121586191Y-139438095D01*
X121586191Y-139342857D01*
X121633810Y-139247619D01*
X121681429Y-139200000D01*
X121776667Y-139152381D01*
X122014763Y-139152381D01*
X122157620Y-139200000D01*
X123277619Y-139866667D02*
X123753810Y-139866667D01*
X123182381Y-140152381D02*
X123515714Y-139152381D01*
X123849048Y-140152381D01*
X124658572Y-140152381D02*
X124182381Y-140152381D01*
X124182381Y-139152381D01*
X124849048Y-139152381D02*
X125420477Y-139152381D01*
X125134762Y-140152381D02*
X125134762Y-139152381D01*
X125515715Y-140247619D02*
X126277620Y-140247619D01*
X126468096Y-140104762D02*
X126610953Y-140152381D01*
X126849049Y-140152381D01*
X126944287Y-140104762D01*
X126991906Y-140057143D01*
X127039525Y-139961905D01*
X127039525Y-139866667D01*
X126991906Y-139771429D01*
X126944287Y-139723810D01*
X126849049Y-139676190D01*
X126658572Y-139628571D01*
X126563334Y-139580952D01*
X126515715Y-139533333D01*
X126468096Y-139438095D01*
X126468096Y-139342857D01*
X126515715Y-139247619D01*
X126563334Y-139200000D01*
X126658572Y-139152381D01*
X126896668Y-139152381D01*
X127039525Y-139200000D01*
X127372858Y-139152381D02*
X127610953Y-140152381D01*
X127801430Y-139438095D01*
X127991906Y-140152381D01*
X128230001Y-139152381D01*
X131564286Y-139200000D02*
X131469048Y-139152381D01*
X131326191Y-139152381D01*
X131183333Y-139200000D01*
X131088095Y-139295238D01*
X131040476Y-139390476D01*
X130992857Y-139580952D01*
X130992857Y-139723810D01*
X131040476Y-139914286D01*
X131088095Y-140009524D01*
X131183333Y-140104762D01*
X131326191Y-140152381D01*
X131421429Y-140152381D01*
X131564286Y-140104762D01*
X131611905Y-140057143D01*
X131611905Y-139723810D01*
X131421429Y-139723810D01*
X132230952Y-139152381D02*
X132421429Y-139152381D01*
X132516667Y-139200000D01*
X132611905Y-139295238D01*
X132659524Y-139485714D01*
X132659524Y-139819048D01*
X132611905Y-140009524D01*
X132516667Y-140104762D01*
X132421429Y-140152381D01*
X132230952Y-140152381D01*
X132135714Y-140104762D01*
X132040476Y-140009524D01*
X131992857Y-139819048D01*
X131992857Y-139485714D01*
X132040476Y-139295238D01*
X132135714Y-139200000D01*
X132230952Y-139152381D01*
X133088095Y-140152381D02*
X133088095Y-139152381D01*
X133469048Y-139152381D01*
X133564286Y-139200000D01*
X133611905Y-139247619D01*
X133659524Y-139342857D01*
X133659524Y-139485714D01*
X133611905Y-139580952D01*
X133564286Y-139628571D01*
X133469048Y-139676190D01*
X133088095Y-139676190D01*
X134659524Y-140152381D02*
X134326190Y-139676190D01*
X134088095Y-140152381D02*
X134088095Y-139152381D01*
X134469048Y-139152381D01*
X134564286Y-139200000D01*
X134611905Y-139247619D01*
X134659524Y-139342857D01*
X134659524Y-139485714D01*
X134611905Y-139580952D01*
X134564286Y-139628571D01*
X134469048Y-139676190D01*
X134088095Y-139676190D01*
X135278571Y-139152381D02*
X135469048Y-139152381D01*
X135564286Y-139200000D01*
X135659524Y-139295238D01*
X135707143Y-139485714D01*
X135707143Y-139819048D01*
X135659524Y-140009524D01*
X135564286Y-140104762D01*
X135469048Y-140152381D01*
X135278571Y-140152381D01*
X135183333Y-140104762D01*
X135088095Y-140009524D01*
X135040476Y-139819048D01*
X135040476Y-139485714D01*
X135088095Y-139295238D01*
X135183333Y-139200000D01*
X135278571Y-139152381D01*
X138065238Y-140152381D02*
X138065238Y-139152381D01*
X138541428Y-140152381D02*
X138541428Y-139152381D01*
X139112857Y-140152381D01*
X139112857Y-139152381D01*
X139446190Y-139152381D02*
X140017619Y-139152381D01*
X139731904Y-140152381D02*
X139731904Y-139152381D01*
X140112857Y-140247619D02*
X140874762Y-140247619D01*
X141017619Y-139152381D02*
X141684286Y-139152381D01*
X141255714Y-140152381D01*
X142065238Y-140057143D02*
X142112857Y-140104762D01*
X142065238Y-140152381D01*
X142017619Y-140104762D01*
X142065238Y-140057143D01*
X142065238Y-140152381D01*
X142970000Y-139485714D02*
X142970000Y-140152381D01*
X142731904Y-139104762D02*
X142493809Y-139819048D01*
X143112857Y-139819048D01*
X143350952Y-139152381D02*
X143684285Y-140152381D01*
X144017619Y-139152381D01*
X145709048Y-140152381D02*
X145709048Y-139152381D01*
X146185238Y-140152381D02*
X146185238Y-139152381D01*
X146756667Y-140152381D01*
X146756667Y-139152381D01*
X147090000Y-139152381D02*
X147661429Y-139152381D01*
X147375714Y-140152381D02*
X147375714Y-139152381D01*
X147756667Y-140247619D02*
X148518572Y-140247619D01*
X149328096Y-140057143D02*
X149280477Y-140104762D01*
X149137620Y-140152381D01*
X149042382Y-140152381D01*
X148899524Y-140104762D01*
X148804286Y-140009524D01*
X148756667Y-139914286D01*
X148709048Y-139723810D01*
X148709048Y-139580952D01*
X148756667Y-139390476D01*
X148804286Y-139295238D01*
X148899524Y-139200000D01*
X149042382Y-139152381D01*
X149137620Y-139152381D01*
X149280477Y-139200000D01*
X149328096Y-139247619D01*
X149947143Y-139152381D02*
X150137620Y-139152381D01*
X150232858Y-139200000D01*
X150328096Y-139295238D01*
X150375715Y-139485714D01*
X150375715Y-139819048D01*
X150328096Y-140009524D01*
X150232858Y-140104762D01*
X150137620Y-140152381D01*
X149947143Y-140152381D01*
X149851905Y-140104762D01*
X149756667Y-140009524D01*
X149709048Y-139819048D01*
X149709048Y-139485714D01*
X149756667Y-139295238D01*
X149851905Y-139200000D01*
X149947143Y-139152381D01*
X150804286Y-140152381D02*
X150804286Y-139152381D01*
X151137620Y-139866667D01*
X151470953Y-139152381D01*
X151470953Y-140152381D01*
X132389762Y-101528571D02*
X132532619Y-101576190D01*
X132580238Y-101623810D01*
X132627857Y-101719048D01*
X132627857Y-101861905D01*
X132580238Y-101957143D01*
X132532619Y-102004762D01*
X132437381Y-102052381D01*
X132056428Y-102052381D01*
X132056428Y-101052381D01*
X132389762Y-101052381D01*
X132485000Y-101100000D01*
X132532619Y-101147619D01*
X132580238Y-101242857D01*
X132580238Y-101338095D01*
X132532619Y-101433333D01*
X132485000Y-101480952D01*
X132389762Y-101528571D01*
X132056428Y-101528571D01*
X133008809Y-101766667D02*
X133485000Y-101766667D01*
X132913571Y-102052381D02*
X133246904Y-101052381D01*
X133580238Y-102052381D01*
X133770714Y-101052381D02*
X134342143Y-101052381D01*
X134056428Y-102052381D02*
X134056428Y-101052381D01*
X134532619Y-101052381D02*
X135104048Y-101052381D01*
X134818333Y-102052381D02*
X134818333Y-101052381D01*
X135961191Y-102052381D02*
X135389762Y-102052381D01*
X135675476Y-102052381D02*
X135675476Y-101052381D01*
X135580238Y-101195238D01*
X135485000Y-101290476D01*
X135389762Y-101338095D01*
X131588095Y-148661429D02*
X132350000Y-148661429D01*
X131969048Y-149042381D02*
X131969048Y-148280476D01*
X134350000Y-148661429D02*
X135111905Y-148661429D01*
X139208095Y-148661429D02*
X139970000Y-148661429D01*
X139589048Y-149042381D02*
X139589048Y-148280476D01*
X141970000Y-148661429D02*
X142731905Y-148661429D01*
X125967905Y-94670571D02*
X125206000Y-94670571D01*
X125586952Y-94289619D02*
X125586952Y-95051524D01*
X123206000Y-94670571D02*
X122444095Y-94670571D01*
X127491905Y-148518571D02*
X126730000Y-148518571D01*
X127110952Y-148137619D02*
X127110952Y-148899524D01*
X124730000Y-148518571D02*
X123968095Y-148518571D01*
X144970476Y-96941667D02*
X145446667Y-96941667D01*
X144875238Y-97227381D02*
X145208571Y-96227381D01*
X145541905Y-97227381D01*
X145875238Y-96560714D02*
X145875238Y-97227381D01*
X145875238Y-96655952D02*
X145922857Y-96608333D01*
X146018095Y-96560714D01*
X146160953Y-96560714D01*
X146256191Y-96608333D01*
X146303810Y-96703571D01*
X146303810Y-97227381D01*
X146684762Y-96560714D02*
X146922857Y-97227381D01*
X147160953Y-96560714D02*
X146922857Y-97227381D01*
X146827619Y-97465476D01*
X146780000Y-97513095D01*
X146684762Y-97560714D01*
X147399048Y-96560714D02*
X147780000Y-96560714D01*
X147541905Y-96227381D02*
X147541905Y-97084524D01*
X147589524Y-97179762D01*
X147684762Y-97227381D01*
X147780000Y-97227381D01*
X148113334Y-97227381D02*
X148113334Y-96227381D01*
X148541906Y-97227381D02*
X148541906Y-96703571D01*
X148494287Y-96608333D01*
X148399049Y-96560714D01*
X148256191Y-96560714D01*
X148160953Y-96608333D01*
X148113334Y-96655952D01*
X149018096Y-97227381D02*
X149018096Y-96560714D01*
X149018096Y-96227381D02*
X148970477Y-96275000D01*
X149018096Y-96322619D01*
X149065715Y-96275000D01*
X149018096Y-96227381D01*
X149018096Y-96322619D01*
X149494286Y-96560714D02*
X149494286Y-97227381D01*
X149494286Y-96655952D02*
X149541905Y-96608333D01*
X149637143Y-96560714D01*
X149780001Y-96560714D01*
X149875239Y-96608333D01*
X149922858Y-96703571D01*
X149922858Y-97227381D01*
X150827620Y-96560714D02*
X150827620Y-97370238D01*
X150780001Y-97465476D01*
X150732382Y-97513095D01*
X150637143Y-97560714D01*
X150494286Y-97560714D01*
X150399048Y-97513095D01*
X150827620Y-97179762D02*
X150732382Y-97227381D01*
X150541905Y-97227381D01*
X150446667Y-97179762D01*
X150399048Y-97132143D01*
X150351429Y-97036905D01*
X150351429Y-96751190D01*
X150399048Y-96655952D01*
X150446667Y-96608333D01*
X150541905Y-96560714D01*
X150732382Y-96560714D01*
X150827620Y-96608333D01*
X152065715Y-97227381D02*
X152065715Y-96227381D01*
X152065715Y-96608333D02*
X152160953Y-96560714D01*
X152351430Y-96560714D01*
X152446668Y-96608333D01*
X152494287Y-96655952D01*
X152541906Y-96751190D01*
X152541906Y-97036905D01*
X152494287Y-97132143D01*
X152446668Y-97179762D01*
X152351430Y-97227381D01*
X152160953Y-97227381D01*
X152065715Y-97179762D01*
X153399049Y-96560714D02*
X153399049Y-97227381D01*
X152970477Y-96560714D02*
X152970477Y-97084524D01*
X153018096Y-97179762D01*
X153113334Y-97227381D01*
X153256192Y-97227381D01*
X153351430Y-97179762D01*
X153399049Y-97132143D01*
X153732382Y-96560714D02*
X154113334Y-96560714D01*
X153875239Y-96227381D02*
X153875239Y-97084524D01*
X153922858Y-97179762D01*
X154018096Y-97227381D01*
X154113334Y-97227381D01*
X155208573Y-97227381D02*
X155208573Y-96227381D01*
X155780002Y-97227381D02*
X155351430Y-96655952D01*
X155780002Y-96227381D02*
X155208573Y-96798810D01*
X156208573Y-97227381D02*
X156208573Y-96560714D01*
X156208573Y-96227381D02*
X156160954Y-96275000D01*
X156208573Y-96322619D01*
X156256192Y-96275000D01*
X156208573Y-96227381D01*
X156208573Y-96322619D01*
X156637144Y-97179762D02*
X156732382Y-97227381D01*
X156922858Y-97227381D01*
X157018097Y-97179762D01*
X157065716Y-97084524D01*
X157065716Y-97036905D01*
X157018097Y-96941667D01*
X156922858Y-96894048D01*
X156780001Y-96894048D01*
X156684763Y-96846429D01*
X156637144Y-96751190D01*
X156637144Y-96703571D01*
X156684763Y-96608333D01*
X156780001Y-96560714D01*
X156922858Y-96560714D01*
X157018097Y-96608333D01*
X157494287Y-97227381D02*
X157494287Y-96560714D01*
X157494287Y-96655952D02*
X157541906Y-96608333D01*
X157637144Y-96560714D01*
X157780002Y-96560714D01*
X157875240Y-96608333D01*
X157922859Y-96703571D01*
X157922859Y-97227381D01*
X157922859Y-96703571D02*
X157970478Y-96608333D01*
X158065716Y-96560714D01*
X158208573Y-96560714D01*
X158303811Y-96608333D01*
X158351430Y-96703571D01*
X158351430Y-97227381D01*
X159208573Y-97179762D02*
X159113335Y-97227381D01*
X158922858Y-97227381D01*
X158827620Y-97179762D01*
X158780001Y-97084524D01*
X158780001Y-96703571D01*
X158827620Y-96608333D01*
X158922858Y-96560714D01*
X159113335Y-96560714D01*
X159208573Y-96608333D01*
X159256192Y-96703571D01*
X159256192Y-96798810D01*
X158780001Y-96894048D01*
X159541906Y-96560714D02*
X159922858Y-96560714D01*
X159684763Y-96227381D02*
X159684763Y-97084524D01*
X159732382Y-97179762D01*
X159827620Y-97227381D01*
X159922858Y-97227381D01*
X144970476Y-98591667D02*
X145446667Y-98591667D01*
X144875238Y-98877381D02*
X145208571Y-97877381D01*
X145541905Y-98877381D01*
X146303810Y-98877381D02*
X146303810Y-97877381D01*
X146303810Y-98829762D02*
X146208572Y-98877381D01*
X146018095Y-98877381D01*
X145922857Y-98829762D01*
X145875238Y-98782143D01*
X145827619Y-98686905D01*
X145827619Y-98401190D01*
X145875238Y-98305952D01*
X145922857Y-98258333D01*
X146018095Y-98210714D01*
X146208572Y-98210714D01*
X146303810Y-98258333D01*
X147208572Y-98877381D02*
X147208572Y-98353571D01*
X147160953Y-98258333D01*
X147065715Y-98210714D01*
X146875238Y-98210714D01*
X146780000Y-98258333D01*
X147208572Y-98829762D02*
X147113334Y-98877381D01*
X146875238Y-98877381D01*
X146780000Y-98829762D01*
X146732381Y-98734524D01*
X146732381Y-98639286D01*
X146780000Y-98544048D01*
X146875238Y-98496429D01*
X147113334Y-98496429D01*
X147208572Y-98448810D01*
X147684762Y-98877381D02*
X147684762Y-98210714D01*
X147684762Y-98305952D02*
X147732381Y-98258333D01*
X147827619Y-98210714D01*
X147970477Y-98210714D01*
X148065715Y-98258333D01*
X148113334Y-98353571D01*
X148113334Y-98877381D01*
X148113334Y-98353571D02*
X148160953Y-98258333D01*
X148256191Y-98210714D01*
X148399048Y-98210714D01*
X148494286Y-98258333D01*
X148541905Y-98353571D01*
X148541905Y-98877381D01*
X149780000Y-98877381D02*
X149780000Y-97877381D01*
X150160953Y-97877381D01*
X150256191Y-97925000D01*
X150303810Y-97972619D01*
X150351429Y-98067857D01*
X150351429Y-98210714D01*
X150303810Y-98305952D01*
X150256191Y-98353571D01*
X150160953Y-98401190D01*
X149780000Y-98401190D01*
X151208572Y-98877381D02*
X151208572Y-98353571D01*
X151160953Y-98258333D01*
X151065715Y-98210714D01*
X150875238Y-98210714D01*
X150780000Y-98258333D01*
X151208572Y-98829762D02*
X151113334Y-98877381D01*
X150875238Y-98877381D01*
X150780000Y-98829762D01*
X150732381Y-98734524D01*
X150732381Y-98639286D01*
X150780000Y-98544048D01*
X150875238Y-98496429D01*
X151113334Y-98496429D01*
X151208572Y-98448810D01*
X152113334Y-98210714D02*
X152113334Y-98877381D01*
X151684762Y-98210714D02*
X151684762Y-98734524D01*
X151732381Y-98829762D01*
X151827619Y-98877381D01*
X151970477Y-98877381D01*
X152065715Y-98829762D01*
X152113334Y-98782143D01*
X152732381Y-98877381D02*
X152637143Y-98829762D01*
X152589524Y-98734524D01*
X152589524Y-97877381D01*
X144970476Y-99622619D02*
X145018095Y-99575000D01*
X145113333Y-99527381D01*
X145351429Y-99527381D01*
X145446667Y-99575000D01*
X145494286Y-99622619D01*
X145541905Y-99717857D01*
X145541905Y-99813095D01*
X145494286Y-99955952D01*
X144922857Y-100527381D01*
X145541905Y-100527381D01*
X146160952Y-99527381D02*
X146256191Y-99527381D01*
X146351429Y-99575000D01*
X146399048Y-99622619D01*
X146446667Y-99717857D01*
X146494286Y-99908333D01*
X146494286Y-100146429D01*
X146446667Y-100336905D01*
X146399048Y-100432143D01*
X146351429Y-100479762D01*
X146256191Y-100527381D01*
X146160952Y-100527381D01*
X146065714Y-100479762D01*
X146018095Y-100432143D01*
X145970476Y-100336905D01*
X145922857Y-100146429D01*
X145922857Y-99908333D01*
X145970476Y-99717857D01*
X146018095Y-99622619D01*
X146065714Y-99575000D01*
X146160952Y-99527381D01*
X147446667Y-100527381D02*
X146875238Y-100527381D01*
X147160952Y-100527381D02*
X147160952Y-99527381D01*
X147065714Y-99670238D01*
X146970476Y-99765476D01*
X146875238Y-99813095D01*
X148018095Y-99955952D02*
X147922857Y-99908333D01*
X147875238Y-99860714D01*
X147827619Y-99765476D01*
X147827619Y-99717857D01*
X147875238Y-99622619D01*
X147922857Y-99575000D01*
X148018095Y-99527381D01*
X148208572Y-99527381D01*
X148303810Y-99575000D01*
X148351429Y-99622619D01*
X148399048Y-99717857D01*
X148399048Y-99765476D01*
X148351429Y-99860714D01*
X148303810Y-99908333D01*
X148208572Y-99955952D01*
X148018095Y-99955952D01*
X147922857Y-100003571D01*
X147875238Y-100051190D01*
X147827619Y-100146429D01*
X147827619Y-100336905D01*
X147875238Y-100432143D01*
X147922857Y-100479762D01*
X148018095Y-100527381D01*
X148208572Y-100527381D01*
X148303810Y-100479762D01*
X148351429Y-100432143D01*
X148399048Y-100336905D01*
X148399048Y-100146429D01*
X148351429Y-100051190D01*
X148303810Y-100003571D01*
X148208572Y-99955952D01*
X137922095Y-135024762D02*
X138064952Y-135072381D01*
X138303048Y-135072381D01*
X138398286Y-135024762D01*
X138445905Y-134977143D01*
X138493524Y-134881905D01*
X138493524Y-134786667D01*
X138445905Y-134691429D01*
X138398286Y-134643810D01*
X138303048Y-134596190D01*
X138112571Y-134548571D01*
X138017333Y-134500952D01*
X137969714Y-134453333D01*
X137922095Y-134358095D01*
X137922095Y-134262857D01*
X137969714Y-134167619D01*
X138017333Y-134120000D01*
X138112571Y-134072381D01*
X138350667Y-134072381D01*
X138493524Y-134120000D01*
X139445905Y-135072381D02*
X138874476Y-135072381D01*
X139160190Y-135072381D02*
X139160190Y-134072381D01*
X139064952Y-134215238D01*
X138969714Y-134310476D01*
X138874476Y-134358095D01*
X126238095Y-135024762D02*
X126380952Y-135072381D01*
X126619048Y-135072381D01*
X126714286Y-135024762D01*
X126761905Y-134977143D01*
X126809524Y-134881905D01*
X126809524Y-134786667D01*
X126761905Y-134691429D01*
X126714286Y-134643810D01*
X126619048Y-134596190D01*
X126428571Y-134548571D01*
X126333333Y-134500952D01*
X126285714Y-134453333D01*
X126238095Y-134358095D01*
X126238095Y-134262857D01*
X126285714Y-134167619D01*
X126333333Y-134120000D01*
X126428571Y-134072381D01*
X126666667Y-134072381D01*
X126809524Y-134120000D01*
X127190476Y-134167619D02*
X127238095Y-134120000D01*
X127333333Y-134072381D01*
X127571429Y-134072381D01*
X127666667Y-134120000D01*
X127714286Y-134167619D01*
X127761905Y-134262857D01*
X127761905Y-134358095D01*
X127714286Y-134500952D01*
X127142857Y-135072381D01*
X127761905Y-135072381D01*
D13*
X111134000Y-106772000D02*
X111134000Y-105572000D01*
X112894000Y-105572000D02*
X112894000Y-106772000D01*
X119516000Y-106518000D02*
X119516000Y-105318000D01*
X121276000Y-105318000D02*
X121276000Y-106518000D01*
X94742000Y-105410000D02*
X94742000Y-102870000D01*
X94742000Y-102870000D02*
X92072000Y-102870000D01*
X92072000Y-105410000D02*
X92072000Y-143640000D01*
X92072000Y-100200000D02*
X92072000Y-102870000D01*
X107442000Y-102870000D02*
X110112000Y-102870000D01*
X107442000Y-102870000D02*
X107442000Y-140970000D01*
X107442000Y-140970000D02*
X110112000Y-140970000D01*
X94742000Y-105410000D02*
X92072000Y-105410000D01*
X94742000Y-105410000D02*
X94742000Y-140970000D01*
X94742000Y-140970000D02*
X92072000Y-140970000D01*
X92072000Y-143640000D02*
X110112000Y-143640000D01*
X110112000Y-143640000D02*
X110112000Y-100200000D01*
X110112000Y-100200000D02*
X92072000Y-100200000D01*
X124960000Y-113450000D02*
X123960000Y-113450000D01*
X123960000Y-115150000D02*
X124960000Y-115150000D01*
X132580000Y-113450000D02*
X131580000Y-113450000D01*
X131580000Y-115150000D02*
X132580000Y-115150000D01*
X116722000Y-106518000D02*
X116722000Y-105318000D01*
X118482000Y-105318000D02*
X118482000Y-106518000D01*
X113928000Y-106772000D02*
X113928000Y-105572000D01*
X115688000Y-105572000D02*
X115688000Y-106772000D01*
D14*
X134070000Y-111220000D02*
X122470000Y-111220000D01*
X122470000Y-102720000D02*
X134070000Y-102720000D01*
X134070000Y-111220000D02*
X134070000Y-102720000D01*
X122470000Y-111220000D02*
X122470000Y-102720000D01*
D15*
G36*
X140484483Y-100110705D02*
X140532615Y-100122425D01*
X140575790Y-100142407D01*
X140613351Y-100169709D01*
X140644643Y-100203386D01*
X140669009Y-100242497D01*
X140685792Y-100286099D01*
X140694337Y-100333248D01*
X140693985Y-100383002D01*
X140690606Y-100406776D01*
X140679014Y-100445915D01*
X140659679Y-100484600D01*
X140634305Y-100520442D01*
X140604596Y-100551054D01*
X140572255Y-100574047D01*
X140570621Y-100574942D01*
X140530445Y-100591535D01*
X140485560Y-100601375D01*
X140439156Y-100604103D01*
X140394419Y-100599360D01*
X140381251Y-100596280D01*
X140337252Y-100579519D01*
X140298705Y-100555046D01*
X140266094Y-100524012D01*
X140239906Y-100487571D01*
X140220627Y-100446874D01*
X140208743Y-100403073D01*
X140204739Y-100357320D01*
X140204918Y-100355400D01*
X140266428Y-100355400D01*
X140266715Y-100380749D01*
X140267922Y-100399037D01*
X140270567Y-100413356D01*
X140275165Y-100426797D01*
X140280312Y-100438386D01*
X140300593Y-100474622D01*
X140324072Y-100502649D01*
X140349152Y-100522342D01*
X140387288Y-100540972D01*
X140428356Y-100550491D01*
X140470528Y-100550768D01*
X140511978Y-100541668D01*
X140527930Y-100535380D01*
X140560131Y-100515812D01*
X140588946Y-100488348D01*
X140612233Y-100455173D01*
X140618565Y-100442867D01*
X140624733Y-100428659D01*
X140628711Y-100415748D01*
X140630966Y-100401218D01*
X140631966Y-100382151D01*
X140632180Y-100357940D01*
X140631940Y-100332236D01*
X140630888Y-100313692D01*
X140628523Y-100299311D01*
X140624347Y-100286097D01*
X140617857Y-100271053D01*
X140617579Y-100270450D01*
X140599717Y-100240866D01*
X140575244Y-100212840D01*
X140547150Y-100189397D01*
X140524233Y-100176046D01*
X140510281Y-100170532D01*
X140495519Y-100167137D01*
X140476911Y-100165411D01*
X140451418Y-100164901D01*
X140449300Y-100164900D01*
X140424626Y-100165209D01*
X140406916Y-100166515D01*
X140392981Y-100169379D01*
X140379633Y-100174366D01*
X140369927Y-100178931D01*
X140340059Y-100198254D01*
X140312267Y-100224855D01*
X140289282Y-100255874D01*
X140280038Y-100273012D01*
X140273713Y-100287662D01*
X140269699Y-100301011D01*
X140267487Y-100316131D01*
X140266571Y-100336097D01*
X140266428Y-100355400D01*
X140204918Y-100355400D01*
X140209101Y-100310767D01*
X140222316Y-100264567D01*
X140232081Y-100242582D01*
X140258177Y-100201286D01*
X140291165Y-100166749D01*
X140329832Y-100139605D01*
X140372965Y-100120487D01*
X140419351Y-100110031D01*
X140467775Y-100108871D01*
X140484483Y-100110705D01*
X140484483Y-100110705D01*
G37*
X140484483Y-100110705D02*
X140532615Y-100122425D01*
X140575790Y-100142407D01*
X140613351Y-100169709D01*
X140644643Y-100203386D01*
X140669009Y-100242497D01*
X140685792Y-100286099D01*
X140694337Y-100333248D01*
X140693985Y-100383002D01*
X140690606Y-100406776D01*
X140679014Y-100445915D01*
X140659679Y-100484600D01*
X140634305Y-100520442D01*
X140604596Y-100551054D01*
X140572255Y-100574047D01*
X140570621Y-100574942D01*
X140530445Y-100591535D01*
X140485560Y-100601375D01*
X140439156Y-100604103D01*
X140394419Y-100599360D01*
X140381251Y-100596280D01*
X140337252Y-100579519D01*
X140298705Y-100555046D01*
X140266094Y-100524012D01*
X140239906Y-100487571D01*
X140220627Y-100446874D01*
X140208743Y-100403073D01*
X140204739Y-100357320D01*
X140204918Y-100355400D01*
X140266428Y-100355400D01*
X140266715Y-100380749D01*
X140267922Y-100399037D01*
X140270567Y-100413356D01*
X140275165Y-100426797D01*
X140280312Y-100438386D01*
X140300593Y-100474622D01*
X140324072Y-100502649D01*
X140349152Y-100522342D01*
X140387288Y-100540972D01*
X140428356Y-100550491D01*
X140470528Y-100550768D01*
X140511978Y-100541668D01*
X140527930Y-100535380D01*
X140560131Y-100515812D01*
X140588946Y-100488348D01*
X140612233Y-100455173D01*
X140618565Y-100442867D01*
X140624733Y-100428659D01*
X140628711Y-100415748D01*
X140630966Y-100401218D01*
X140631966Y-100382151D01*
X140632180Y-100357940D01*
X140631940Y-100332236D01*
X140630888Y-100313692D01*
X140628523Y-100299311D01*
X140624347Y-100286097D01*
X140617857Y-100271053D01*
X140617579Y-100270450D01*
X140599717Y-100240866D01*
X140575244Y-100212840D01*
X140547150Y-100189397D01*
X140524233Y-100176046D01*
X140510281Y-100170532D01*
X140495519Y-100167137D01*
X140476911Y-100165411D01*
X140451418Y-100164901D01*
X140449300Y-100164900D01*
X140424626Y-100165209D01*
X140406916Y-100166515D01*
X140392981Y-100169379D01*
X140379633Y-100174366D01*
X140369927Y-100178931D01*
X140340059Y-100198254D01*
X140312267Y-100224855D01*
X140289282Y-100255874D01*
X140280038Y-100273012D01*
X140273713Y-100287662D01*
X140269699Y-100301011D01*
X140267487Y-100316131D01*
X140266571Y-100336097D01*
X140266428Y-100355400D01*
X140204918Y-100355400D01*
X140209101Y-100310767D01*
X140222316Y-100264567D01*
X140232081Y-100242582D01*
X140258177Y-100201286D01*
X140291165Y-100166749D01*
X140329832Y-100139605D01*
X140372965Y-100120487D01*
X140419351Y-100110031D01*
X140467775Y-100108871D01*
X140484483Y-100110705D01*
G36*
X141053697Y-100111833D02*
X141097559Y-100123926D01*
X141138489Y-100144265D01*
X141168609Y-100166980D01*
X141190980Y-100187066D01*
X141172269Y-100206038D01*
X141161122Y-100216902D01*
X141154061Y-100221423D01*
X141148153Y-100220599D01*
X141141789Y-100216401D01*
X141109044Y-100193936D01*
X141080614Y-100178221D01*
X141054067Y-100168407D01*
X141026973Y-100163646D01*
X140996902Y-100163089D01*
X140990047Y-100163422D01*
X140949855Y-100169526D01*
X140915176Y-100183415D01*
X140884030Y-100206033D01*
X140869063Y-100221021D01*
X140847103Y-100248861D01*
X140832385Y-100277481D01*
X140823950Y-100309546D01*
X140820841Y-100347723D01*
X140820772Y-100355400D01*
X140823284Y-100396255D01*
X140831399Y-100430919D01*
X140845986Y-100462188D01*
X140860623Y-100483699D01*
X140887253Y-100510642D01*
X140920431Y-100531687D01*
X140957818Y-100545856D01*
X140997073Y-100552172D01*
X141023095Y-100551541D01*
X141055742Y-100544483D01*
X141089770Y-100530985D01*
X141120825Y-100512996D01*
X141136142Y-100500928D01*
X141156251Y-100482761D01*
X141175163Y-100502130D01*
X141194076Y-100521498D01*
X141174923Y-100538315D01*
X141134507Y-100568553D01*
X141092458Y-100589216D01*
X141047234Y-100600888D01*
X141001214Y-100604188D01*
X140968604Y-100602632D01*
X140940698Y-100597670D01*
X140923120Y-100592409D01*
X140879738Y-100572633D01*
X140842458Y-100545656D01*
X140811622Y-100512646D01*
X140787571Y-100474769D01*
X140770646Y-100433193D01*
X140761189Y-100389086D01*
X140759541Y-100343616D01*
X140766044Y-100297949D01*
X140781039Y-100253254D01*
X140804867Y-100210698D01*
X140809581Y-100204086D01*
X140840799Y-100169834D01*
X140877724Y-100142934D01*
X140918916Y-100123535D01*
X140962936Y-100111786D01*
X141008343Y-100107836D01*
X141053697Y-100111833D01*
X141053697Y-100111833D01*
G37*
X141053697Y-100111833D02*
X141097559Y-100123926D01*
X141138489Y-100144265D01*
X141168609Y-100166980D01*
X141190980Y-100187066D01*
X141172269Y-100206038D01*
X141161122Y-100216902D01*
X141154061Y-100221423D01*
X141148153Y-100220599D01*
X141141789Y-100216401D01*
X141109044Y-100193936D01*
X141080614Y-100178221D01*
X141054067Y-100168407D01*
X141026973Y-100163646D01*
X140996902Y-100163089D01*
X140990047Y-100163422D01*
X140949855Y-100169526D01*
X140915176Y-100183415D01*
X140884030Y-100206033D01*
X140869063Y-100221021D01*
X140847103Y-100248861D01*
X140832385Y-100277481D01*
X140823950Y-100309546D01*
X140820841Y-100347723D01*
X140820772Y-100355400D01*
X140823284Y-100396255D01*
X140831399Y-100430919D01*
X140845986Y-100462188D01*
X140860623Y-100483699D01*
X140887253Y-100510642D01*
X140920431Y-100531687D01*
X140957818Y-100545856D01*
X140997073Y-100552172D01*
X141023095Y-100551541D01*
X141055742Y-100544483D01*
X141089770Y-100530985D01*
X141120825Y-100512996D01*
X141136142Y-100500928D01*
X141156251Y-100482761D01*
X141175163Y-100502130D01*
X141194076Y-100521498D01*
X141174923Y-100538315D01*
X141134507Y-100568553D01*
X141092458Y-100589216D01*
X141047234Y-100600888D01*
X141001214Y-100604188D01*
X140968604Y-100602632D01*
X140940698Y-100597670D01*
X140923120Y-100592409D01*
X140879738Y-100572633D01*
X140842458Y-100545656D01*
X140811622Y-100512646D01*
X140787571Y-100474769D01*
X140770646Y-100433193D01*
X140761189Y-100389086D01*
X140759541Y-100343616D01*
X140766044Y-100297949D01*
X140781039Y-100253254D01*
X140804867Y-100210698D01*
X140809581Y-100204086D01*
X140840799Y-100169834D01*
X140877724Y-100142934D01*
X140918916Y-100123535D01*
X140962936Y-100111786D01*
X141008343Y-100107836D01*
X141053697Y-100111833D01*
G36*
X139904494Y-100116722D02*
X139935811Y-100117036D01*
X139960062Y-100117682D01*
X139978795Y-100118760D01*
X139993555Y-100120370D01*
X140005891Y-100122611D01*
X140017348Y-100125584D01*
X140021300Y-100126774D01*
X140057374Y-100142510D01*
X140085984Y-100164822D01*
X140106674Y-100193109D01*
X140118989Y-100226767D01*
X140122536Y-100260474D01*
X140117913Y-100298243D01*
X140104442Y-100331468D01*
X140082724Y-100359343D01*
X140053358Y-100381064D01*
X140023025Y-100394027D01*
X139995717Y-100402635D01*
X140065413Y-100494587D01*
X140085649Y-100521346D01*
X140103906Y-100545605D01*
X140119258Y-100566122D01*
X140130776Y-100581655D01*
X140137533Y-100590962D01*
X140138834Y-100592890D01*
X140138409Y-100596362D01*
X140131129Y-100598313D01*
X140115605Y-100599016D01*
X140107969Y-100599019D01*
X140073380Y-100598799D01*
X140003483Y-100505039D01*
X139933586Y-100411280D01*
X139801829Y-100411280D01*
X139800444Y-100503990D01*
X139799060Y-100596700D01*
X139773464Y-100598198D01*
X139758070Y-100598397D01*
X139747125Y-100597246D01*
X139744254Y-100596081D01*
X139743523Y-100590419D01*
X139742841Y-100575610D01*
X139742223Y-100552670D01*
X139741686Y-100522612D01*
X139741244Y-100486451D01*
X139740912Y-100445199D01*
X139740706Y-100399872D01*
X139740650Y-100361286D01*
X139801600Y-100361286D01*
X139894310Y-100359613D01*
X139927748Y-100358918D01*
X139952804Y-100358073D01*
X139971253Y-100356874D01*
X139984873Y-100355111D01*
X139995439Y-100352579D01*
X140004728Y-100349071D01*
X140011288Y-100345989D01*
X140036512Y-100328797D01*
X140053994Y-100307023D01*
X140063762Y-100282378D01*
X140065844Y-100256569D01*
X140060269Y-100231308D01*
X140047064Y-100208303D01*
X140026258Y-100189264D01*
X140008545Y-100179772D01*
X139998235Y-100176285D01*
X139985046Y-100173623D01*
X139967344Y-100171626D01*
X139943498Y-100170134D01*
X139911874Y-100168985D01*
X139894310Y-100168529D01*
X139801600Y-100166326D01*
X139801600Y-100361286D01*
X139740650Y-100361286D01*
X139740640Y-100354553D01*
X139740640Y-100116640D01*
X139864564Y-100116640D01*
X139904494Y-100116722D01*
X139904494Y-100116722D01*
G37*
X139904494Y-100116722D02*
X139935811Y-100117036D01*
X139960062Y-100117682D01*
X139978795Y-100118760D01*
X139993555Y-100120370D01*
X140005891Y-100122611D01*
X140017348Y-100125584D01*
X140021300Y-100126774D01*
X140057374Y-100142510D01*
X140085984Y-100164822D01*
X140106674Y-100193109D01*
X140118989Y-100226767D01*
X140122536Y-100260474D01*
X140117913Y-100298243D01*
X140104442Y-100331468D01*
X140082724Y-100359343D01*
X140053358Y-100381064D01*
X140023025Y-100394027D01*
X139995717Y-100402635D01*
X140065413Y-100494587D01*
X140085649Y-100521346D01*
X140103906Y-100545605D01*
X140119258Y-100566122D01*
X140130776Y-100581655D01*
X140137533Y-100590962D01*
X140138834Y-100592890D01*
X140138409Y-100596362D01*
X140131129Y-100598313D01*
X140115605Y-100599016D01*
X140107969Y-100599019D01*
X140073380Y-100598799D01*
X140003483Y-100505039D01*
X139933586Y-100411280D01*
X139801829Y-100411280D01*
X139800444Y-100503990D01*
X139799060Y-100596700D01*
X139773464Y-100598198D01*
X139758070Y-100598397D01*
X139747125Y-100597246D01*
X139744254Y-100596081D01*
X139743523Y-100590419D01*
X139742841Y-100575610D01*
X139742223Y-100552670D01*
X139741686Y-100522612D01*
X139741244Y-100486451D01*
X139740912Y-100445199D01*
X139740706Y-100399872D01*
X139740650Y-100361286D01*
X139801600Y-100361286D01*
X139894310Y-100359613D01*
X139927748Y-100358918D01*
X139952804Y-100358073D01*
X139971253Y-100356874D01*
X139984873Y-100355111D01*
X139995439Y-100352579D01*
X140004728Y-100349071D01*
X140011288Y-100345989D01*
X140036512Y-100328797D01*
X140053994Y-100307023D01*
X140063762Y-100282378D01*
X140065844Y-100256569D01*
X140060269Y-100231308D01*
X140047064Y-100208303D01*
X140026258Y-100189264D01*
X140008545Y-100179772D01*
X139998235Y-100176285D01*
X139985046Y-100173623D01*
X139967344Y-100171626D01*
X139943498Y-100170134D01*
X139911874Y-100168985D01*
X139894310Y-100168529D01*
X139801600Y-100166326D01*
X139801600Y-100361286D01*
X139740650Y-100361286D01*
X139740640Y-100354553D01*
X139740640Y-100116640D01*
X139864564Y-100116640D01*
X139904494Y-100116722D01*
G36*
X141610011Y-100196472D02*
X141585276Y-100221690D01*
X141561375Y-100246150D01*
X141539784Y-100268335D01*
X141521976Y-100286729D01*
X141509425Y-100299818D01*
X141507107Y-100302268D01*
X141483012Y-100327877D01*
X141587126Y-100458867D01*
X141612235Y-100490488D01*
X141635341Y-100519645D01*
X141655676Y-100545365D01*
X141672474Y-100566678D01*
X141684970Y-100582610D01*
X141692397Y-100592192D01*
X141694139Y-100594548D01*
X141691050Y-100596954D01*
X141679761Y-100598613D01*
X141662225Y-100599239D01*
X141661997Y-100599240D01*
X141626954Y-100599240D01*
X141536476Y-100484940D01*
X141513184Y-100455648D01*
X141491897Y-100429132D01*
X141473433Y-100406392D01*
X141458613Y-100388427D01*
X141448254Y-100376237D01*
X141443176Y-100370822D01*
X141442853Y-100370640D01*
X141438318Y-100374045D01*
X141428054Y-100383388D01*
X141413449Y-100397357D01*
X141395894Y-100414640D01*
X141390274Y-100420260D01*
X141340840Y-100469881D01*
X141340840Y-100599240D01*
X141284960Y-100599240D01*
X141284960Y-100116640D01*
X141340679Y-100116640D01*
X141342029Y-100257181D01*
X141343380Y-100397722D01*
X141477922Y-100258451D01*
X141612465Y-100119180D01*
X141650642Y-100117732D01*
X141688820Y-100116284D01*
X141610011Y-100196472D01*
X141610011Y-100196472D01*
G37*
X141610011Y-100196472D02*
X141585276Y-100221690D01*
X141561375Y-100246150D01*
X141539784Y-100268335D01*
X141521976Y-100286729D01*
X141509425Y-100299818D01*
X141507107Y-100302268D01*
X141483012Y-100327877D01*
X141587126Y-100458867D01*
X141612235Y-100490488D01*
X141635341Y-100519645D01*
X141655676Y-100545365D01*
X141672474Y-100566678D01*
X141684970Y-100582610D01*
X141692397Y-100592192D01*
X141694139Y-100594548D01*
X141691050Y-100596954D01*
X141679761Y-100598613D01*
X141662225Y-100599239D01*
X141661997Y-100599240D01*
X141626954Y-100599240D01*
X141536476Y-100484940D01*
X141513184Y-100455648D01*
X141491897Y-100429132D01*
X141473433Y-100406392D01*
X141458613Y-100388427D01*
X141448254Y-100376237D01*
X141443176Y-100370822D01*
X141442853Y-100370640D01*
X141438318Y-100374045D01*
X141428054Y-100383388D01*
X141413449Y-100397357D01*
X141395894Y-100414640D01*
X141390274Y-100420260D01*
X141340840Y-100469881D01*
X141340840Y-100599240D01*
X141284960Y-100599240D01*
X141284960Y-100116640D01*
X141340679Y-100116640D01*
X141342029Y-100257181D01*
X141343380Y-100397722D01*
X141477922Y-100258451D01*
X141612465Y-100119180D01*
X141650642Y-100117732D01*
X141688820Y-100116284D01*
X141610011Y-100196472D01*
G36*
X142128240Y-100167440D02*
X141833600Y-100167440D01*
X141833600Y-100330000D01*
X142098316Y-100330000D01*
X142095220Y-100378260D01*
X141964410Y-100379615D01*
X141833600Y-100380971D01*
X141833600Y-100543360D01*
X142128240Y-100543360D01*
X142128240Y-100599240D01*
X141777720Y-100599240D01*
X141777720Y-100116640D01*
X142128240Y-100116640D01*
X142128240Y-100167440D01*
X142128240Y-100167440D01*
G37*
X142128240Y-100167440D02*
X141833600Y-100167440D01*
X141833600Y-100330000D01*
X142098316Y-100330000D01*
X142095220Y-100378260D01*
X141964410Y-100379615D01*
X141833600Y-100380971D01*
X141833600Y-100543360D01*
X142128240Y-100543360D01*
X142128240Y-100599240D01*
X141777720Y-100599240D01*
X141777720Y-100116640D01*
X142128240Y-100116640D01*
X142128240Y-100167440D01*
G36*
X142580360Y-100167440D02*
X142417800Y-100167440D01*
X142417800Y-100599240D01*
X142361920Y-100599240D01*
X142361920Y-100167440D01*
X142199360Y-100167440D01*
X142199360Y-100116640D01*
X142580360Y-100116640D01*
X142580360Y-100167440D01*
X142580360Y-100167440D01*
G37*
X142580360Y-100167440D02*
X142417800Y-100167440D01*
X142417800Y-100599240D01*
X142361920Y-100599240D01*
X142361920Y-100167440D01*
X142199360Y-100167440D01*
X142199360Y-100116640D01*
X142580360Y-100116640D01*
X142580360Y-100167440D01*
G36*
X142848112Y-100116906D02*
X142886619Y-100117877D01*
X142917676Y-100119811D01*
X142942632Y-100122966D01*
X142962839Y-100127599D01*
X142979646Y-100133970D01*
X142994403Y-100142337D01*
X143008460Y-100152957D01*
X143013529Y-100157311D01*
X143036957Y-100182578D01*
X143051552Y-100210266D01*
X143058318Y-100242619D01*
X143059075Y-100259133D01*
X143054669Y-100296948D01*
X143041382Y-100330353D01*
X143019857Y-100358477D01*
X142990735Y-100380449D01*
X142959612Y-100393918D01*
X142932650Y-100402417D01*
X143005425Y-100498988D01*
X143025814Y-100526118D01*
X143043999Y-100550457D01*
X143059136Y-100570864D01*
X143070384Y-100586201D01*
X143076900Y-100595329D01*
X143078200Y-100597399D01*
X143073557Y-100598291D01*
X143061372Y-100598873D01*
X143044264Y-100599022D01*
X143043910Y-100599019D01*
X143009620Y-100598799D01*
X142939723Y-100505039D01*
X142869826Y-100411280D01*
X142738069Y-100411280D01*
X142736684Y-100503990D01*
X142735300Y-100596700D01*
X142709704Y-100598198D01*
X142694310Y-100598397D01*
X142683365Y-100597246D01*
X142680494Y-100596081D01*
X142679763Y-100590419D01*
X142679081Y-100575610D01*
X142678463Y-100552670D01*
X142677926Y-100522612D01*
X142677484Y-100486451D01*
X142677152Y-100445199D01*
X142676946Y-100399872D01*
X142676890Y-100361286D01*
X142737840Y-100361286D01*
X142830550Y-100359612D01*
X142864461Y-100358881D01*
X142889978Y-100357959D01*
X142908868Y-100356657D01*
X142922895Y-100354784D01*
X142933826Y-100352151D01*
X142943428Y-100348566D01*
X142946671Y-100347112D01*
X142971795Y-100330711D01*
X142989364Y-100309409D01*
X142999399Y-100284962D01*
X143001920Y-100259123D01*
X142996945Y-100233645D01*
X142984496Y-100210284D01*
X142964591Y-100190793D01*
X142944785Y-100179772D01*
X142934475Y-100176285D01*
X142921286Y-100173623D01*
X142903584Y-100171626D01*
X142879738Y-100170134D01*
X142848114Y-100168985D01*
X142830550Y-100168529D01*
X142737840Y-100166326D01*
X142737840Y-100361286D01*
X142676890Y-100361286D01*
X142676880Y-100354553D01*
X142676880Y-100116640D01*
X142800804Y-100116640D01*
X142848112Y-100116906D01*
X142848112Y-100116906D01*
G37*
X142848112Y-100116906D02*
X142886619Y-100117877D01*
X142917676Y-100119811D01*
X142942632Y-100122966D01*
X142962839Y-100127599D01*
X142979646Y-100133970D01*
X142994403Y-100142337D01*
X143008460Y-100152957D01*
X143013529Y-100157311D01*
X143036957Y-100182578D01*
X143051552Y-100210266D01*
X143058318Y-100242619D01*
X143059075Y-100259133D01*
X143054669Y-100296948D01*
X143041382Y-100330353D01*
X143019857Y-100358477D01*
X142990735Y-100380449D01*
X142959612Y-100393918D01*
X142932650Y-100402417D01*
X143005425Y-100498988D01*
X143025814Y-100526118D01*
X143043999Y-100550457D01*
X143059136Y-100570864D01*
X143070384Y-100586201D01*
X143076900Y-100595329D01*
X143078200Y-100597399D01*
X143073557Y-100598291D01*
X143061372Y-100598873D01*
X143044264Y-100599022D01*
X143043910Y-100599019D01*
X143009620Y-100598799D01*
X142939723Y-100505039D01*
X142869826Y-100411280D01*
X142738069Y-100411280D01*
X142736684Y-100503990D01*
X142735300Y-100596700D01*
X142709704Y-100598198D01*
X142694310Y-100598397D01*
X142683365Y-100597246D01*
X142680494Y-100596081D01*
X142679763Y-100590419D01*
X142679081Y-100575610D01*
X142678463Y-100552670D01*
X142677926Y-100522612D01*
X142677484Y-100486451D01*
X142677152Y-100445199D01*
X142676946Y-100399872D01*
X142676890Y-100361286D01*
X142737840Y-100361286D01*
X142830550Y-100359612D01*
X142864461Y-100358881D01*
X142889978Y-100357959D01*
X142908868Y-100356657D01*
X142922895Y-100354784D01*
X142933826Y-100352151D01*
X142943428Y-100348566D01*
X142946671Y-100347112D01*
X142971795Y-100330711D01*
X142989364Y-100309409D01*
X142999399Y-100284962D01*
X143001920Y-100259123D01*
X142996945Y-100233645D01*
X142984496Y-100210284D01*
X142964591Y-100190793D01*
X142944785Y-100179772D01*
X142934475Y-100176285D01*
X142921286Y-100173623D01*
X142903584Y-100171626D01*
X142879738Y-100170134D01*
X142848114Y-100168985D01*
X142830550Y-100168529D01*
X142737840Y-100166326D01*
X142737840Y-100361286D01*
X142676890Y-100361286D01*
X142676880Y-100354553D01*
X142676880Y-100116640D01*
X142800804Y-100116640D01*
X142848112Y-100116906D01*
G36*
X143552906Y-100130610D02*
X143547823Y-100138180D01*
X143537749Y-100152963D01*
X143523468Y-100173813D01*
X143505767Y-100199584D01*
X143485432Y-100229132D01*
X143463248Y-100261313D01*
X143453261Y-100275783D01*
X143362680Y-100406987D01*
X143362680Y-100599240D01*
X143306800Y-100599240D01*
X143306800Y-100408639D01*
X143207740Y-100264997D01*
X143184457Y-100231163D01*
X143163121Y-100200018D01*
X143144393Y-100172539D01*
X143128935Y-100149702D01*
X143117409Y-100132483D01*
X143110475Y-100121859D01*
X143108680Y-100118765D01*
X143113312Y-100117667D01*
X143125457Y-100117276D01*
X143142487Y-100117677D01*
X143142506Y-100117677D01*
X143176333Y-100119180D01*
X143335109Y-100353858D01*
X143415950Y-100235249D01*
X143496792Y-100116640D01*
X143561968Y-100116640D01*
X143552906Y-100130610D01*
X143552906Y-100130610D01*
G37*
X143552906Y-100130610D02*
X143547823Y-100138180D01*
X143537749Y-100152963D01*
X143523468Y-100173813D01*
X143505767Y-100199584D01*
X143485432Y-100229132D01*
X143463248Y-100261313D01*
X143453261Y-100275783D01*
X143362680Y-100406987D01*
X143362680Y-100599240D01*
X143306800Y-100599240D01*
X143306800Y-100408639D01*
X143207740Y-100264997D01*
X143184457Y-100231163D01*
X143163121Y-100200018D01*
X143144393Y-100172539D01*
X143128935Y-100149702D01*
X143117409Y-100132483D01*
X143110475Y-100121859D01*
X143108680Y-100118765D01*
X143113312Y-100117667D01*
X143125457Y-100117276D01*
X143142487Y-100117677D01*
X143142506Y-100117677D01*
X143176333Y-100119180D01*
X143335109Y-100353858D01*
X143415950Y-100235249D01*
X143496792Y-100116640D01*
X143561968Y-100116640D01*
X143552906Y-100130610D01*
G36*
X142910954Y-99495711D02*
X142938523Y-99504324D01*
X142984228Y-99526578D01*
X143023222Y-99555920D01*
X143054943Y-99591405D01*
X143078828Y-99632087D01*
X143094314Y-99677023D01*
X143100837Y-99725267D01*
X143098339Y-99772473D01*
X143086798Y-99818844D01*
X143066402Y-99861725D01*
X143038177Y-99899985D01*
X143003151Y-99932493D01*
X142962350Y-99958118D01*
X142916801Y-99975728D01*
X142912888Y-99976781D01*
X142883477Y-99981879D01*
X142849133Y-99983901D01*
X142814253Y-99982849D01*
X142783236Y-99978724D01*
X142774743Y-99976728D01*
X142731806Y-99960308D01*
X142691204Y-99935566D01*
X142655293Y-99904278D01*
X142626431Y-99868222D01*
X142622485Y-99861897D01*
X142603682Y-99821012D01*
X142593067Y-99776145D01*
X142590970Y-99735640D01*
X142705442Y-99735640D01*
X142707053Y-99766929D01*
X142712269Y-99791597D01*
X142722236Y-99812878D01*
X142738101Y-99834009D01*
X142741765Y-99838150D01*
X142768869Y-99860975D01*
X142800948Y-99876167D01*
X142835828Y-99883314D01*
X142871339Y-99882006D01*
X142905309Y-99871832D01*
X142909443Y-99869865D01*
X142940157Y-99849295D01*
X142963197Y-99822154D01*
X142978384Y-99788725D01*
X142985540Y-99749293D01*
X142985649Y-99747725D01*
X142984430Y-99708231D01*
X142974977Y-99674032D01*
X142956926Y-99643997D01*
X142949461Y-99635281D01*
X142927915Y-99614603D01*
X142906856Y-99601224D01*
X142883161Y-99593826D01*
X142853709Y-99591091D01*
X142844520Y-99590981D01*
X142812465Y-99592818D01*
X142787140Y-99599075D01*
X142765668Y-99610872D01*
X142745169Y-99629327D01*
X142744737Y-99629784D01*
X142725111Y-99654205D01*
X142712808Y-99679248D01*
X142706677Y-99708013D01*
X142705442Y-99735640D01*
X142590970Y-99735640D01*
X142590643Y-99729333D01*
X142596412Y-99682612D01*
X142610377Y-99638019D01*
X142622194Y-99614000D01*
X142649852Y-99575248D01*
X142684326Y-99542988D01*
X142724245Y-99517695D01*
X142768238Y-99499846D01*
X142814934Y-99489916D01*
X142862963Y-99488379D01*
X142910954Y-99495711D01*
X142910954Y-99495711D01*
G37*
X142910954Y-99495711D02*
X142938523Y-99504324D01*
X142984228Y-99526578D01*
X143023222Y-99555920D01*
X143054943Y-99591405D01*
X143078828Y-99632087D01*
X143094314Y-99677023D01*
X143100837Y-99725267D01*
X143098339Y-99772473D01*
X143086798Y-99818844D01*
X143066402Y-99861725D01*
X143038177Y-99899985D01*
X143003151Y-99932493D01*
X142962350Y-99958118D01*
X142916801Y-99975728D01*
X142912888Y-99976781D01*
X142883477Y-99981879D01*
X142849133Y-99983901D01*
X142814253Y-99982849D01*
X142783236Y-99978724D01*
X142774743Y-99976728D01*
X142731806Y-99960308D01*
X142691204Y-99935566D01*
X142655293Y-99904278D01*
X142626431Y-99868222D01*
X142622485Y-99861897D01*
X142603682Y-99821012D01*
X142593067Y-99776145D01*
X142590970Y-99735640D01*
X142705442Y-99735640D01*
X142707053Y-99766929D01*
X142712269Y-99791597D01*
X142722236Y-99812878D01*
X142738101Y-99834009D01*
X142741765Y-99838150D01*
X142768869Y-99860975D01*
X142800948Y-99876167D01*
X142835828Y-99883314D01*
X142871339Y-99882006D01*
X142905309Y-99871832D01*
X142909443Y-99869865D01*
X142940157Y-99849295D01*
X142963197Y-99822154D01*
X142978384Y-99788725D01*
X142985540Y-99749293D01*
X142985649Y-99747725D01*
X142984430Y-99708231D01*
X142974977Y-99674032D01*
X142956926Y-99643997D01*
X142949461Y-99635281D01*
X142927915Y-99614603D01*
X142906856Y-99601224D01*
X142883161Y-99593826D01*
X142853709Y-99591091D01*
X142844520Y-99590981D01*
X142812465Y-99592818D01*
X142787140Y-99599075D01*
X142765668Y-99610872D01*
X142745169Y-99629327D01*
X142744737Y-99629784D01*
X142725111Y-99654205D01*
X142712808Y-99679248D01*
X142706677Y-99708013D01*
X142705442Y-99735640D01*
X142590970Y-99735640D01*
X142590643Y-99729333D01*
X142596412Y-99682612D01*
X142610377Y-99638019D01*
X142622194Y-99614000D01*
X142649852Y-99575248D01*
X142684326Y-99542988D01*
X142724245Y-99517695D01*
X142768238Y-99499846D01*
X142814934Y-99489916D01*
X142862963Y-99488379D01*
X142910954Y-99495711D01*
G36*
X143473505Y-99491338D02*
X143520534Y-99504648D01*
X143563557Y-99525834D01*
X143601523Y-99554079D01*
X143633383Y-99588569D01*
X143658086Y-99628486D01*
X143674583Y-99673015D01*
X143677106Y-99683820D01*
X143682494Y-99733058D01*
X143678389Y-99780786D01*
X143665449Y-99825962D01*
X143644331Y-99867543D01*
X143615690Y-99904489D01*
X143580184Y-99935756D01*
X143538469Y-99960303D01*
X143492422Y-99976779D01*
X143461185Y-99982052D01*
X143425152Y-99983850D01*
X143389082Y-99982153D01*
X143359303Y-99977333D01*
X143313652Y-99961313D01*
X143272969Y-99937241D01*
X143238025Y-99906266D01*
X143209592Y-99869535D01*
X143188443Y-99828197D01*
X143175347Y-99783400D01*
X143172814Y-99755441D01*
X143287231Y-99755441D01*
X143292307Y-99785753D01*
X143293748Y-99790461D01*
X143309205Y-99821635D01*
X143332618Y-99848556D01*
X143361980Y-99868944D01*
X143363689Y-99869811D01*
X143395750Y-99880557D01*
X143430874Y-99883505D01*
X143465576Y-99878627D01*
X143487140Y-99870832D01*
X143518982Y-99850543D01*
X143543209Y-99823796D01*
X143559365Y-99791344D01*
X143566995Y-99753937D01*
X143567561Y-99738180D01*
X143563257Y-99697341D01*
X143550944Y-99662696D01*
X143530492Y-99634023D01*
X143501772Y-99611102D01*
X143488681Y-99603863D01*
X143453687Y-99591503D01*
X143418305Y-99588357D01*
X143384100Y-99593932D01*
X143352636Y-99607737D01*
X143325476Y-99629280D01*
X143304185Y-99658071D01*
X143301790Y-99662595D01*
X143292229Y-99689794D01*
X143287290Y-99722099D01*
X143287231Y-99755441D01*
X143172814Y-99755441D01*
X143171078Y-99736290D01*
X143173915Y-99701504D01*
X143185980Y-99655224D01*
X143206755Y-99611559D01*
X143235019Y-99572341D01*
X143269554Y-99539402D01*
X143292395Y-99523643D01*
X143317113Y-99511578D01*
X143347632Y-99500762D01*
X143379872Y-99492343D01*
X143409751Y-99487471D01*
X143423519Y-99486720D01*
X143473505Y-99491338D01*
X143473505Y-99491338D01*
G37*
X143473505Y-99491338D02*
X143520534Y-99504648D01*
X143563557Y-99525834D01*
X143601523Y-99554079D01*
X143633383Y-99588569D01*
X143658086Y-99628486D01*
X143674583Y-99673015D01*
X143677106Y-99683820D01*
X143682494Y-99733058D01*
X143678389Y-99780786D01*
X143665449Y-99825962D01*
X143644331Y-99867543D01*
X143615690Y-99904489D01*
X143580184Y-99935756D01*
X143538469Y-99960303D01*
X143492422Y-99976779D01*
X143461185Y-99982052D01*
X143425152Y-99983850D01*
X143389082Y-99982153D01*
X143359303Y-99977333D01*
X143313652Y-99961313D01*
X143272969Y-99937241D01*
X143238025Y-99906266D01*
X143209592Y-99869535D01*
X143188443Y-99828197D01*
X143175347Y-99783400D01*
X143172814Y-99755441D01*
X143287231Y-99755441D01*
X143292307Y-99785753D01*
X143293748Y-99790461D01*
X143309205Y-99821635D01*
X143332618Y-99848556D01*
X143361980Y-99868944D01*
X143363689Y-99869811D01*
X143395750Y-99880557D01*
X143430874Y-99883505D01*
X143465576Y-99878627D01*
X143487140Y-99870832D01*
X143518982Y-99850543D01*
X143543209Y-99823796D01*
X143559365Y-99791344D01*
X143566995Y-99753937D01*
X143567561Y-99738180D01*
X143563257Y-99697341D01*
X143550944Y-99662696D01*
X143530492Y-99634023D01*
X143501772Y-99611102D01*
X143488681Y-99603863D01*
X143453687Y-99591503D01*
X143418305Y-99588357D01*
X143384100Y-99593932D01*
X143352636Y-99607737D01*
X143325476Y-99629280D01*
X143304185Y-99658071D01*
X143301790Y-99662595D01*
X143292229Y-99689794D01*
X143287290Y-99722099D01*
X143287231Y-99755441D01*
X143172814Y-99755441D01*
X143171078Y-99736290D01*
X143173915Y-99701504D01*
X143185980Y-99655224D01*
X143206755Y-99611559D01*
X143235019Y-99572341D01*
X143269554Y-99539402D01*
X143292395Y-99523643D01*
X143317113Y-99511578D01*
X143347632Y-99500762D01*
X143379872Y-99492343D01*
X143409751Y-99487471D01*
X143423519Y-99486720D01*
X143473505Y-99491338D01*
G36*
X139924158Y-99492885D02*
X139969607Y-99494340D01*
X140021363Y-99650550D01*
X140033957Y-99688288D01*
X140045630Y-99722744D01*
X140055982Y-99752781D01*
X140064616Y-99777262D01*
X140071132Y-99795052D01*
X140075131Y-99805013D01*
X140076164Y-99806760D01*
X140078333Y-99802088D01*
X140083056Y-99788841D01*
X140089960Y-99768174D01*
X140098667Y-99741241D01*
X140108804Y-99709194D01*
X140119995Y-99673189D01*
X140126554Y-99651820D01*
X140173899Y-99496880D01*
X140229049Y-99496880D01*
X140251356Y-99497207D01*
X140269353Y-99498093D01*
X140280972Y-99499397D01*
X140284290Y-99500690D01*
X140282732Y-99506117D01*
X140278227Y-99520231D01*
X140271086Y-99542097D01*
X140261620Y-99570776D01*
X140250138Y-99605334D01*
X140236951Y-99644833D01*
X140222369Y-99688336D01*
X140206704Y-99734908D01*
X140204280Y-99742098D01*
X140124180Y-99979697D01*
X140076154Y-99978318D01*
X140028128Y-99976940D01*
X139976105Y-99827080D01*
X139963283Y-99790112D01*
X139951574Y-99756297D01*
X139941384Y-99726810D01*
X139933119Y-99702828D01*
X139927184Y-99685526D01*
X139923984Y-99676079D01*
X139923539Y-99674680D01*
X139921648Y-99678129D01*
X139916587Y-99691066D01*
X139908408Y-99713341D01*
X139897165Y-99744805D01*
X139882910Y-99785312D01*
X139865698Y-99834711D01*
X139850312Y-99879150D01*
X139815654Y-99979480D01*
X139721220Y-99979480D01*
X139703592Y-99927410D01*
X139682754Y-99865881D01*
X139662714Y-99806756D01*
X139643726Y-99750780D01*
X139626043Y-99698696D01*
X139609917Y-99651248D01*
X139595602Y-99609179D01*
X139583351Y-99573235D01*
X139573417Y-99544159D01*
X139566053Y-99522695D01*
X139561512Y-99509586D01*
X139560144Y-99505770D01*
X139559437Y-99501950D01*
X139561922Y-99499410D01*
X139569191Y-99497892D01*
X139582832Y-99497138D01*
X139604435Y-99496893D01*
X139615124Y-99496880D01*
X139673576Y-99496880D01*
X139684119Y-99531170D01*
X139688609Y-99545818D01*
X139695494Y-99568337D01*
X139704209Y-99596876D01*
X139714190Y-99629588D01*
X139724871Y-99664621D01*
X139731419Y-99686110D01*
X139741615Y-99719220D01*
X139750948Y-99748859D01*
X139758991Y-99773719D01*
X139765313Y-99792490D01*
X139769487Y-99803864D01*
X139770979Y-99806760D01*
X139773196Y-99802122D01*
X139778191Y-99788963D01*
X139785566Y-99768414D01*
X139794926Y-99741603D01*
X139805875Y-99709662D01*
X139818016Y-99673722D01*
X139826245Y-99649095D01*
X139878708Y-99491430D01*
X139924158Y-99492885D01*
X139924158Y-99492885D01*
G37*
X139924158Y-99492885D02*
X139969607Y-99494340D01*
X140021363Y-99650550D01*
X140033957Y-99688288D01*
X140045630Y-99722744D01*
X140055982Y-99752781D01*
X140064616Y-99777262D01*
X140071132Y-99795052D01*
X140075131Y-99805013D01*
X140076164Y-99806760D01*
X140078333Y-99802088D01*
X140083056Y-99788841D01*
X140089960Y-99768174D01*
X140098667Y-99741241D01*
X140108804Y-99709194D01*
X140119995Y-99673189D01*
X140126554Y-99651820D01*
X140173899Y-99496880D01*
X140229049Y-99496880D01*
X140251356Y-99497207D01*
X140269353Y-99498093D01*
X140280972Y-99499397D01*
X140284290Y-99500690D01*
X140282732Y-99506117D01*
X140278227Y-99520231D01*
X140271086Y-99542097D01*
X140261620Y-99570776D01*
X140250138Y-99605334D01*
X140236951Y-99644833D01*
X140222369Y-99688336D01*
X140206704Y-99734908D01*
X140204280Y-99742098D01*
X140124180Y-99979697D01*
X140076154Y-99978318D01*
X140028128Y-99976940D01*
X139976105Y-99827080D01*
X139963283Y-99790112D01*
X139951574Y-99756297D01*
X139941384Y-99726810D01*
X139933119Y-99702828D01*
X139927184Y-99685526D01*
X139923984Y-99676079D01*
X139923539Y-99674680D01*
X139921648Y-99678129D01*
X139916587Y-99691066D01*
X139908408Y-99713341D01*
X139897165Y-99744805D01*
X139882910Y-99785312D01*
X139865698Y-99834711D01*
X139850312Y-99879150D01*
X139815654Y-99979480D01*
X139721220Y-99979480D01*
X139703592Y-99927410D01*
X139682754Y-99865881D01*
X139662714Y-99806756D01*
X139643726Y-99750780D01*
X139626043Y-99698696D01*
X139609917Y-99651248D01*
X139595602Y-99609179D01*
X139583351Y-99573235D01*
X139573417Y-99544159D01*
X139566053Y-99522695D01*
X139561512Y-99509586D01*
X139560144Y-99505770D01*
X139559437Y-99501950D01*
X139561922Y-99499410D01*
X139569191Y-99497892D01*
X139582832Y-99497138D01*
X139604435Y-99496893D01*
X139615124Y-99496880D01*
X139673576Y-99496880D01*
X139684119Y-99531170D01*
X139688609Y-99545818D01*
X139695494Y-99568337D01*
X139704209Y-99596876D01*
X139714190Y-99629588D01*
X139724871Y-99664621D01*
X139731419Y-99686110D01*
X139741615Y-99719220D01*
X139750948Y-99748859D01*
X139758991Y-99773719D01*
X139765313Y-99792490D01*
X139769487Y-99803864D01*
X139770979Y-99806760D01*
X139773196Y-99802122D01*
X139778191Y-99788963D01*
X139785566Y-99768414D01*
X139794926Y-99741603D01*
X139805875Y-99709662D01*
X139818016Y-99673722D01*
X139826245Y-99649095D01*
X139878708Y-99491430D01*
X139924158Y-99492885D01*
G36*
X140652789Y-99726750D02*
X140672481Y-99772966D01*
X140690986Y-99816520D01*
X140707914Y-99856483D01*
X140722875Y-99891930D01*
X140735479Y-99921934D01*
X140745335Y-99945569D01*
X140752054Y-99961907D01*
X140755246Y-99970023D01*
X140755430Y-99970590D01*
X140755621Y-99974552D01*
X140752516Y-99977131D01*
X140744435Y-99978618D01*
X140729699Y-99979303D01*
X140706630Y-99979479D01*
X140704192Y-99979480D01*
X140676464Y-99978975D01*
X140658081Y-99977403D01*
X140648277Y-99974681D01*
X140646503Y-99973130D01*
X140642893Y-99965977D01*
X140636401Y-99951765D01*
X140628066Y-99932807D01*
X140621934Y-99918520D01*
X140601421Y-99870260D01*
X140501947Y-99868885D01*
X140402474Y-99867510D01*
X140357802Y-99976940D01*
X140302609Y-99978388D01*
X140278405Y-99978905D01*
X140262714Y-99978775D01*
X140253895Y-99977755D01*
X140250309Y-99975606D01*
X140250315Y-99972087D01*
X140250758Y-99970768D01*
X140253354Y-99964424D01*
X140259536Y-99949660D01*
X140268911Y-99927406D01*
X140281087Y-99898588D01*
X140295669Y-99864137D01*
X140312267Y-99824981D01*
X140330486Y-99782048D01*
X140335094Y-99771200D01*
X140441543Y-99771200D01*
X140562487Y-99771200D01*
X140534670Y-99703890D01*
X140524472Y-99679543D01*
X140515428Y-99658569D01*
X140508332Y-99642762D01*
X140503978Y-99633916D01*
X140503225Y-99632772D01*
X140500038Y-99635649D01*
X140494065Y-99646308D01*
X140486168Y-99663048D01*
X140477453Y-99683572D01*
X140467892Y-99707109D01*
X140459061Y-99728778D01*
X140452052Y-99745904D01*
X140448426Y-99754690D01*
X140441543Y-99771200D01*
X140335094Y-99771200D01*
X140349934Y-99736267D01*
X140353979Y-99726750D01*
X140453859Y-99491800D01*
X140552542Y-99491800D01*
X140652789Y-99726750D01*
X140652789Y-99726750D01*
G37*
X140652789Y-99726750D02*
X140672481Y-99772966D01*
X140690986Y-99816520D01*
X140707914Y-99856483D01*
X140722875Y-99891930D01*
X140735479Y-99921934D01*
X140745335Y-99945569D01*
X140752054Y-99961907D01*
X140755246Y-99970023D01*
X140755430Y-99970590D01*
X140755621Y-99974552D01*
X140752516Y-99977131D01*
X140744435Y-99978618D01*
X140729699Y-99979303D01*
X140706630Y-99979479D01*
X140704192Y-99979480D01*
X140676464Y-99978975D01*
X140658081Y-99977403D01*
X140648277Y-99974681D01*
X140646503Y-99973130D01*
X140642893Y-99965977D01*
X140636401Y-99951765D01*
X140628066Y-99932807D01*
X140621934Y-99918520D01*
X140601421Y-99870260D01*
X140501947Y-99868885D01*
X140402474Y-99867510D01*
X140357802Y-99976940D01*
X140302609Y-99978388D01*
X140278405Y-99978905D01*
X140262714Y-99978775D01*
X140253895Y-99977755D01*
X140250309Y-99975606D01*
X140250315Y-99972087D01*
X140250758Y-99970768D01*
X140253354Y-99964424D01*
X140259536Y-99949660D01*
X140268911Y-99927406D01*
X140281087Y-99898588D01*
X140295669Y-99864137D01*
X140312267Y-99824981D01*
X140330486Y-99782048D01*
X140335094Y-99771200D01*
X140441543Y-99771200D01*
X140562487Y-99771200D01*
X140534670Y-99703890D01*
X140524472Y-99679543D01*
X140515428Y-99658569D01*
X140508332Y-99642762D01*
X140503978Y-99633916D01*
X140503225Y-99632772D01*
X140500038Y-99635649D01*
X140494065Y-99646308D01*
X140486168Y-99663048D01*
X140477453Y-99683572D01*
X140467892Y-99707109D01*
X140459061Y-99728778D01*
X140452052Y-99745904D01*
X140448426Y-99754690D01*
X140441543Y-99771200D01*
X140335094Y-99771200D01*
X140349934Y-99736267D01*
X140353979Y-99726750D01*
X140453859Y-99491800D01*
X140552542Y-99491800D01*
X140652789Y-99726750D01*
G36*
X141157960Y-99593400D02*
X141010640Y-99593400D01*
X141010640Y-99979480D01*
X140903960Y-99979480D01*
X140903960Y-99593400D01*
X140756640Y-99593400D01*
X140756640Y-99496880D01*
X141157960Y-99496880D01*
X141157960Y-99593400D01*
X141157960Y-99593400D01*
G37*
X141157960Y-99593400D02*
X141010640Y-99593400D01*
X141010640Y-99979480D01*
X140903960Y-99979480D01*
X140903960Y-99593400D01*
X140756640Y-99593400D01*
X140756640Y-99496880D01*
X141157960Y-99496880D01*
X141157960Y-99593400D01*
G36*
X141599920Y-99593400D02*
X141340840Y-99593400D01*
X141340840Y-99684645D01*
X141453870Y-99686012D01*
X141566900Y-99687380D01*
X141568360Y-99734370D01*
X141569821Y-99781360D01*
X141340840Y-99781360D01*
X141340840Y-99877880D01*
X141599920Y-99877880D01*
X141599920Y-99979480D01*
X141420426Y-99979480D01*
X141378687Y-99979387D01*
X141340196Y-99979123D01*
X141306126Y-99978711D01*
X141277650Y-99978171D01*
X141255942Y-99977526D01*
X141242173Y-99976797D01*
X141237546Y-99976093D01*
X141236861Y-99970478D01*
X141236222Y-99955716D01*
X141235644Y-99932819D01*
X141235140Y-99902800D01*
X141234726Y-99866673D01*
X141234415Y-99825450D01*
X141234221Y-99780143D01*
X141234160Y-99734793D01*
X141234160Y-99496880D01*
X141599920Y-99496880D01*
X141599920Y-99593400D01*
X141599920Y-99593400D01*
G37*
X141599920Y-99593400D02*
X141340840Y-99593400D01*
X141340840Y-99684645D01*
X141453870Y-99686012D01*
X141566900Y-99687380D01*
X141568360Y-99734370D01*
X141569821Y-99781360D01*
X141340840Y-99781360D01*
X141340840Y-99877880D01*
X141599920Y-99877880D01*
X141599920Y-99979480D01*
X141420426Y-99979480D01*
X141378687Y-99979387D01*
X141340196Y-99979123D01*
X141306126Y-99978711D01*
X141277650Y-99978171D01*
X141255942Y-99977526D01*
X141242173Y-99976797D01*
X141237546Y-99976093D01*
X141236861Y-99970478D01*
X141236222Y-99955716D01*
X141235644Y-99932819D01*
X141235140Y-99902800D01*
X141234726Y-99866673D01*
X141234415Y-99825450D01*
X141234221Y-99780143D01*
X141234160Y-99734793D01*
X141234160Y-99496880D01*
X141599920Y-99496880D01*
X141599920Y-99593400D01*
G36*
X141863968Y-99496951D02*
X141896353Y-99497225D01*
X141921540Y-99497796D01*
X141941010Y-99498753D01*
X141956243Y-99500190D01*
X141968721Y-99502197D01*
X141979925Y-99504868D01*
X141987513Y-99507092D01*
X142021325Y-99522147D01*
X142050562Y-99544252D01*
X142073167Y-99571637D01*
X142082199Y-99588701D01*
X142089878Y-99615037D01*
X142093571Y-99646592D01*
X142093072Y-99679156D01*
X142088172Y-99708517D01*
X142088107Y-99708756D01*
X142075832Y-99736596D01*
X142055766Y-99762741D01*
X142030211Y-99784362D01*
X142022803Y-99788980D01*
X142009176Y-99797989D01*
X142000477Y-99805951D01*
X141998606Y-99810361D01*
X142002068Y-99816365D01*
X142010354Y-99829251D01*
X142022493Y-99847556D01*
X142037515Y-99869816D01*
X142052438Y-99891641D01*
X142069226Y-99916200D01*
X142084013Y-99938117D01*
X142095826Y-99955923D01*
X142103686Y-99968149D01*
X142106561Y-99973130D01*
X142105236Y-99975929D01*
X142097916Y-99977826D01*
X142083390Y-99978951D01*
X142060448Y-99979436D01*
X142047673Y-99979480D01*
X141986339Y-99979480D01*
X141934099Y-99902010D01*
X141881860Y-99824540D01*
X141842623Y-99823058D01*
X141803386Y-99821577D01*
X141801983Y-99899258D01*
X141800580Y-99976940D01*
X141749523Y-99978376D01*
X141727662Y-99978648D01*
X141709721Y-99978230D01*
X141698044Y-99977211D01*
X141694913Y-99976259D01*
X141694194Y-99970610D01*
X141693523Y-99955814D01*
X141692916Y-99932886D01*
X141692388Y-99902838D01*
X141691954Y-99866686D01*
X141691627Y-99825442D01*
X141691424Y-99780120D01*
X141691360Y-99734793D01*
X141691360Y-99726229D01*
X141803120Y-99726229D01*
X141876696Y-99724584D01*
X141950273Y-99722940D01*
X141966151Y-99707047D01*
X141979834Y-99686717D01*
X141985457Y-99662939D01*
X141982515Y-99638851D01*
X141978608Y-99629402D01*
X141969052Y-99615816D01*
X141955541Y-99605891D01*
X141936666Y-99599179D01*
X141911019Y-99595235D01*
X141877190Y-99593612D01*
X141865350Y-99593511D01*
X141803120Y-99593400D01*
X141803120Y-99726229D01*
X141691360Y-99726229D01*
X141691360Y-99496880D01*
X141822904Y-99496880D01*
X141863968Y-99496951D01*
X141863968Y-99496951D01*
G37*
X141863968Y-99496951D02*
X141896353Y-99497225D01*
X141921540Y-99497796D01*
X141941010Y-99498753D01*
X141956243Y-99500190D01*
X141968721Y-99502197D01*
X141979925Y-99504868D01*
X141987513Y-99507092D01*
X142021325Y-99522147D01*
X142050562Y-99544252D01*
X142073167Y-99571637D01*
X142082199Y-99588701D01*
X142089878Y-99615037D01*
X142093571Y-99646592D01*
X142093072Y-99679156D01*
X142088172Y-99708517D01*
X142088107Y-99708756D01*
X142075832Y-99736596D01*
X142055766Y-99762741D01*
X142030211Y-99784362D01*
X142022803Y-99788980D01*
X142009176Y-99797989D01*
X142000477Y-99805951D01*
X141998606Y-99810361D01*
X142002068Y-99816365D01*
X142010354Y-99829251D01*
X142022493Y-99847556D01*
X142037515Y-99869816D01*
X142052438Y-99891641D01*
X142069226Y-99916200D01*
X142084013Y-99938117D01*
X142095826Y-99955923D01*
X142103686Y-99968149D01*
X142106561Y-99973130D01*
X142105236Y-99975929D01*
X142097916Y-99977826D01*
X142083390Y-99978951D01*
X142060448Y-99979436D01*
X142047673Y-99979480D01*
X141986339Y-99979480D01*
X141934099Y-99902010D01*
X141881860Y-99824540D01*
X141842623Y-99823058D01*
X141803386Y-99821577D01*
X141801983Y-99899258D01*
X141800580Y-99976940D01*
X141749523Y-99978376D01*
X141727662Y-99978648D01*
X141709721Y-99978230D01*
X141698044Y-99977211D01*
X141694913Y-99976259D01*
X141694194Y-99970610D01*
X141693523Y-99955814D01*
X141692916Y-99932886D01*
X141692388Y-99902838D01*
X141691954Y-99866686D01*
X141691627Y-99825442D01*
X141691424Y-99780120D01*
X141691360Y-99734793D01*
X141691360Y-99726229D01*
X141803120Y-99726229D01*
X141876696Y-99724584D01*
X141950273Y-99722940D01*
X141966151Y-99707047D01*
X141979834Y-99686717D01*
X141985457Y-99662939D01*
X141982515Y-99638851D01*
X141978608Y-99629402D01*
X141969052Y-99615816D01*
X141955541Y-99605891D01*
X141936666Y-99599179D01*
X141911019Y-99595235D01*
X141877190Y-99593612D01*
X141865350Y-99593511D01*
X141803120Y-99593400D01*
X141803120Y-99726229D01*
X141691360Y-99726229D01*
X141691360Y-99496880D01*
X141822904Y-99496880D01*
X141863968Y-99496951D01*
G36*
X142295880Y-99877880D02*
X142535007Y-99877880D01*
X142533553Y-99927410D01*
X142532100Y-99976940D01*
X142360650Y-99978277D01*
X142189200Y-99979615D01*
X142189200Y-99496880D01*
X142295880Y-99496880D01*
X142295880Y-99877880D01*
X142295880Y-99877880D01*
G37*
X142295880Y-99877880D02*
X142535007Y-99877880D01*
X142533553Y-99927410D01*
X142532100Y-99976940D01*
X142360650Y-99978277D01*
X142189200Y-99979615D01*
X142189200Y-99496880D01*
X142295880Y-99496880D01*
X142295880Y-99877880D01*
G36*
X139152812Y-96715667D02*
X139167010Y-96717992D01*
X139189170Y-96721910D01*
X139218289Y-96727227D01*
X139253366Y-96733749D01*
X139293399Y-96741281D01*
X139337385Y-96749630D01*
X139384324Y-96758601D01*
X139433212Y-96768001D01*
X139483050Y-96777635D01*
X139532833Y-96787310D01*
X139581562Y-96796831D01*
X139628233Y-96806005D01*
X139671845Y-96814637D01*
X139711397Y-96822533D01*
X139745885Y-96829500D01*
X139774309Y-96835343D01*
X139795667Y-96839868D01*
X139808956Y-96842881D01*
X139812940Y-96843995D01*
X139819326Y-96849437D01*
X139830855Y-96862140D01*
X139846751Y-96881107D01*
X139866237Y-96905341D01*
X139888539Y-96933844D01*
X139912877Y-96965622D01*
X139938478Y-96999676D01*
X139964563Y-97035010D01*
X139990357Y-97070628D01*
X139999814Y-97083880D01*
X140078073Y-97196504D01*
X140155653Y-97313011D01*
X140232159Y-97432633D01*
X140307194Y-97554599D01*
X140380360Y-97678143D01*
X140451263Y-97802494D01*
X140519506Y-97926885D01*
X140584691Y-98050547D01*
X140646423Y-98172711D01*
X140704306Y-98292609D01*
X140757942Y-98409471D01*
X140806936Y-98522531D01*
X140850891Y-98631017D01*
X140889411Y-98734163D01*
X140922099Y-98831200D01*
X140948559Y-98921358D01*
X140949733Y-98925753D01*
X140966034Y-98987087D01*
X141012467Y-98938413D01*
X141113215Y-98829101D01*
X141205583Y-98720886D01*
X141290916Y-98611924D01*
X141370558Y-98500372D01*
X141445855Y-98384386D01*
X141518151Y-98262122D01*
X141556552Y-98192590D01*
X141570846Y-98166481D01*
X141583662Y-98143771D01*
X141594179Y-98125859D01*
X141601573Y-98114149D01*
X141605000Y-98110040D01*
X141608526Y-98114296D01*
X141615984Y-98126130D01*
X141626549Y-98144139D01*
X141639399Y-98166923D01*
X141653447Y-98192590D01*
X141724664Y-98319000D01*
X141798150Y-98438136D01*
X141875252Y-98551839D01*
X141957312Y-98661954D01*
X142045676Y-98770324D01*
X142141689Y-98878791D01*
X142197552Y-98938433D01*
X142244004Y-98987127D01*
X142255414Y-98943553D01*
X142282569Y-98848918D01*
X142316146Y-98747447D01*
X142355784Y-98639869D01*
X142401123Y-98526913D01*
X142451802Y-98409307D01*
X142507460Y-98287781D01*
X142567737Y-98163063D01*
X142632272Y-98035883D01*
X142700704Y-97906968D01*
X142772674Y-97777049D01*
X142847820Y-97646853D01*
X142925782Y-97517109D01*
X143006198Y-97388547D01*
X143083754Y-97269356D01*
X143119200Y-97216431D01*
X143154715Y-97164353D01*
X143189784Y-97113814D01*
X143223895Y-97065506D01*
X143256533Y-97020120D01*
X143287185Y-96978349D01*
X143315337Y-96940884D01*
X143340476Y-96908417D01*
X143362087Y-96881640D01*
X143379658Y-96861246D01*
X143392674Y-96847925D01*
X143400622Y-96842371D01*
X143400780Y-96842331D01*
X143413933Y-96839463D01*
X143435166Y-96835080D01*
X143463476Y-96829375D01*
X143497863Y-96822539D01*
X143537328Y-96814765D01*
X143580867Y-96806246D01*
X143627482Y-96797174D01*
X143676171Y-96787740D01*
X143725934Y-96778138D01*
X143775769Y-96768560D01*
X143824677Y-96759198D01*
X143871655Y-96750244D01*
X143915705Y-96741891D01*
X143955824Y-96734330D01*
X143991012Y-96727756D01*
X144020269Y-96722358D01*
X144042593Y-96718331D01*
X144056984Y-96715866D01*
X144062442Y-96715156D01*
X144062459Y-96715166D01*
X144061602Y-96720349D01*
X144058384Y-96734671D01*
X144052982Y-96757432D01*
X144045568Y-96787933D01*
X144036316Y-96825472D01*
X144025402Y-96869350D01*
X144012999Y-96918868D01*
X143999280Y-96973324D01*
X143984421Y-97032020D01*
X143968595Y-97094255D01*
X143951977Y-97159329D01*
X143951820Y-97159940D01*
X143935193Y-97225013D01*
X143919347Y-97287234D01*
X143904456Y-97345904D01*
X143890695Y-97400326D01*
X143878238Y-97449803D01*
X143867261Y-97493635D01*
X143857939Y-97531125D01*
X143850446Y-97561576D01*
X143844956Y-97584288D01*
X143841645Y-97598564D01*
X143840688Y-97603707D01*
X143840692Y-97603710D01*
X143845443Y-97606480D01*
X143858014Y-97613655D01*
X143877372Y-97624649D01*
X143902487Y-97638879D01*
X143932327Y-97655760D01*
X143965860Y-97674707D01*
X143994081Y-97690637D01*
X144029653Y-97710861D01*
X144062162Y-97729640D01*
X144090604Y-97746371D01*
X144113976Y-97760449D01*
X144131272Y-97771273D01*
X144141489Y-97778238D01*
X144143893Y-97780618D01*
X144139543Y-97783845D01*
X144127120Y-97792328D01*
X144107066Y-97805778D01*
X144079820Y-97823905D01*
X144045824Y-97846418D01*
X144005518Y-97873030D01*
X143959342Y-97903448D01*
X143907737Y-97937385D01*
X143851143Y-97974551D01*
X143790002Y-98014655D01*
X143724754Y-98057407D01*
X143655838Y-98102519D01*
X143583697Y-98149701D01*
X143508769Y-98198662D01*
X143431497Y-98249114D01*
X143426132Y-98252615D01*
X143348708Y-98303172D01*
X143273600Y-98352278D01*
X143201251Y-98399640D01*
X143132099Y-98444969D01*
X143066586Y-98487973D01*
X143005152Y-98528362D01*
X142948238Y-98565844D01*
X142896285Y-98600130D01*
X142849733Y-98630928D01*
X142809023Y-98657947D01*
X142774595Y-98680897D01*
X142746890Y-98699487D01*
X142726348Y-98713426D01*
X142713411Y-98722424D01*
X142708519Y-98726188D01*
X142708489Y-98726246D01*
X142709728Y-98732117D01*
X142713801Y-98746771D01*
X142720433Y-98769317D01*
X142729353Y-98798865D01*
X142740288Y-98834525D01*
X142752966Y-98875406D01*
X142767114Y-98920617D01*
X142782460Y-98969268D01*
X142793543Y-99004184D01*
X142809584Y-99054714D01*
X142824662Y-99102434D01*
X142838497Y-99146452D01*
X142850813Y-99185874D01*
X142861332Y-99219804D01*
X142869776Y-99247350D01*
X142875869Y-99267617D01*
X142879332Y-99279712D01*
X142880043Y-99282815D01*
X142876934Y-99287312D01*
X142866440Y-99287311D01*
X142863570Y-99286852D01*
X142856510Y-99285892D01*
X142839993Y-99283803D01*
X142814650Y-99280661D01*
X142781110Y-99276543D01*
X142740005Y-99271525D01*
X142691965Y-99265684D01*
X142637620Y-99259096D01*
X142577603Y-99251837D01*
X142512542Y-99243985D01*
X142443069Y-99235615D01*
X142369815Y-99226804D01*
X142293410Y-99217629D01*
X142226598Y-99209617D01*
X141606137Y-99135261D01*
X140987078Y-99209444D01*
X140908529Y-99218861D01*
X140832559Y-99227980D01*
X140759804Y-99236723D01*
X140690897Y-99245014D01*
X140626475Y-99252775D01*
X140567171Y-99259930D01*
X140513621Y-99266403D01*
X140466460Y-99272116D01*
X140426321Y-99276993D01*
X140393841Y-99280958D01*
X140369654Y-99283932D01*
X140354395Y-99285841D01*
X140348970Y-99286559D01*
X140335321Y-99287428D01*
X140330057Y-99284312D01*
X140329920Y-99283222D01*
X140331418Y-99277343D01*
X140335731Y-99262673D01*
X140342581Y-99240102D01*
X140351692Y-99210517D01*
X140362790Y-99174807D01*
X140375599Y-99133862D01*
X140389841Y-99088568D01*
X140405242Y-99039815D01*
X140416751Y-99003519D01*
X140432768Y-98952901D01*
X140447768Y-98905146D01*
X140461480Y-98861136D01*
X140473636Y-98821756D01*
X140483966Y-98787887D01*
X140492199Y-98760412D01*
X140498066Y-98740215D01*
X140501297Y-98728178D01*
X140501841Y-98725062D01*
X140497467Y-98721786D01*
X140485022Y-98713255D01*
X140464945Y-98699758D01*
X140437677Y-98681585D01*
X140403660Y-98659025D01*
X140363334Y-98632370D01*
X140317139Y-98601909D01*
X140265516Y-98567932D01*
X140208906Y-98530729D01*
X140147749Y-98490591D01*
X140082487Y-98447807D01*
X140013560Y-98402667D01*
X139941409Y-98355461D01*
X139866474Y-98306480D01*
X139789196Y-98256013D01*
X139783831Y-98252511D01*
X139706415Y-98201959D01*
X139631314Y-98152879D01*
X139558969Y-98105561D01*
X139489821Y-98060293D01*
X139424308Y-98017365D01*
X139362873Y-97977068D01*
X139305955Y-97939691D01*
X139253995Y-97905523D01*
X139207434Y-97874854D01*
X139166711Y-97847974D01*
X139132268Y-97825173D01*
X139104544Y-97806739D01*
X139083981Y-97792964D01*
X139071019Y-97784135D01*
X139066097Y-97780544D01*
X139066065Y-97780497D01*
X139069975Y-97777039D01*
X139081761Y-97769249D01*
X139100418Y-97757728D01*
X139124941Y-97743079D01*
X139154326Y-97725903D01*
X139187567Y-97706803D01*
X139215914Y-97690737D01*
X139251630Y-97670601D01*
X139284461Y-97652064D01*
X139313374Y-97635713D01*
X139337337Y-97622131D01*
X139355318Y-97611904D01*
X139366285Y-97605617D01*
X139369307Y-97603822D01*
X139368378Y-97598772D01*
X139365093Y-97584580D01*
X139359628Y-97561945D01*
X139352156Y-97531565D01*
X139342853Y-97494137D01*
X139331894Y-97450361D01*
X139319453Y-97400934D01*
X139305705Y-97346555D01*
X139290825Y-97287921D01*
X139274988Y-97225731D01*
X139258369Y-97160684D01*
X139258179Y-97159940D01*
X139241554Y-97094843D01*
X139225721Y-97032577D01*
X139210854Y-96973843D01*
X139197127Y-96919342D01*
X139184714Y-96869772D01*
X139173788Y-96825835D01*
X139164525Y-96788230D01*
X139157098Y-96757657D01*
X139151681Y-96734816D01*
X139148448Y-96720408D01*
X139147574Y-96715133D01*
X139147577Y-96715129D01*
X139152812Y-96715667D01*
X139152812Y-96715667D01*
G37*
X139152812Y-96715667D02*
X139167010Y-96717992D01*
X139189170Y-96721910D01*
X139218289Y-96727227D01*
X139253366Y-96733749D01*
X139293399Y-96741281D01*
X139337385Y-96749630D01*
X139384324Y-96758601D01*
X139433212Y-96768001D01*
X139483050Y-96777635D01*
X139532833Y-96787310D01*
X139581562Y-96796831D01*
X139628233Y-96806005D01*
X139671845Y-96814637D01*
X139711397Y-96822533D01*
X139745885Y-96829500D01*
X139774309Y-96835343D01*
X139795667Y-96839868D01*
X139808956Y-96842881D01*
X139812940Y-96843995D01*
X139819326Y-96849437D01*
X139830855Y-96862140D01*
X139846751Y-96881107D01*
X139866237Y-96905341D01*
X139888539Y-96933844D01*
X139912877Y-96965622D01*
X139938478Y-96999676D01*
X139964563Y-97035010D01*
X139990357Y-97070628D01*
X139999814Y-97083880D01*
X140078073Y-97196504D01*
X140155653Y-97313011D01*
X140232159Y-97432633D01*
X140307194Y-97554599D01*
X140380360Y-97678143D01*
X140451263Y-97802494D01*
X140519506Y-97926885D01*
X140584691Y-98050547D01*
X140646423Y-98172711D01*
X140704306Y-98292609D01*
X140757942Y-98409471D01*
X140806936Y-98522531D01*
X140850891Y-98631017D01*
X140889411Y-98734163D01*
X140922099Y-98831200D01*
X140948559Y-98921358D01*
X140949733Y-98925753D01*
X140966034Y-98987087D01*
X141012467Y-98938413D01*
X141113215Y-98829101D01*
X141205583Y-98720886D01*
X141290916Y-98611924D01*
X141370558Y-98500372D01*
X141445855Y-98384386D01*
X141518151Y-98262122D01*
X141556552Y-98192590D01*
X141570846Y-98166481D01*
X141583662Y-98143771D01*
X141594179Y-98125859D01*
X141601573Y-98114149D01*
X141605000Y-98110040D01*
X141608526Y-98114296D01*
X141615984Y-98126130D01*
X141626549Y-98144139D01*
X141639399Y-98166923D01*
X141653447Y-98192590D01*
X141724664Y-98319000D01*
X141798150Y-98438136D01*
X141875252Y-98551839D01*
X141957312Y-98661954D01*
X142045676Y-98770324D01*
X142141689Y-98878791D01*
X142197552Y-98938433D01*
X142244004Y-98987127D01*
X142255414Y-98943553D01*
X142282569Y-98848918D01*
X142316146Y-98747447D01*
X142355784Y-98639869D01*
X142401123Y-98526913D01*
X142451802Y-98409307D01*
X142507460Y-98287781D01*
X142567737Y-98163063D01*
X142632272Y-98035883D01*
X142700704Y-97906968D01*
X142772674Y-97777049D01*
X142847820Y-97646853D01*
X142925782Y-97517109D01*
X143006198Y-97388547D01*
X143083754Y-97269356D01*
X143119200Y-97216431D01*
X143154715Y-97164353D01*
X143189784Y-97113814D01*
X143223895Y-97065506D01*
X143256533Y-97020120D01*
X143287185Y-96978349D01*
X143315337Y-96940884D01*
X143340476Y-96908417D01*
X143362087Y-96881640D01*
X143379658Y-96861246D01*
X143392674Y-96847925D01*
X143400622Y-96842371D01*
X143400780Y-96842331D01*
X143413933Y-96839463D01*
X143435166Y-96835080D01*
X143463476Y-96829375D01*
X143497863Y-96822539D01*
X143537328Y-96814765D01*
X143580867Y-96806246D01*
X143627482Y-96797174D01*
X143676171Y-96787740D01*
X143725934Y-96778138D01*
X143775769Y-96768560D01*
X143824677Y-96759198D01*
X143871655Y-96750244D01*
X143915705Y-96741891D01*
X143955824Y-96734330D01*
X143991012Y-96727756D01*
X144020269Y-96722358D01*
X144042593Y-96718331D01*
X144056984Y-96715866D01*
X144062442Y-96715156D01*
X144062459Y-96715166D01*
X144061602Y-96720349D01*
X144058384Y-96734671D01*
X144052982Y-96757432D01*
X144045568Y-96787933D01*
X144036316Y-96825472D01*
X144025402Y-96869350D01*
X144012999Y-96918868D01*
X143999280Y-96973324D01*
X143984421Y-97032020D01*
X143968595Y-97094255D01*
X143951977Y-97159329D01*
X143951820Y-97159940D01*
X143935193Y-97225013D01*
X143919347Y-97287234D01*
X143904456Y-97345904D01*
X143890695Y-97400326D01*
X143878238Y-97449803D01*
X143867261Y-97493635D01*
X143857939Y-97531125D01*
X143850446Y-97561576D01*
X143844956Y-97584288D01*
X143841645Y-97598564D01*
X143840688Y-97603707D01*
X143840692Y-97603710D01*
X143845443Y-97606480D01*
X143858014Y-97613655D01*
X143877372Y-97624649D01*
X143902487Y-97638879D01*
X143932327Y-97655760D01*
X143965860Y-97674707D01*
X143994081Y-97690637D01*
X144029653Y-97710861D01*
X144062162Y-97729640D01*
X144090604Y-97746371D01*
X144113976Y-97760449D01*
X144131272Y-97771273D01*
X144141489Y-97778238D01*
X144143893Y-97780618D01*
X144139543Y-97783845D01*
X144127120Y-97792328D01*
X144107066Y-97805778D01*
X144079820Y-97823905D01*
X144045824Y-97846418D01*
X144005518Y-97873030D01*
X143959342Y-97903448D01*
X143907737Y-97937385D01*
X143851143Y-97974551D01*
X143790002Y-98014655D01*
X143724754Y-98057407D01*
X143655838Y-98102519D01*
X143583697Y-98149701D01*
X143508769Y-98198662D01*
X143431497Y-98249114D01*
X143426132Y-98252615D01*
X143348708Y-98303172D01*
X143273600Y-98352278D01*
X143201251Y-98399640D01*
X143132099Y-98444969D01*
X143066586Y-98487973D01*
X143005152Y-98528362D01*
X142948238Y-98565844D01*
X142896285Y-98600130D01*
X142849733Y-98630928D01*
X142809023Y-98657947D01*
X142774595Y-98680897D01*
X142746890Y-98699487D01*
X142726348Y-98713426D01*
X142713411Y-98722424D01*
X142708519Y-98726188D01*
X142708489Y-98726246D01*
X142709728Y-98732117D01*
X142713801Y-98746771D01*
X142720433Y-98769317D01*
X142729353Y-98798865D01*
X142740288Y-98834525D01*
X142752966Y-98875406D01*
X142767114Y-98920617D01*
X142782460Y-98969268D01*
X142793543Y-99004184D01*
X142809584Y-99054714D01*
X142824662Y-99102434D01*
X142838497Y-99146452D01*
X142850813Y-99185874D01*
X142861332Y-99219804D01*
X142869776Y-99247350D01*
X142875869Y-99267617D01*
X142879332Y-99279712D01*
X142880043Y-99282815D01*
X142876934Y-99287312D01*
X142866440Y-99287311D01*
X142863570Y-99286852D01*
X142856510Y-99285892D01*
X142839993Y-99283803D01*
X142814650Y-99280661D01*
X142781110Y-99276543D01*
X142740005Y-99271525D01*
X142691965Y-99265684D01*
X142637620Y-99259096D01*
X142577603Y-99251837D01*
X142512542Y-99243985D01*
X142443069Y-99235615D01*
X142369815Y-99226804D01*
X142293410Y-99217629D01*
X142226598Y-99209617D01*
X141606137Y-99135261D01*
X140987078Y-99209444D01*
X140908529Y-99218861D01*
X140832559Y-99227980D01*
X140759804Y-99236723D01*
X140690897Y-99245014D01*
X140626475Y-99252775D01*
X140567171Y-99259930D01*
X140513621Y-99266403D01*
X140466460Y-99272116D01*
X140426321Y-99276993D01*
X140393841Y-99280958D01*
X140369654Y-99283932D01*
X140354395Y-99285841D01*
X140348970Y-99286559D01*
X140335321Y-99287428D01*
X140330057Y-99284312D01*
X140329920Y-99283222D01*
X140331418Y-99277343D01*
X140335731Y-99262673D01*
X140342581Y-99240102D01*
X140351692Y-99210517D01*
X140362790Y-99174807D01*
X140375599Y-99133862D01*
X140389841Y-99088568D01*
X140405242Y-99039815D01*
X140416751Y-99003519D01*
X140432768Y-98952901D01*
X140447768Y-98905146D01*
X140461480Y-98861136D01*
X140473636Y-98821756D01*
X140483966Y-98787887D01*
X140492199Y-98760412D01*
X140498066Y-98740215D01*
X140501297Y-98728178D01*
X140501841Y-98725062D01*
X140497467Y-98721786D01*
X140485022Y-98713255D01*
X140464945Y-98699758D01*
X140437677Y-98681585D01*
X140403660Y-98659025D01*
X140363334Y-98632370D01*
X140317139Y-98601909D01*
X140265516Y-98567932D01*
X140208906Y-98530729D01*
X140147749Y-98490591D01*
X140082487Y-98447807D01*
X140013560Y-98402667D01*
X139941409Y-98355461D01*
X139866474Y-98306480D01*
X139789196Y-98256013D01*
X139783831Y-98252511D01*
X139706415Y-98201959D01*
X139631314Y-98152879D01*
X139558969Y-98105561D01*
X139489821Y-98060293D01*
X139424308Y-98017365D01*
X139362873Y-97977068D01*
X139305955Y-97939691D01*
X139253995Y-97905523D01*
X139207434Y-97874854D01*
X139166711Y-97847974D01*
X139132268Y-97825173D01*
X139104544Y-97806739D01*
X139083981Y-97792964D01*
X139071019Y-97784135D01*
X139066097Y-97780544D01*
X139066065Y-97780497D01*
X139069975Y-97777039D01*
X139081761Y-97769249D01*
X139100418Y-97757728D01*
X139124941Y-97743079D01*
X139154326Y-97725903D01*
X139187567Y-97706803D01*
X139215914Y-97690737D01*
X139251630Y-97670601D01*
X139284461Y-97652064D01*
X139313374Y-97635713D01*
X139337337Y-97622131D01*
X139355318Y-97611904D01*
X139366285Y-97605617D01*
X139369307Y-97603822D01*
X139368378Y-97598772D01*
X139365093Y-97584580D01*
X139359628Y-97561945D01*
X139352156Y-97531565D01*
X139342853Y-97494137D01*
X139331894Y-97450361D01*
X139319453Y-97400934D01*
X139305705Y-97346555D01*
X139290825Y-97287921D01*
X139274988Y-97225731D01*
X139258369Y-97160684D01*
X139258179Y-97159940D01*
X139241554Y-97094843D01*
X139225721Y-97032577D01*
X139210854Y-96973843D01*
X139197127Y-96919342D01*
X139184714Y-96869772D01*
X139173788Y-96825835D01*
X139164525Y-96788230D01*
X139157098Y-96757657D01*
X139151681Y-96734816D01*
X139148448Y-96720408D01*
X139147574Y-96715133D01*
X139147577Y-96715129D01*
X139152812Y-96715667D01*
G36*
X141607958Y-94980023D02*
X141615492Y-94992664D01*
X141627290Y-95013012D01*
X141643023Y-95040481D01*
X141662356Y-95074483D01*
X141684959Y-95114429D01*
X141710498Y-95159733D01*
X141738643Y-95209805D01*
X141769060Y-95264060D01*
X141801418Y-95321907D01*
X141835385Y-95382761D01*
X141861894Y-95430339D01*
X141896861Y-95493076D01*
X141930479Y-95553250D01*
X141962414Y-95610274D01*
X141992334Y-95663560D01*
X142019907Y-95712521D01*
X142044798Y-95756567D01*
X142066677Y-95795111D01*
X142085209Y-95827566D01*
X142100062Y-95853343D01*
X142110904Y-95871855D01*
X142117401Y-95882513D01*
X142119226Y-95884999D01*
X142124568Y-95883029D01*
X142138332Y-95877373D01*
X142159626Y-95868410D01*
X142187563Y-95856521D01*
X142221252Y-95842087D01*
X142259804Y-95825488D01*
X142302329Y-95807103D01*
X142347938Y-95787315D01*
X142362867Y-95780822D01*
X142409163Y-95760726D01*
X142452578Y-95741972D01*
X142492234Y-95724932D01*
X142527255Y-95709980D01*
X142556763Y-95697487D01*
X142579881Y-95687826D01*
X142595732Y-95681370D01*
X142603438Y-95678492D01*
X142604043Y-95678390D01*
X142603780Y-95683564D01*
X142602594Y-95698256D01*
X142600539Y-95721871D01*
X142597673Y-95753815D01*
X142594050Y-95793493D01*
X142589725Y-95840309D01*
X142584755Y-95893670D01*
X142579194Y-95952979D01*
X142573098Y-96017644D01*
X142566522Y-96087068D01*
X142559522Y-96160657D01*
X142552154Y-96237816D01*
X142544472Y-96317951D01*
X142542375Y-96339775D01*
X142534621Y-96420609D01*
X142527170Y-96498631D01*
X142520076Y-96573244D01*
X142513395Y-96643854D01*
X142507182Y-96709866D01*
X142501492Y-96770685D01*
X142496381Y-96825715D01*
X142491904Y-96874362D01*
X142488115Y-96916030D01*
X142485071Y-96950125D01*
X142482826Y-96976051D01*
X142481435Y-96993213D01*
X142480954Y-97001016D01*
X142480987Y-97001440D01*
X142485004Y-96998462D01*
X142496044Y-96989224D01*
X142513540Y-96974221D01*
X142536927Y-96953948D01*
X142565638Y-96928900D01*
X142599108Y-96899574D01*
X142636770Y-96866464D01*
X142678059Y-96830066D01*
X142722409Y-96790876D01*
X142769253Y-96749389D01*
X142793993Y-96727442D01*
X142841945Y-96684899D01*
X142887713Y-96644330D01*
X142930727Y-96606237D01*
X142970418Y-96571122D01*
X143006217Y-96539489D01*
X143037554Y-96511840D01*
X143063860Y-96488676D01*
X143084567Y-96470502D01*
X143099104Y-96457818D01*
X143106902Y-96451129D01*
X143108097Y-96450188D01*
X143110423Y-96454517D01*
X143115789Y-96467288D01*
X143123775Y-96487389D01*
X143133964Y-96513710D01*
X143145935Y-96545139D01*
X143159269Y-96580566D01*
X143173546Y-96618880D01*
X143188348Y-96658969D01*
X143203254Y-96699723D01*
X143217846Y-96740030D01*
X143224541Y-96758685D01*
X143222005Y-96764022D01*
X143213935Y-96775157D01*
X143201641Y-96790379D01*
X143188761Y-96805355D01*
X143126249Y-96877782D01*
X143060807Y-96956622D01*
X142993060Y-97040976D01*
X142923638Y-97129945D01*
X142853166Y-97222630D01*
X142782272Y-97318131D01*
X142711584Y-97415551D01*
X142641728Y-97513989D01*
X142573332Y-97612547D01*
X142507022Y-97710326D01*
X142443427Y-97806426D01*
X142383173Y-97899950D01*
X142326888Y-97989997D01*
X142275199Y-98075670D01*
X142228732Y-98156068D01*
X142188116Y-98230293D01*
X142169376Y-98266429D01*
X142162102Y-98278492D01*
X142155879Y-98284969D01*
X142153611Y-98285282D01*
X142149394Y-98280135D01*
X142140940Y-98267913D01*
X142129307Y-98250213D01*
X142115556Y-98228630D01*
X142108784Y-98217793D01*
X142050969Y-98119895D01*
X141996466Y-98017522D01*
X141945077Y-97910106D01*
X141896608Y-97797079D01*
X141850861Y-97677876D01*
X141807641Y-97551927D01*
X141766751Y-97418667D01*
X141727995Y-97277528D01*
X141691177Y-97127942D01*
X141656100Y-96969343D01*
X141627324Y-96826070D01*
X141621271Y-96795238D01*
X141615710Y-96768099D01*
X141610960Y-96746126D01*
X141607343Y-96730791D01*
X141605180Y-96723568D01*
X141604884Y-96723200D01*
X141603073Y-96727911D01*
X141599846Y-96740892D01*
X141595589Y-96760414D01*
X141590688Y-96784748D01*
X141588127Y-96798130D01*
X141553797Y-96970829D01*
X141517557Y-97134008D01*
X141479240Y-97288153D01*
X141438680Y-97433752D01*
X141395707Y-97571294D01*
X141350155Y-97701266D01*
X141301857Y-97824157D01*
X141250645Y-97940455D01*
X141196351Y-98050646D01*
X141138809Y-98155221D01*
X141101215Y-98217793D01*
X141086844Y-98240631D01*
X141074101Y-98260322D01*
X141064047Y-98275273D01*
X141057741Y-98283886D01*
X141056388Y-98285282D01*
X141051601Y-98282923D01*
X141044664Y-98273661D01*
X141040623Y-98266429D01*
X141003565Y-98196256D01*
X140960341Y-98119428D01*
X140911577Y-98036845D01*
X140857902Y-97949406D01*
X140799944Y-97858010D01*
X140738328Y-97763556D01*
X140673684Y-97666945D01*
X140606638Y-97569076D01*
X140537818Y-97470847D01*
X140467852Y-97373159D01*
X140397366Y-97276911D01*
X140326989Y-97183002D01*
X140257348Y-97092332D01*
X140189070Y-97005799D01*
X140122784Y-96924305D01*
X140059115Y-96848747D01*
X140021299Y-96805355D01*
X140006412Y-96787996D01*
X139994630Y-96773256D01*
X139987263Y-96762843D01*
X139985458Y-96758659D01*
X139997864Y-96724059D01*
X140011257Y-96687201D01*
X140025185Y-96649278D01*
X140039200Y-96611477D01*
X140052851Y-96574991D01*
X140065691Y-96541008D01*
X140077269Y-96510718D01*
X140087135Y-96485313D01*
X140094841Y-96465981D01*
X140099937Y-96453912D01*
X140101933Y-96450248D01*
X140106131Y-96453723D01*
X140117354Y-96463444D01*
X140135032Y-96478910D01*
X140158597Y-96499618D01*
X140187479Y-96525065D01*
X140221108Y-96554749D01*
X140258916Y-96588168D01*
X140300332Y-96624820D01*
X140344787Y-96664201D01*
X140391713Y-96705810D01*
X140416063Y-96727416D01*
X140463965Y-96769884D01*
X140509660Y-96810309D01*
X140552584Y-96848196D01*
X140592170Y-96883048D01*
X140627852Y-96914371D01*
X140659065Y-96941669D01*
X140685242Y-96964446D01*
X140705818Y-96982208D01*
X140720226Y-96994458D01*
X140727901Y-97000701D01*
X140729040Y-97001412D01*
X140728809Y-96996206D01*
X140727653Y-96981482D01*
X140725628Y-96957836D01*
X140722789Y-96925863D01*
X140719192Y-96886157D01*
X140714892Y-96839313D01*
X140709943Y-96785928D01*
X140704402Y-96726595D01*
X140698323Y-96661910D01*
X140691762Y-96592468D01*
X140684773Y-96518864D01*
X140678115Y-96449059D01*
X141342871Y-96449059D01*
X141345667Y-96446995D01*
X141354233Y-96439226D01*
X141367061Y-96427137D01*
X141375979Y-96418579D01*
X141395958Y-96400731D01*
X141418207Y-96383066D01*
X141438623Y-96368800D01*
X141442915Y-96366167D01*
X141477997Y-96347742D01*
X141512007Y-96335235D01*
X141548110Y-96327846D01*
X141589466Y-96324775D01*
X141607540Y-96324576D01*
X141635641Y-96324941D01*
X141656694Y-96326157D01*
X141673798Y-96328654D01*
X141690055Y-96332860D01*
X141705759Y-96338186D01*
X141750578Y-96357446D01*
X141790091Y-96381592D01*
X141827955Y-96412915D01*
X141833930Y-96418579D01*
X141848591Y-96432551D01*
X141859870Y-96443023D01*
X141866261Y-96448612D01*
X141867128Y-96449059D01*
X141865460Y-96443909D01*
X141860997Y-96429764D01*
X141853961Y-96407333D01*
X141844572Y-96377325D01*
X141833052Y-96340447D01*
X141819621Y-96297407D01*
X141804500Y-96248915D01*
X141787911Y-96195677D01*
X141770075Y-96138403D01*
X141751211Y-96077799D01*
X141736692Y-96031131D01*
X141717207Y-95968582D01*
X141698556Y-95908893D01*
X141680963Y-95852765D01*
X141664649Y-95800901D01*
X141649838Y-95754002D01*
X141636751Y-95712773D01*
X141625613Y-95677914D01*
X141616646Y-95650128D01*
X141610073Y-95630118D01*
X141606115Y-95618585D01*
X141605000Y-95615922D01*
X141603144Y-95620657D01*
X141598505Y-95634396D01*
X141591307Y-95656435D01*
X141581771Y-95686072D01*
X141570120Y-95722605D01*
X141556577Y-95765332D01*
X141541366Y-95813549D01*
X141524708Y-95866556D01*
X141506826Y-95923649D01*
X141487944Y-95984126D01*
X141473307Y-96031131D01*
X141453825Y-96093745D01*
X141435206Y-96153556D01*
X141417671Y-96209855D01*
X141401441Y-96261933D01*
X141386736Y-96309084D01*
X141373777Y-96350599D01*
X141362787Y-96385769D01*
X141353985Y-96413886D01*
X141347592Y-96434243D01*
X141343831Y-96446130D01*
X141342871Y-96449059D01*
X140678115Y-96449059D01*
X140677412Y-96441694D01*
X140669735Y-96361551D01*
X140667641Y-96339758D01*
X140659888Y-96258927D01*
X140652433Y-96180912D01*
X140645333Y-96106308D01*
X140638643Y-96035709D01*
X140632418Y-95969711D01*
X140626714Y-95908908D01*
X140621587Y-95853895D01*
X140617090Y-95805267D01*
X140613281Y-95763618D01*
X140610214Y-95729544D01*
X140607945Y-95703640D01*
X140606529Y-95686499D01*
X140606021Y-95678718D01*
X140606046Y-95678299D01*
X140610912Y-95679916D01*
X140624209Y-95685230D01*
X140645062Y-95693871D01*
X140672592Y-95705467D01*
X140705923Y-95719646D01*
X140744177Y-95736035D01*
X140786479Y-95754263D01*
X140831950Y-95773958D01*
X140847575Y-95780747D01*
X140893994Y-95800902D01*
X140937601Y-95819774D01*
X140977508Y-95836983D01*
X141012827Y-95852149D01*
X141042671Y-95864893D01*
X141066152Y-95874834D01*
X141082383Y-95881593D01*
X141090476Y-95884791D01*
X141091204Y-95884999D01*
X141094161Y-95880655D01*
X141101714Y-95868014D01*
X141113531Y-95847665D01*
X141129280Y-95820194D01*
X141148628Y-95786190D01*
X141171243Y-95746241D01*
X141196794Y-95700935D01*
X141224947Y-95650859D01*
X141255370Y-95596602D01*
X141287731Y-95538751D01*
X141321698Y-95477895D01*
X141348190Y-95430339D01*
X141383147Y-95367605D01*
X141416746Y-95307432D01*
X141448655Y-95250409D01*
X141478542Y-95197125D01*
X141506075Y-95148165D01*
X141530922Y-95104120D01*
X141552751Y-95065575D01*
X141571230Y-95033120D01*
X141586027Y-95007342D01*
X141596809Y-94988829D01*
X141603245Y-94978168D01*
X141605023Y-94975680D01*
X141607958Y-94980023D01*
X141607958Y-94980023D01*
G37*
X141607958Y-94980023D02*
X141615492Y-94992664D01*
X141627290Y-95013012D01*
X141643023Y-95040481D01*
X141662356Y-95074483D01*
X141684959Y-95114429D01*
X141710498Y-95159733D01*
X141738643Y-95209805D01*
X141769060Y-95264060D01*
X141801418Y-95321907D01*
X141835385Y-95382761D01*
X141861894Y-95430339D01*
X141896861Y-95493076D01*
X141930479Y-95553250D01*
X141962414Y-95610274D01*
X141992334Y-95663560D01*
X142019907Y-95712521D01*
X142044798Y-95756567D01*
X142066677Y-95795111D01*
X142085209Y-95827566D01*
X142100062Y-95853343D01*
X142110904Y-95871855D01*
X142117401Y-95882513D01*
X142119226Y-95884999D01*
X142124568Y-95883029D01*
X142138332Y-95877373D01*
X142159626Y-95868410D01*
X142187563Y-95856521D01*
X142221252Y-95842087D01*
X142259804Y-95825488D01*
X142302329Y-95807103D01*
X142347938Y-95787315D01*
X142362867Y-95780822D01*
X142409163Y-95760726D01*
X142452578Y-95741972D01*
X142492234Y-95724932D01*
X142527255Y-95709980D01*
X142556763Y-95697487D01*
X142579881Y-95687826D01*
X142595732Y-95681370D01*
X142603438Y-95678492D01*
X142604043Y-95678390D01*
X142603780Y-95683564D01*
X142602594Y-95698256D01*
X142600539Y-95721871D01*
X142597673Y-95753815D01*
X142594050Y-95793493D01*
X142589725Y-95840309D01*
X142584755Y-95893670D01*
X142579194Y-95952979D01*
X142573098Y-96017644D01*
X142566522Y-96087068D01*
X142559522Y-96160657D01*
X142552154Y-96237816D01*
X142544472Y-96317951D01*
X142542375Y-96339775D01*
X142534621Y-96420609D01*
X142527170Y-96498631D01*
X142520076Y-96573244D01*
X142513395Y-96643854D01*
X142507182Y-96709866D01*
X142501492Y-96770685D01*
X142496381Y-96825715D01*
X142491904Y-96874362D01*
X142488115Y-96916030D01*
X142485071Y-96950125D01*
X142482826Y-96976051D01*
X142481435Y-96993213D01*
X142480954Y-97001016D01*
X142480987Y-97001440D01*
X142485004Y-96998462D01*
X142496044Y-96989224D01*
X142513540Y-96974221D01*
X142536927Y-96953948D01*
X142565638Y-96928900D01*
X142599108Y-96899574D01*
X142636770Y-96866464D01*
X142678059Y-96830066D01*
X142722409Y-96790876D01*
X142769253Y-96749389D01*
X142793993Y-96727442D01*
X142841945Y-96684899D01*
X142887713Y-96644330D01*
X142930727Y-96606237D01*
X142970418Y-96571122D01*
X143006217Y-96539489D01*
X143037554Y-96511840D01*
X143063860Y-96488676D01*
X143084567Y-96470502D01*
X143099104Y-96457818D01*
X143106902Y-96451129D01*
X143108097Y-96450188D01*
X143110423Y-96454517D01*
X143115789Y-96467288D01*
X143123775Y-96487389D01*
X143133964Y-96513710D01*
X143145935Y-96545139D01*
X143159269Y-96580566D01*
X143173546Y-96618880D01*
X143188348Y-96658969D01*
X143203254Y-96699723D01*
X143217846Y-96740030D01*
X143224541Y-96758685D01*
X143222005Y-96764022D01*
X143213935Y-96775157D01*
X143201641Y-96790379D01*
X143188761Y-96805355D01*
X143126249Y-96877782D01*
X143060807Y-96956622D01*
X142993060Y-97040976D01*
X142923638Y-97129945D01*
X142853166Y-97222630D01*
X142782272Y-97318131D01*
X142711584Y-97415551D01*
X142641728Y-97513989D01*
X142573332Y-97612547D01*
X142507022Y-97710326D01*
X142443427Y-97806426D01*
X142383173Y-97899950D01*
X142326888Y-97989997D01*
X142275199Y-98075670D01*
X142228732Y-98156068D01*
X142188116Y-98230293D01*
X142169376Y-98266429D01*
X142162102Y-98278492D01*
X142155879Y-98284969D01*
X142153611Y-98285282D01*
X142149394Y-98280135D01*
X142140940Y-98267913D01*
X142129307Y-98250213D01*
X142115556Y-98228630D01*
X142108784Y-98217793D01*
X142050969Y-98119895D01*
X141996466Y-98017522D01*
X141945077Y-97910106D01*
X141896608Y-97797079D01*
X141850861Y-97677876D01*
X141807641Y-97551927D01*
X141766751Y-97418667D01*
X141727995Y-97277528D01*
X141691177Y-97127942D01*
X141656100Y-96969343D01*
X141627324Y-96826070D01*
X141621271Y-96795238D01*
X141615710Y-96768099D01*
X141610960Y-96746126D01*
X141607343Y-96730791D01*
X141605180Y-96723568D01*
X141604884Y-96723200D01*
X141603073Y-96727911D01*
X141599846Y-96740892D01*
X141595589Y-96760414D01*
X141590688Y-96784748D01*
X141588127Y-96798130D01*
X141553797Y-96970829D01*
X141517557Y-97134008D01*
X141479240Y-97288153D01*
X141438680Y-97433752D01*
X141395707Y-97571294D01*
X141350155Y-97701266D01*
X141301857Y-97824157D01*
X141250645Y-97940455D01*
X141196351Y-98050646D01*
X141138809Y-98155221D01*
X141101215Y-98217793D01*
X141086844Y-98240631D01*
X141074101Y-98260322D01*
X141064047Y-98275273D01*
X141057741Y-98283886D01*
X141056388Y-98285282D01*
X141051601Y-98282923D01*
X141044664Y-98273661D01*
X141040623Y-98266429D01*
X141003565Y-98196256D01*
X140960341Y-98119428D01*
X140911577Y-98036845D01*
X140857902Y-97949406D01*
X140799944Y-97858010D01*
X140738328Y-97763556D01*
X140673684Y-97666945D01*
X140606638Y-97569076D01*
X140537818Y-97470847D01*
X140467852Y-97373159D01*
X140397366Y-97276911D01*
X140326989Y-97183002D01*
X140257348Y-97092332D01*
X140189070Y-97005799D01*
X140122784Y-96924305D01*
X140059115Y-96848747D01*
X140021299Y-96805355D01*
X140006412Y-96787996D01*
X139994630Y-96773256D01*
X139987263Y-96762843D01*
X139985458Y-96758659D01*
X139997864Y-96724059D01*
X140011257Y-96687201D01*
X140025185Y-96649278D01*
X140039200Y-96611477D01*
X140052851Y-96574991D01*
X140065691Y-96541008D01*
X140077269Y-96510718D01*
X140087135Y-96485313D01*
X140094841Y-96465981D01*
X140099937Y-96453912D01*
X140101933Y-96450248D01*
X140106131Y-96453723D01*
X140117354Y-96463444D01*
X140135032Y-96478910D01*
X140158597Y-96499618D01*
X140187479Y-96525065D01*
X140221108Y-96554749D01*
X140258916Y-96588168D01*
X140300332Y-96624820D01*
X140344787Y-96664201D01*
X140391713Y-96705810D01*
X140416063Y-96727416D01*
X140463965Y-96769884D01*
X140509660Y-96810309D01*
X140552584Y-96848196D01*
X140592170Y-96883048D01*
X140627852Y-96914371D01*
X140659065Y-96941669D01*
X140685242Y-96964446D01*
X140705818Y-96982208D01*
X140720226Y-96994458D01*
X140727901Y-97000701D01*
X140729040Y-97001412D01*
X140728809Y-96996206D01*
X140727653Y-96981482D01*
X140725628Y-96957836D01*
X140722789Y-96925863D01*
X140719192Y-96886157D01*
X140714892Y-96839313D01*
X140709943Y-96785928D01*
X140704402Y-96726595D01*
X140698323Y-96661910D01*
X140691762Y-96592468D01*
X140684773Y-96518864D01*
X140678115Y-96449059D01*
X141342871Y-96449059D01*
X141345667Y-96446995D01*
X141354233Y-96439226D01*
X141367061Y-96427137D01*
X141375979Y-96418579D01*
X141395958Y-96400731D01*
X141418207Y-96383066D01*
X141438623Y-96368800D01*
X141442915Y-96366167D01*
X141477997Y-96347742D01*
X141512007Y-96335235D01*
X141548110Y-96327846D01*
X141589466Y-96324775D01*
X141607540Y-96324576D01*
X141635641Y-96324941D01*
X141656694Y-96326157D01*
X141673798Y-96328654D01*
X141690055Y-96332860D01*
X141705759Y-96338186D01*
X141750578Y-96357446D01*
X141790091Y-96381592D01*
X141827955Y-96412915D01*
X141833930Y-96418579D01*
X141848591Y-96432551D01*
X141859870Y-96443023D01*
X141866261Y-96448612D01*
X141867128Y-96449059D01*
X141865460Y-96443909D01*
X141860997Y-96429764D01*
X141853961Y-96407333D01*
X141844572Y-96377325D01*
X141833052Y-96340447D01*
X141819621Y-96297407D01*
X141804500Y-96248915D01*
X141787911Y-96195677D01*
X141770075Y-96138403D01*
X141751211Y-96077799D01*
X141736692Y-96031131D01*
X141717207Y-95968582D01*
X141698556Y-95908893D01*
X141680963Y-95852765D01*
X141664649Y-95800901D01*
X141649838Y-95754002D01*
X141636751Y-95712773D01*
X141625613Y-95677914D01*
X141616646Y-95650128D01*
X141610073Y-95630118D01*
X141606115Y-95618585D01*
X141605000Y-95615922D01*
X141603144Y-95620657D01*
X141598505Y-95634396D01*
X141591307Y-95656435D01*
X141581771Y-95686072D01*
X141570120Y-95722605D01*
X141556577Y-95765332D01*
X141541366Y-95813549D01*
X141524708Y-95866556D01*
X141506826Y-95923649D01*
X141487944Y-95984126D01*
X141473307Y-96031131D01*
X141453825Y-96093745D01*
X141435206Y-96153556D01*
X141417671Y-96209855D01*
X141401441Y-96261933D01*
X141386736Y-96309084D01*
X141373777Y-96350599D01*
X141362787Y-96385769D01*
X141353985Y-96413886D01*
X141347592Y-96434243D01*
X141343831Y-96446130D01*
X141342871Y-96449059D01*
X140678115Y-96449059D01*
X140677412Y-96441694D01*
X140669735Y-96361551D01*
X140667641Y-96339758D01*
X140659888Y-96258927D01*
X140652433Y-96180912D01*
X140645333Y-96106308D01*
X140638643Y-96035709D01*
X140632418Y-95969711D01*
X140626714Y-95908908D01*
X140621587Y-95853895D01*
X140617090Y-95805267D01*
X140613281Y-95763618D01*
X140610214Y-95729544D01*
X140607945Y-95703640D01*
X140606529Y-95686499D01*
X140606021Y-95678718D01*
X140606046Y-95678299D01*
X140610912Y-95679916D01*
X140624209Y-95685230D01*
X140645062Y-95693871D01*
X140672592Y-95705467D01*
X140705923Y-95719646D01*
X140744177Y-95736035D01*
X140786479Y-95754263D01*
X140831950Y-95773958D01*
X140847575Y-95780747D01*
X140893994Y-95800902D01*
X140937601Y-95819774D01*
X140977508Y-95836983D01*
X141012827Y-95852149D01*
X141042671Y-95864893D01*
X141066152Y-95874834D01*
X141082383Y-95881593D01*
X141090476Y-95884791D01*
X141091204Y-95884999D01*
X141094161Y-95880655D01*
X141101714Y-95868014D01*
X141113531Y-95847665D01*
X141129280Y-95820194D01*
X141148628Y-95786190D01*
X141171243Y-95746241D01*
X141196794Y-95700935D01*
X141224947Y-95650859D01*
X141255370Y-95596602D01*
X141287731Y-95538751D01*
X141321698Y-95477895D01*
X141348190Y-95430339D01*
X141383147Y-95367605D01*
X141416746Y-95307432D01*
X141448655Y-95250409D01*
X141478542Y-95197125D01*
X141506075Y-95148165D01*
X141530922Y-95104120D01*
X141552751Y-95065575D01*
X141571230Y-95033120D01*
X141586027Y-95007342D01*
X141596809Y-94988829D01*
X141603245Y-94978168D01*
X141605023Y-94975680D01*
X141607958Y-94980023D01*
D11*
X133591500Y-133985000D02*
X137680500Y-133985000D01*
X133591500Y-130175000D02*
X137680500Y-130175000D01*
X137680500Y-130175000D02*
X137680500Y-133985000D01*
X133591500Y-130175000D02*
X133591500Y-133985000D01*
X128003500Y-133985000D02*
X132092500Y-133985000D01*
X128003500Y-130175000D02*
X132092500Y-130175000D01*
X132092500Y-130175000D02*
X132092500Y-133985000D01*
X128003500Y-130175000D02*
X128003500Y-133985000D01*
D13*
X132580000Y-119800000D02*
X131580000Y-119800000D01*
X131580000Y-121500000D02*
X132580000Y-121500000D01*
X132580000Y-116752000D02*
X131580000Y-116752000D01*
X131580000Y-118452000D02*
X132580000Y-118452000D01*
X124622000Y-123072000D02*
X125822000Y-123072000D01*
X125822000Y-124832000D02*
X124622000Y-124832000D01*
X114716000Y-122818000D02*
X115916000Y-122818000D01*
X115916000Y-124578000D02*
X114716000Y-124578000D01*
X123860000Y-116976000D02*
X125060000Y-116976000D01*
X125060000Y-118736000D02*
X123860000Y-118736000D01*
X136788000Y-117948000D02*
X136788000Y-116748000D01*
X138548000Y-116748000D02*
X138548000Y-117948000D01*
D14*
X148417280Y-103972360D02*
X158414720Y-103972360D01*
X141168120Y-110322360D02*
X148417280Y-103972360D01*
X165663880Y-110322360D02*
X158414720Y-103972360D01*
X163164520Y-110322360D02*
X165663880Y-110322360D01*
X165663880Y-110322360D02*
X165663880Y-130822700D01*
X165663880Y-130822700D02*
X163164520Y-130822700D01*
X163164520Y-110322360D02*
X163164520Y-130822700D01*
X143667480Y-110322360D02*
X141168120Y-110322360D01*
X141168120Y-110322360D02*
X141168120Y-130822700D01*
X141168120Y-130822700D02*
X143667480Y-130822700D01*
X143667480Y-110322360D02*
X143667480Y-130822700D01*
X141168120Y-130822700D02*
X141168120Y-131572000D01*
X165663880Y-130822700D02*
X165663880Y-131572000D01*
X141168120Y-131572000D02*
X165663880Y-131572000D01*
X165663880Y-131572000D02*
X165663880Y-137820400D01*
X141168120Y-131572000D02*
X141168120Y-137820400D01*
X141168120Y-137820400D02*
X165663880Y-137820400D01*
D13*
X116832000Y-129706000D02*
X115832000Y-129706000D01*
X115832000Y-131406000D02*
X116832000Y-131406000D01*
X113546000Y-118198000D02*
X114546000Y-118198000D01*
X114546000Y-116498000D02*
X113546000Y-116498000D01*
X119722000Y-116578000D02*
X119722000Y-115578000D01*
X118022000Y-115578000D02*
X118022000Y-116578000D01*
X122086000Y-134628000D02*
X122086000Y-135628000D01*
X123786000Y-135628000D02*
X123786000Y-134628000D01*
X113146000Y-115148000D02*
X114946000Y-115148000D01*
X114946000Y-111928000D02*
X111996000Y-111928000D01*
X115432000Y-136992000D02*
X117232000Y-136992000D01*
X117232000Y-133772000D02*
X114282000Y-133772000D01*
X127145000Y-100225000D02*
X127145000Y-95525000D01*
X127145000Y-95525000D02*
X121045000Y-95525000D01*
X121045000Y-95525000D02*
X121045000Y-100225000D01*
X121045000Y-100225000D02*
X127145000Y-100225000D01*
X124595000Y-100225000D02*
X124595000Y-99625000D01*
X124595000Y-99625000D02*
X126545000Y-99625000D01*
X126545000Y-99625000D02*
X126545000Y-96125000D01*
X126545000Y-96125000D02*
X121645000Y-96125000D01*
X121645000Y-96125000D02*
X121645000Y-99625000D01*
X121645000Y-99625000D02*
X123595000Y-99625000D01*
X123595000Y-99625000D02*
X123595000Y-100225000D01*
X127145000Y-98925000D02*
X126545000Y-98925000D01*
X127145000Y-97625000D02*
X126545000Y-97625000D01*
X121045000Y-98925000D02*
X121645000Y-98925000D01*
X121045000Y-97625000D02*
X121645000Y-97625000D01*
X125395000Y-100225000D02*
X125395000Y-100425000D01*
X125395000Y-100425000D02*
X125695000Y-100425000D01*
X125695000Y-100425000D02*
X125695000Y-100225000D01*
X125395000Y-100325000D02*
X125695000Y-100325000D01*
X124195000Y-96125000D02*
X124195000Y-96625000D01*
X124195000Y-96625000D02*
X123995000Y-96625000D01*
X123995000Y-96625000D02*
X123995000Y-96125000D01*
X124095000Y-96125000D02*
X124095000Y-96625000D01*
X126195000Y-100525000D02*
X127445000Y-100525000D01*
X127445000Y-100525000D02*
X127445000Y-99275000D01*
X137305000Y-100225000D02*
X137305000Y-95525000D01*
X137305000Y-95525000D02*
X131205000Y-95525000D01*
X131205000Y-95525000D02*
X131205000Y-100225000D01*
X131205000Y-100225000D02*
X137305000Y-100225000D01*
X134755000Y-100225000D02*
X134755000Y-99625000D01*
X134755000Y-99625000D02*
X136705000Y-99625000D01*
X136705000Y-99625000D02*
X136705000Y-96125000D01*
X136705000Y-96125000D02*
X131805000Y-96125000D01*
X131805000Y-96125000D02*
X131805000Y-99625000D01*
X131805000Y-99625000D02*
X133755000Y-99625000D01*
X133755000Y-99625000D02*
X133755000Y-100225000D01*
X137305000Y-98925000D02*
X136705000Y-98925000D01*
X137305000Y-97625000D02*
X136705000Y-97625000D01*
X131205000Y-98925000D02*
X131805000Y-98925000D01*
X131205000Y-97625000D02*
X131805000Y-97625000D01*
X135555000Y-100225000D02*
X135555000Y-100425000D01*
X135555000Y-100425000D02*
X135855000Y-100425000D01*
X135855000Y-100425000D02*
X135855000Y-100225000D01*
X135555000Y-100325000D02*
X135855000Y-100325000D01*
X134355000Y-96125000D02*
X134355000Y-96625000D01*
X134355000Y-96625000D02*
X134155000Y-96625000D01*
X134155000Y-96625000D02*
X134155000Y-96125000D01*
X134255000Y-96125000D02*
X134255000Y-96625000D01*
X136355000Y-100525000D02*
X137605000Y-100525000D01*
X137605000Y-100525000D02*
X137605000Y-99275000D01*
D11*
X151130000Y-147320000D02*
X151130000Y-140970000D01*
X151130000Y-140970000D02*
X146050000Y-140970000D01*
X146050000Y-140970000D02*
X146050000Y-147320000D01*
X151055000Y-147320000D02*
X146125000Y-147320000D01*
X135890000Y-147320000D02*
X135890000Y-140970000D01*
X135890000Y-140970000D02*
X130810000Y-140970000D01*
X130810000Y-140970000D02*
X130810000Y-147320000D01*
X135815000Y-147320000D02*
X130885000Y-147320000D01*
X128270000Y-147320000D02*
X128270000Y-140970000D01*
X128270000Y-140970000D02*
X123190000Y-140970000D01*
X123190000Y-140970000D02*
X123190000Y-147320000D01*
X128195000Y-147320000D02*
X123265000Y-147320000D01*
X143510000Y-147320000D02*
X143510000Y-140970000D01*
X143510000Y-140970000D02*
X138430000Y-140970000D01*
X138430000Y-140970000D02*
X138430000Y-147320000D01*
X143435000Y-147320000D02*
X138505000Y-147320000D01*
X120650000Y-147320000D02*
X120650000Y-140970000D01*
X120650000Y-140970000D02*
X115570000Y-140970000D01*
X115570000Y-140970000D02*
X115570000Y-147320000D01*
X120575000Y-147320000D02*
X115645000Y-147320000D01*
X112466381Y-103036666D02*
X111990190Y-103370000D01*
X112466381Y-103608095D02*
X111466381Y-103608095D01*
X111466381Y-103227142D01*
X111514000Y-103131904D01*
X111561619Y-103084285D01*
X111656857Y-103036666D01*
X111799714Y-103036666D01*
X111894952Y-103084285D01*
X111942571Y-103131904D01*
X111990190Y-103227142D01*
X111990190Y-103608095D01*
X111466381Y-102703333D02*
X111466381Y-102084285D01*
X111847333Y-102417619D01*
X111847333Y-102274761D01*
X111894952Y-102179523D01*
X111942571Y-102131904D01*
X112037810Y-102084285D01*
X112275905Y-102084285D01*
X112371143Y-102131904D01*
X112418762Y-102179523D01*
X112466381Y-102274761D01*
X112466381Y-102560476D01*
X112418762Y-102655714D01*
X112371143Y-102703333D01*
X120848381Y-102782666D02*
X120372190Y-103116000D01*
X120848381Y-103354095D02*
X119848381Y-103354095D01*
X119848381Y-102973142D01*
X119896000Y-102877904D01*
X119943619Y-102830285D01*
X120038857Y-102782666D01*
X120181714Y-102782666D01*
X120276952Y-102830285D01*
X120324571Y-102877904D01*
X120372190Y-102973142D01*
X120372190Y-103354095D01*
X120181714Y-101925523D02*
X120848381Y-101925523D01*
X119800762Y-102163619D02*
X120515048Y-102401714D01*
X120515048Y-101782666D01*
X100377714Y-147486667D02*
X100853905Y-147486667D01*
X100282476Y-147772381D02*
X100615809Y-146772381D01*
X100949143Y-147772381D01*
X101806286Y-147772381D02*
X101234857Y-147772381D01*
X101520571Y-147772381D02*
X101520571Y-146772381D01*
X101425333Y-146915238D01*
X101330095Y-147010476D01*
X101234857Y-147058095D01*
X124293334Y-112907143D02*
X124245715Y-112954762D01*
X124102858Y-113002381D01*
X124007620Y-113002381D01*
X123864762Y-112954762D01*
X123769524Y-112859524D01*
X123721905Y-112764286D01*
X123674286Y-112573810D01*
X123674286Y-112430952D01*
X123721905Y-112240476D01*
X123769524Y-112145238D01*
X123864762Y-112050000D01*
X124007620Y-112002381D01*
X124102858Y-112002381D01*
X124245715Y-112050000D01*
X124293334Y-112097619D01*
X125245715Y-113002381D02*
X124674286Y-113002381D01*
X124960000Y-113002381D02*
X124960000Y-112002381D01*
X124864762Y-112145238D01*
X124769524Y-112240476D01*
X124674286Y-112288095D01*
X135215334Y-114657143D02*
X135167715Y-114704762D01*
X135024858Y-114752381D01*
X134929620Y-114752381D01*
X134786762Y-114704762D01*
X134691524Y-114609524D01*
X134643905Y-114514286D01*
X134596286Y-114323810D01*
X134596286Y-114180952D01*
X134643905Y-113990476D01*
X134691524Y-113895238D01*
X134786762Y-113800000D01*
X134929620Y-113752381D01*
X135024858Y-113752381D01*
X135167715Y-113800000D01*
X135215334Y-113847619D01*
X135596286Y-113847619D02*
X135643905Y-113800000D01*
X135739143Y-113752381D01*
X135977239Y-113752381D01*
X136072477Y-113800000D01*
X136120096Y-113847619D01*
X136167715Y-113942857D01*
X136167715Y-114038095D01*
X136120096Y-114180952D01*
X135548667Y-114752381D01*
X136167715Y-114752381D01*
X118054381Y-102782666D02*
X117578190Y-103116000D01*
X118054381Y-103354095D02*
X117054381Y-103354095D01*
X117054381Y-102973142D01*
X117102000Y-102877904D01*
X117149619Y-102830285D01*
X117244857Y-102782666D01*
X117387714Y-102782666D01*
X117482952Y-102830285D01*
X117530571Y-102877904D01*
X117578190Y-102973142D01*
X117578190Y-103354095D01*
X118054381Y-101830285D02*
X118054381Y-102401714D01*
X118054381Y-102116000D02*
X117054381Y-102116000D01*
X117197238Y-102211238D01*
X117292476Y-102306476D01*
X117340095Y-102401714D01*
X115260381Y-103036666D02*
X114784190Y-103370000D01*
X115260381Y-103608095D02*
X114260381Y-103608095D01*
X114260381Y-103227142D01*
X114308000Y-103131904D01*
X114355619Y-103084285D01*
X114450857Y-103036666D01*
X114593714Y-103036666D01*
X114688952Y-103084285D01*
X114736571Y-103131904D01*
X114784190Y-103227142D01*
X114784190Y-103608095D01*
X114355619Y-102655714D02*
X114308000Y-102608095D01*
X114260381Y-102512857D01*
X114260381Y-102274761D01*
X114308000Y-102179523D01*
X114355619Y-102131904D01*
X114450857Y-102084285D01*
X114546095Y-102084285D01*
X114688952Y-102131904D01*
X115260381Y-102703333D01*
X115260381Y-102084285D01*
D16*
X127689429Y-111596714D02*
X127689429Y-112213571D01*
X127725714Y-112286143D01*
X127762000Y-112322429D01*
X127834571Y-112358714D01*
X127979714Y-112358714D01*
X128052286Y-112322429D01*
X128088571Y-112286143D01*
X128124857Y-112213571D01*
X128124857Y-111596714D01*
X128886857Y-112358714D02*
X128451429Y-112358714D01*
X128669143Y-112358714D02*
X128669143Y-111596714D01*
X128596572Y-111705571D01*
X128524000Y-111778143D01*
X128451429Y-111814429D01*
D11*
X135215334Y-121007143D02*
X135167715Y-121054762D01*
X135024858Y-121102381D01*
X134929620Y-121102381D01*
X134786762Y-121054762D01*
X134691524Y-120959524D01*
X134643905Y-120864286D01*
X134596286Y-120673810D01*
X134596286Y-120530952D01*
X134643905Y-120340476D01*
X134691524Y-120245238D01*
X134786762Y-120150000D01*
X134929620Y-120102381D01*
X135024858Y-120102381D01*
X135167715Y-120150000D01*
X135215334Y-120197619D01*
X135548667Y-120102381D02*
X136167715Y-120102381D01*
X135834381Y-120483333D01*
X135977239Y-120483333D01*
X136072477Y-120530952D01*
X136120096Y-120578571D01*
X136167715Y-120673810D01*
X136167715Y-120911905D01*
X136120096Y-121007143D01*
X136072477Y-121054762D01*
X135977239Y-121102381D01*
X135691524Y-121102381D01*
X135596286Y-121054762D01*
X135548667Y-121007143D01*
X135215334Y-117959143D02*
X135167715Y-118006762D01*
X135024858Y-118054381D01*
X134929620Y-118054381D01*
X134786762Y-118006762D01*
X134691524Y-117911524D01*
X134643905Y-117816286D01*
X134596286Y-117625810D01*
X134596286Y-117482952D01*
X134643905Y-117292476D01*
X134691524Y-117197238D01*
X134786762Y-117102000D01*
X134929620Y-117054381D01*
X135024858Y-117054381D01*
X135167715Y-117102000D01*
X135215334Y-117149619D01*
X136072477Y-117387714D02*
X136072477Y-118054381D01*
X135834381Y-117006762D02*
X135596286Y-117721048D01*
X136215334Y-117721048D01*
X125055334Y-126104381D02*
X124722000Y-125628190D01*
X124483905Y-126104381D02*
X124483905Y-125104381D01*
X124864858Y-125104381D01*
X124960096Y-125152000D01*
X125007715Y-125199619D01*
X125055334Y-125294857D01*
X125055334Y-125437714D01*
X125007715Y-125532952D01*
X124960096Y-125580571D01*
X124864858Y-125628190D01*
X124483905Y-125628190D01*
X125960096Y-125104381D02*
X125483905Y-125104381D01*
X125436286Y-125580571D01*
X125483905Y-125532952D01*
X125579143Y-125485333D01*
X125817239Y-125485333D01*
X125912477Y-125532952D01*
X125960096Y-125580571D01*
X126007715Y-125675810D01*
X126007715Y-125913905D01*
X125960096Y-126009143D01*
X125912477Y-126056762D01*
X125817239Y-126104381D01*
X125579143Y-126104381D01*
X125483905Y-126056762D01*
X125436286Y-126009143D01*
X115149334Y-125850381D02*
X114816000Y-125374190D01*
X114577905Y-125850381D02*
X114577905Y-124850381D01*
X114958858Y-124850381D01*
X115054096Y-124898000D01*
X115101715Y-124945619D01*
X115149334Y-125040857D01*
X115149334Y-125183714D01*
X115101715Y-125278952D01*
X115054096Y-125326571D01*
X114958858Y-125374190D01*
X114577905Y-125374190D01*
X116006477Y-124850381D02*
X115816000Y-124850381D01*
X115720762Y-124898000D01*
X115673143Y-124945619D01*
X115577905Y-125088476D01*
X115530286Y-125278952D01*
X115530286Y-125659905D01*
X115577905Y-125755143D01*
X115625524Y-125802762D01*
X115720762Y-125850381D01*
X115911239Y-125850381D01*
X116006477Y-125802762D01*
X116054096Y-125755143D01*
X116101715Y-125659905D01*
X116101715Y-125421810D01*
X116054096Y-125326571D01*
X116006477Y-125278952D01*
X115911239Y-125231333D01*
X115720762Y-125231333D01*
X115625524Y-125278952D01*
X115577905Y-125326571D01*
X115530286Y-125421810D01*
X124293334Y-120008381D02*
X123960000Y-119532190D01*
X123721905Y-120008381D02*
X123721905Y-119008381D01*
X124102858Y-119008381D01*
X124198096Y-119056000D01*
X124245715Y-119103619D01*
X124293334Y-119198857D01*
X124293334Y-119341714D01*
X124245715Y-119436952D01*
X124198096Y-119484571D01*
X124102858Y-119532190D01*
X123721905Y-119532190D01*
X124626667Y-119008381D02*
X125293334Y-119008381D01*
X124864762Y-120008381D01*
X139820381Y-117514666D02*
X139344190Y-117848000D01*
X139820381Y-118086095D02*
X138820381Y-118086095D01*
X138820381Y-117705142D01*
X138868000Y-117609904D01*
X138915619Y-117562285D01*
X139010857Y-117514666D01*
X139153714Y-117514666D01*
X139248952Y-117562285D01*
X139296571Y-117609904D01*
X139344190Y-117705142D01*
X139344190Y-118086095D01*
X139248952Y-116943238D02*
X139201333Y-117038476D01*
X139153714Y-117086095D01*
X139058476Y-117133714D01*
X139010857Y-117133714D01*
X138915619Y-117086095D01*
X138868000Y-117038476D01*
X138820381Y-116943238D01*
X138820381Y-116752761D01*
X138868000Y-116657523D01*
X138915619Y-116609904D01*
X139010857Y-116562285D01*
X139058476Y-116562285D01*
X139153714Y-116609904D01*
X139201333Y-116657523D01*
X139248952Y-116752761D01*
X139248952Y-116943238D01*
X139296571Y-117038476D01*
X139344190Y-117086095D01*
X139439429Y-117133714D01*
X139629905Y-117133714D01*
X139725143Y-117086095D01*
X139772762Y-117038476D01*
X139820381Y-116943238D01*
X139820381Y-116752761D01*
X139772762Y-116657523D01*
X139725143Y-116609904D01*
X139629905Y-116562285D01*
X139439429Y-116562285D01*
X139344190Y-116609904D01*
X139296571Y-116657523D01*
X139248952Y-116752761D01*
X116165334Y-129163143D02*
X116117715Y-129210762D01*
X115974858Y-129258381D01*
X115879620Y-129258381D01*
X115736762Y-129210762D01*
X115641524Y-129115524D01*
X115593905Y-129020286D01*
X115546286Y-128829810D01*
X115546286Y-128686952D01*
X115593905Y-128496476D01*
X115641524Y-128401238D01*
X115736762Y-128306000D01*
X115879620Y-128258381D01*
X115974858Y-128258381D01*
X116117715Y-128306000D01*
X116165334Y-128353619D01*
X117070096Y-128258381D02*
X116593905Y-128258381D01*
X116546286Y-128734571D01*
X116593905Y-128686952D01*
X116689143Y-128639333D01*
X116927239Y-128639333D01*
X117022477Y-128686952D01*
X117070096Y-128734571D01*
X117117715Y-128829810D01*
X117117715Y-129067905D01*
X117070096Y-129163143D01*
X117022477Y-129210762D01*
X116927239Y-129258381D01*
X116689143Y-129258381D01*
X116593905Y-129210762D01*
X116546286Y-129163143D01*
X113879334Y-119455143D02*
X113831715Y-119502762D01*
X113688858Y-119550381D01*
X113593620Y-119550381D01*
X113450762Y-119502762D01*
X113355524Y-119407524D01*
X113307905Y-119312286D01*
X113260286Y-119121810D01*
X113260286Y-118978952D01*
X113307905Y-118788476D01*
X113355524Y-118693238D01*
X113450762Y-118598000D01*
X113593620Y-118550381D01*
X113688858Y-118550381D01*
X113831715Y-118598000D01*
X113879334Y-118645619D01*
X114736477Y-118550381D02*
X114546000Y-118550381D01*
X114450762Y-118598000D01*
X114403143Y-118645619D01*
X114307905Y-118788476D01*
X114260286Y-118978952D01*
X114260286Y-119359905D01*
X114307905Y-119455143D01*
X114355524Y-119502762D01*
X114450762Y-119550381D01*
X114641239Y-119550381D01*
X114736477Y-119502762D01*
X114784096Y-119455143D01*
X114831715Y-119359905D01*
X114831715Y-119121810D01*
X114784096Y-119026571D01*
X114736477Y-118978952D01*
X114641239Y-118931333D01*
X114450762Y-118931333D01*
X114355524Y-118978952D01*
X114307905Y-119026571D01*
X114260286Y-119121810D01*
X120979143Y-116244666D02*
X121026762Y-116292285D01*
X121074381Y-116435142D01*
X121074381Y-116530380D01*
X121026762Y-116673238D01*
X120931524Y-116768476D01*
X120836286Y-116816095D01*
X120645810Y-116863714D01*
X120502952Y-116863714D01*
X120312476Y-116816095D01*
X120217238Y-116768476D01*
X120122000Y-116673238D01*
X120074381Y-116530380D01*
X120074381Y-116435142D01*
X120122000Y-116292285D01*
X120169619Y-116244666D01*
X120074381Y-115911333D02*
X120074381Y-115244666D01*
X121074381Y-115673238D01*
X121543143Y-135294666D02*
X121590762Y-135342285D01*
X121638381Y-135485142D01*
X121638381Y-135580380D01*
X121590762Y-135723238D01*
X121495524Y-135818476D01*
X121400286Y-135866095D01*
X121209810Y-135913714D01*
X121066952Y-135913714D01*
X120876476Y-135866095D01*
X120781238Y-135818476D01*
X120686000Y-135723238D01*
X120638381Y-135580380D01*
X120638381Y-135485142D01*
X120686000Y-135342285D01*
X120733619Y-135294666D01*
X121066952Y-134723238D02*
X121019333Y-134818476D01*
X120971714Y-134866095D01*
X120876476Y-134913714D01*
X120828857Y-134913714D01*
X120733619Y-134866095D01*
X120686000Y-134818476D01*
X120638381Y-134723238D01*
X120638381Y-134532761D01*
X120686000Y-134437523D01*
X120733619Y-134389904D01*
X120828857Y-134342285D01*
X120876476Y-134342285D01*
X120971714Y-134389904D01*
X121019333Y-134437523D01*
X121066952Y-134532761D01*
X121066952Y-134723238D01*
X121114571Y-134818476D01*
X121162190Y-134866095D01*
X121257429Y-134913714D01*
X121447905Y-134913714D01*
X121543143Y-134866095D01*
X121590762Y-134818476D01*
X121638381Y-134723238D01*
X121638381Y-134532761D01*
X121590762Y-134437523D01*
X121543143Y-134389904D01*
X121447905Y-134342285D01*
X121257429Y-134342285D01*
X121162190Y-134389904D01*
X121114571Y-134437523D01*
X121066952Y-134532761D01*
X113284095Y-110090381D02*
X113284095Y-110899905D01*
X113331714Y-110995143D01*
X113379333Y-111042762D01*
X113474571Y-111090381D01*
X113665048Y-111090381D01*
X113760286Y-111042762D01*
X113807905Y-110995143D01*
X113855524Y-110899905D01*
X113855524Y-110090381D01*
X114284095Y-110185619D02*
X114331714Y-110138000D01*
X114426952Y-110090381D01*
X114665048Y-110090381D01*
X114760286Y-110138000D01*
X114807905Y-110185619D01*
X114855524Y-110280857D01*
X114855524Y-110376095D01*
X114807905Y-110518952D01*
X114236476Y-111090381D01*
X114855524Y-111090381D01*
X115570095Y-131934381D02*
X115570095Y-132743905D01*
X115617714Y-132839143D01*
X115665333Y-132886762D01*
X115760571Y-132934381D01*
X115951048Y-132934381D01*
X116046286Y-132886762D01*
X116093905Y-132839143D01*
X116141524Y-132743905D01*
X116141524Y-131934381D01*
X116522476Y-131934381D02*
X117141524Y-131934381D01*
X116808190Y-132315333D01*
X116951048Y-132315333D01*
X117046286Y-132362952D01*
X117093905Y-132410571D01*
X117141524Y-132505810D01*
X117141524Y-132743905D01*
X117093905Y-132839143D01*
X117046286Y-132886762D01*
X116951048Y-132934381D01*
X116665333Y-132934381D01*
X116570095Y-132886762D01*
X116522476Y-132839143D01*
X119046667Y-97877381D02*
X119046667Y-98591667D01*
X118999047Y-98734524D01*
X118903809Y-98829762D01*
X118760952Y-98877381D01*
X118665714Y-98877381D01*
X119999048Y-97877381D02*
X119522857Y-97877381D01*
X119475238Y-98353571D01*
X119522857Y-98305952D01*
X119618095Y-98258333D01*
X119856191Y-98258333D01*
X119951429Y-98305952D01*
X119999048Y-98353571D01*
X120046667Y-98448810D01*
X120046667Y-98686905D01*
X119999048Y-98782143D01*
X119951429Y-98829762D01*
X119856191Y-98877381D01*
X119618095Y-98877381D01*
X119522857Y-98829762D01*
X119475238Y-98782143D01*
X129206667Y-97877381D02*
X129206667Y-98591667D01*
X129159047Y-98734524D01*
X129063809Y-98829762D01*
X128920952Y-98877381D01*
X128825714Y-98877381D01*
X129587619Y-97877381D02*
X130254286Y-97877381D01*
X129825714Y-98877381D01*
X152066667Y-143597381D02*
X152066667Y-144311667D01*
X152019047Y-144454524D01*
X151923809Y-144549762D01*
X151780952Y-144597381D01*
X151685714Y-144597381D01*
X153066667Y-144597381D02*
X152495238Y-144597381D01*
X152780952Y-144597381D02*
X152780952Y-143597381D01*
X152685714Y-143740238D01*
X152590476Y-143835476D01*
X152495238Y-143883095D01*
X136826667Y-143597381D02*
X136826667Y-144311667D01*
X136779047Y-144454524D01*
X136683809Y-144549762D01*
X136540952Y-144597381D01*
X136445714Y-144597381D01*
X137255238Y-143692619D02*
X137302857Y-143645000D01*
X137398095Y-143597381D01*
X137636191Y-143597381D01*
X137731429Y-143645000D01*
X137779048Y-143692619D01*
X137826667Y-143787857D01*
X137826667Y-143883095D01*
X137779048Y-144025952D01*
X137207619Y-144597381D01*
X137826667Y-144597381D01*
X129206667Y-143597381D02*
X129206667Y-144311667D01*
X129159047Y-144454524D01*
X129063809Y-144549762D01*
X128920952Y-144597381D01*
X128825714Y-144597381D01*
X129587619Y-143597381D02*
X130206667Y-143597381D01*
X129873333Y-143978333D01*
X130016191Y-143978333D01*
X130111429Y-144025952D01*
X130159048Y-144073571D01*
X130206667Y-144168810D01*
X130206667Y-144406905D01*
X130159048Y-144502143D01*
X130111429Y-144549762D01*
X130016191Y-144597381D01*
X129730476Y-144597381D01*
X129635238Y-144549762D01*
X129587619Y-144502143D01*
X144446667Y-143597381D02*
X144446667Y-144311667D01*
X144399047Y-144454524D01*
X144303809Y-144549762D01*
X144160952Y-144597381D01*
X144065714Y-144597381D01*
X145351429Y-143930714D02*
X145351429Y-144597381D01*
X145113333Y-143549762D02*
X144875238Y-144264048D01*
X145494286Y-144264048D01*
X121586667Y-143597381D02*
X121586667Y-144311667D01*
X121539047Y-144454524D01*
X121443809Y-144549762D01*
X121300952Y-144597381D01*
X121205714Y-144597381D01*
X122491429Y-143597381D02*
X122300952Y-143597381D01*
X122205714Y-143645000D01*
X122158095Y-143692619D01*
X122062857Y-143835476D01*
X122015238Y-144025952D01*
X122015238Y-144406905D01*
X122062857Y-144502143D01*
X122110476Y-144549762D01*
X122205714Y-144597381D01*
X122396191Y-144597381D01*
X122491429Y-144549762D01*
X122539048Y-144502143D01*
X122586667Y-144406905D01*
X122586667Y-144168810D01*
X122539048Y-144073571D01*
X122491429Y-144025952D01*
X122396191Y-143978333D01*
X122205714Y-143978333D01*
X122110476Y-144025952D01*
X122062857Y-144073571D01*
X122015238Y-144168810D01*
M02*
