M48
INCH,TZ
T1C0.016
T2C0.030
T3C0.031
T4C0.031
T5C0.035
T6C0.047
T7C0.126
%
G90
G05
T1
X43750Y-44500
X44000Y-53400
X44250Y-45750
X44400Y-52200
X44400Y-53600
X45000Y-43500
X45900Y-44700
X46200Y-50400
X46250Y-54500
X46750Y-44250
X47000Y-48500
X47000Y-50250
X47400Y-46500
X48200Y-51400
X48250Y-48750
X50000Y-45600
X51800Y-50200
X53300Y-45100
X53300Y-46200
X53300Y-47400
X54600Y-50000
X55000Y-45750
X57975Y-54275
T2
X48463Y-38750
X49250Y-38750
X52463Y-38750
X53250Y-38750
T3
X56070Y-43926
X56070Y-44714
X56070Y-45501
X56070Y-46289
X56070Y-47076
X56070Y-47863
X56070Y-48651
X56070Y-49438
X56070Y-50226
X56070Y-51013
X64730Y-43926
X64730Y-44714
X64730Y-45501
X64730Y-46289
X64730Y-47076
X64730Y-47863
X64730Y-48651
X64730Y-49438
X64730Y-50226
X64730Y-51013
T4
X36800Y-41000
X36800Y-42000
X36800Y-43000
X36800Y-44000
X36800Y-45000
X36800Y-46000
X36800Y-47000
X36800Y-48000
X36800Y-49000
X36800Y-50000
X36800Y-51000
X36800Y-52000
X36800Y-53000
X36800Y-54000
X36800Y-55000
X42800Y-41000
X42800Y-42000
X42800Y-43000
X42800Y-44000
X42800Y-45000
X42800Y-46000
X42800Y-47000
X42800Y-48000
X42800Y-49000
X42800Y-50000
X42800Y-51000
X42800Y-52000
X42800Y-53000
X42800Y-54000
X42800Y-55000
T5
X49500Y-43000
X50500Y-43000
X51500Y-43000
T6
X46000Y-56500
X47000Y-56500
X49000Y-56500
X50000Y-56500
X52000Y-56500
X53000Y-56500
X55000Y-56500
X56000Y-56500
X58000Y-56500
X59000Y-56500
T7
X34252Y-38583
X34252Y-57480
X64567Y-38583
X64567Y-57480
T0
M30
