G04 #@! TF.FileFunction,Soldermask,Bot*
%FSLAX46Y46*%
G04 Gerber Fmt 4.6, Leading zero omitted, Abs format (unit mm)*
G04 Created by KiCad (PCBNEW 4.0.7) date 04/09/18 23:54:34*
%MOMM*%
%LPD*%
G01*
G04 APERTURE LIST*
%ADD10C,0.100000*%
%ADD11C,52.470000*%
%ADD12R,52.400000X52.400000*%
%ADD13O,52.400000X52.400000*%
%ADD14R,52.100000X52.300000*%
%ADD15C,53.600000*%
%ADD16C,52.580000*%
%ADD17C,53.500000*%
%ADD18C,57.200000*%
%ADD19R,51.600000X51.900000*%
%ADD20R,51.800000X51.900000*%
G04 APERTURE END LIST*
D10*
D11*
X125730000Y-53213000D03*
X123190000Y-53213000D03*
D12*
X89217500Y-93154500D03*
D13*
X122237500Y-77914500D03*
X91757500Y-93154500D03*
X119697500Y-77914500D03*
X94297500Y-93154500D03*
X117157500Y-77914500D03*
X96837500Y-93154500D03*
X114617500Y-77914500D03*
X99377500Y-93154500D03*
X112077500Y-77914500D03*
X101917500Y-93154500D03*
X109537500Y-77914500D03*
X104457500Y-93154500D03*
X106997500Y-77914500D03*
X106997500Y-93154500D03*
X104457500Y-77914500D03*
X109537500Y-93154500D03*
X101917500Y-77914500D03*
X112077500Y-93154500D03*
X99377500Y-77914500D03*
X114617500Y-93154500D03*
X96837500Y-77914500D03*
X117157500Y-93154500D03*
X94297500Y-77914500D03*
X119697500Y-93154500D03*
X91757500Y-77914500D03*
X122237500Y-93154500D03*
X89217500Y-77914500D03*
X124777500Y-93154500D03*
X124777500Y-77914500D03*
D11*
X135255000Y-53213000D03*
X132715000Y-53213000D03*
X134366000Y-76454000D03*
X134366000Y-73914000D03*
X134366000Y-69342000D03*
X134366000Y-66802000D03*
X134366000Y-62230000D03*
X134366000Y-59690000D03*
D14*
X114300000Y-87710000D03*
X114300000Y-85010000D03*
D15*
X104775000Y-140716000D03*
X84455000Y-140716000D03*
D16*
X104775000Y-111252000D03*
X102235000Y-111252000D03*
X99695000Y-111252000D03*
X97155000Y-111252000D03*
X94615000Y-111252000D03*
X92075000Y-111252000D03*
X89535000Y-111252000D03*
X86995000Y-111252000D03*
X84455000Y-111252000D03*
X133350000Y-112014000D03*
X130810000Y-112014000D03*
X125730000Y-112014000D03*
X128270000Y-112014000D03*
X123190000Y-112014000D03*
X120650000Y-112014000D03*
X118110000Y-112014000D03*
X115570000Y-112014000D03*
D17*
X114300000Y-139700000D03*
X134620000Y-139700000D03*
X134620000Y-119380000D03*
X114300000Y-119380000D03*
D18*
X117000000Y-52000000D03*
X98000000Y-52000000D03*
X80000000Y-147000000D03*
X135000000Y-147000000D03*
D19*
X118195000Y-84585000D03*
X119295000Y-84585000D03*
D20*
X118745000Y-88135000D03*
M02*
